<svg xmlns="http://www.w3.org/2000/svg" viewBox="0 0 40.45443 40.45578"><path d="M20.22654,1.38237A18.84553,18.84553,0,1,0,39.07207,20.22789,18.86583,18.86583,0,0,0,20.22654,1.38237Z" style="fill:#26a9e1"/><path d="M20.22654,40.45578A20.22789,20.22789,0,1,1,40.45443,20.22789,20.25,20.25,0,0,1,20.22654,40.45578Zm0-39.07341A18.84553,18.84553,0,1,0,39.07207,20.22789,18.86583,18.86583,0,0,0,20.22654,1.38237Z" style="fill:#fff"/><path d="M16.7771,19.81163,9.6054,14.86544a.54339.54339,0,0,0-.8519.44732v9.89239a.54339.54339,0,0,0,.8519.44732l7.1717-4.94619A.54339.54339,0,0,0,16.7771,19.81163Z" style="fill:#26a9e1"/><path d="M8.38413,25.90843V14.60931A.54339.54339,0,0,1,9.236,14.162l8.19171,5.64956a.54339.54339,0,0,1,0,.89465L9.236,26.35576A.54339.54339,0,0,1,8.38413,25.90843Zm.73878-9.89222v8.48533a.54339.54339,0,0,0,.85191.44732l6.15143-4.24267a.54339.54339,0,0,0,0-.89463L9.97482,15.56889A.54339.54339,0,0,0,9.12291,16.01621Z" style="fill:#fff"/><path d="M22.41832,19.81163l-7.1717-4.94619a.54339.54339,0,0,0-.8519.44732v9.89239a.54339.54339,0,0,0,.8519.44732l7.1717-4.94619A.54339.54339,0,0,0,22.41832,19.81163Z" style="fill:#26a9e1"/><path d="M14.02535,25.90843V14.60931a.54339.54339,0,0,1,.85189-.44732L23.069,19.81155a.54339.54339,0,0,1,0,.89465l-8.19171,5.64956A.54339.54339,0,0,1,14.02535,25.90843Zm.73878-9.89222v8.48533a.54339.54339,0,0,0,.85191.44732l6.15143-4.24267a.54339.54339,0,0,0,0-.89463L15.616,15.56889A.54339.54339,0,0,0,14.76413,16.01621Z" style="fill:#fff"/><path d="M28.05954,19.81163l-7.1717-4.94619a.54339.54339,0,0,0-.8519.44732v9.89239a.54339.54339,0,0,0,.8519.44732l7.1717-4.94619A.54339.54339,0,0,0,28.05954,19.81163Z" style="fill:#26a9e1"/><path d="M19.66657,25.90843V14.60931a.54339.54339,0,0,1,.85189-.44732l8.19171,5.64956a.54339.54339,0,0,1,0,.89465l-8.19171,5.64956A.54339.54339,0,0,1,19.66657,25.90843Zm.73878-9.89222v8.48533a.54339.54339,0,0,0,.85191.44732l6.15143-4.24267a.5434.5434,0,0,0,0-.89463l-6.15143-4.24267A.54339.54339,0,0,0,20.40535,16.01621Z" style="fill:#fff"/><path d="M33.70076,19.81163l-7.1717-4.94619a.54339.54339,0,0,0-.8519.44732v9.89239a.54339.54339,0,0,0,.8519.44732l7.1717-4.94619A.54339.54339,0,0,0,33.70076,19.81163Z" style="fill:#f69c2a"/><path d="M25.30779,25.90843V14.60931a.54339.54339,0,0,1,.85189-.44732l8.19171,5.64956a.54339.54339,0,0,1,0,.89465l-8.19171,5.64956A.54339.54339,0,0,1,25.30779,25.90843Zm.73878-9.89222v8.48533a.54339.54339,0,0,0,.85191.44732l6.15143-4.24267a.5434.5434,0,0,0,0-.89463l-6.15143-4.24267A.54339.54339,0,0,0,26.04657,16.01621Z" style="fill:#fff"/></svg>