<svg xmlns="http://www.w3.org/2000/svg" viewBox="0 0 40.45443 40.45578"><path d="M20.22654,1.38237A18.84553,18.84553,0,1,0,39.07207,20.22789,18.86583,18.86583,0,0,0,20.22654,1.38237Z" style="fill:#26a9e1"/><path d="M20.22654,40.45578A20.22789,20.22789,0,1,1,40.45443,20.22789,20.25,20.25,0,0,1,20.22654,40.45578Zm0-39.07341A18.84553,18.84553,0,1,0,39.07207,20.22789,18.86583,18.86583,0,0,0,20.22654,1.38237Z" style="fill:#fff"/><path d="M29.49886,18.56261H1.46663c-.04834.54974-.08422,1.10315-.08422,1.66528s.03588,1.11548.08422,1.66522H29.49886Z" style="fill:#fff"/><circle cx="14.54679" cy="20.22789" r="4.47136" style="fill:#fff"/><path d="M1.51668,18.06285c-.038.33-.05468.66516-.07531,1H39.013c-.02063-.33484-.03735-.67-.07532-1Z" style="fill:#fff"/><path d="M1.44137,21.39293c.02063.33484.03735.67.07531,1h37.421c.038-.33.05469-.66516.07532-1Z" style="fill:#fff"/><circle cx="14.58222" cy="20.22789" r="2.58333" style="fill:#f69c2a"/></svg>