<svg viewBox="0 0 75 75" fill="none" xmlns="http://www.w3.org/2000/svg">
<path d="M34.9328 7.01992e-08C28.0238 7.01991e-08 21.2699 2.04877 15.5252 5.88724C9.78053 9.72571 5.3031 15.1815 2.65912 21.5646C0.015136 27.9478 -0.676651 34.9716 0.67124 41.7479C2.01913 48.5242 5.34616 54.7486 10.2316 59.6341C15.117 64.5195 21.3415 67.8465 28.1178 69.1944C34.8941 70.5423 41.9179 69.8505 48.3011 67.2066C54.6842 64.5626 60.14 60.0851 63.9784 54.3405C67.8169 48.5958 69.8657 41.8419 69.8657 34.9328C69.8557 25.6711 66.1721 16.7916 59.6231 10.2426C53.0741 3.69358 44.1945 0.00996907 34.9328 7.01992e-08Z" transform="translate(2.56689 2.56714)" fill="#1FAAE2"/>
<path d="M41.3358 74.8033C33.6318 75.5955 25.8714 73.9829 19.1208 70.1872C12.3701 66.3914 6.96021 60.5987 3.63423 53.6046C0.308251 46.6105 -0.770668 38.7582 0.54567 31.1262C1.86201 23.4943 5.50903 16.4571 10.9858 10.9813C16.4625 5.50543 23.5004 1.85962 31.1325 0.544581C38.7647 -0.770453 46.6168 0.309809 53.6104 3.63698C60.6039 6.96415 66.3957 12.375 70.1903 19.1264C73.9849 25.8777 75.5961 33.6383 74.8026 41.3422C73.9128 49.9137 70.1008 57.9181 64.0067 64.0112C57.9126 70.1043 49.9075 73.9149 41.3358 74.8033ZM41.0845 2.74711C33.9071 2.00679 26.6766 3.50689 20.3861 7.04135C14.0955 10.5758 9.05366 15.9712 5.95297 22.4865C2.85229 29.0018 1.84491 36.3173 3.06922 43.4281C4.29352 50.5389 7.68945 57.0963 12.7905 62.1994C17.8916 67.3026 24.4476 70.7011 31.5579 71.9283C38.6683 73.1555 45.9842 72.151 52.5007 69.053C59.0172 65.9549 64.4147 60.9152 67.9517 54.6261C71.4887 48.337 72.9917 41.1071 72.2542 33.9294C71.4274 25.9437 67.8781 18.4856 62.2023 12.8075C56.5265 7.12945 49.0699 3.57715 41.0845 2.74711Z" fill="white"/>
<path d="M-7.35287e-07 2.8832V21.576C4.20456e-06 22.3407 0.303768 23.074 0.844466 23.6147C1.38516 24.1554 2.1185 24.4592 2.88316 24.4592H6.60789C6.74166 24.4592 6.87352 24.4909 6.99264 24.5518C7.11177 24.6126 7.21477 24.7008 7.2932 24.8092C7.37162 24.9176 7.42323 25.043 7.44378 25.1751C7.46434 25.3073 7.45326 25.4425 7.41145 25.5695L5.43 31.5913C5.37389 31.7618 5.37348 31.9458 5.42884 32.1165C5.48421 32.2873 5.59246 32.4361 5.73795 32.5412C5.88345 32.6464 6.05863 32.7026 6.23815 32.7016C6.41768 32.7006 6.59224 32.6426 6.73658 32.5358L17.4327 24.625C17.5783 24.5174 17.7547 24.4593 17.9357 24.4593H36.0301C36.7947 24.4593 37.5281 24.1555 38.0688 23.6148C38.6095 23.0741 38.9132 22.3408 38.9132 21.5761V2.88327C38.9132 2.11858 38.6094 1.38521 38.0687 0.844491C37.528 0.303772 36.7946 -4.34837e-07 36.0299 -4.34837e-07H2.88316C2.50454 -4.34868e-07 2.12962 0.0745766 1.77981 0.219471C1.43001 0.364366 1.11217 0.576741 0.844446 0.844471C0.576719 1.1122 0.364347 1.43004 0.219457 1.77985C0.0745666 2.12966 -5.62728e-06 2.50457 -7.35287e-07 2.8832Z" transform="translate(17.6422 21.6418)" fill="#F49B2C"/>
<path d="M4.83138 33.95L7.16663 26.8539C7.20844 26.7268 7.21953 26.5917 7.19897 26.4595C7.17842 26.3273 7.12681 26.2019 7.04839 26.0935C6.96997 25.9851 6.86696 25.8969 6.74783 25.8361C6.6287 25.7752 6.49684 25.7435 6.36307 25.7435H3.52551C3.06253 25.7435 2.60409 25.6523 2.17635 25.4752C1.74861 25.298 1.35996 25.0383 1.03259 24.7109C0.705217 24.3835 0.44553 23.9949 0.268358 23.5671C0.0911857 23.1394 -1.64959e-06 22.681 7.96398e-07 22.218V3.52489C7.96398e-07 2.59003 0.371373 1.69346 1.03242 1.03242C1.69346 0.371372 2.59004 1.30167e-07 3.5249 1.30167e-07H36.6725C37.6073 1.30167e-07 38.5039 0.371372 39.1649 1.03242C39.826 1.69346 40.1974 2.59003 40.1974 3.52489V22.2174C40.1974 23.1526 39.8258 24.0495 39.1646 24.7107C38.5033 25.372 37.6064 25.7435 36.6712 25.7435H18.7901C18.609 25.7435 18.4326 25.8016 18.287 25.9093L6.13795 34.8946C5.9936 35.0013 5.81905 35.0594 5.63952 35.0603C5.46 35.0613 5.28483 35.0051 5.13934 34.9C4.99385 34.7948 4.8856 34.6461 4.83024 34.4753C4.77487 34.3045 4.77528 34.1206 4.83138 33.95ZM3.5249 1.28429C2.93063 1.28429 2.3607 1.52036 1.94049 1.94057C1.52028 2.36078 1.28421 2.9307 1.28421 3.52497V22.218C1.28421 22.8124 1.52034 23.3825 1.94065 23.8028C2.36096 24.2231 2.93102 24.4592 3.52544 24.4592H8.13774C8.27151 24.4592 8.40337 24.4909 8.5225 24.5518C8.64163 24.6126 8.74463 24.7009 8.82305 24.8092C8.90148 24.9176 8.95308 25.043 8.97363 25.1752C8.99418 25.3074 8.98309 25.4425 8.94128 25.5696L7.31338 30.5162C7.25726 30.6867 7.25685 30.8707 7.31221 31.0414C7.36757 31.2122 7.47582 31.361 7.62131 31.4661C7.7668 31.5713 7.94198 31.6275 8.12151 31.6265C8.30104 31.6256 8.4756 31.5675 8.61994 31.4607L17.8631 24.6251C18.0087 24.5174 18.185 24.4593 18.3661 24.4593H36.6725C37.2667 24.4593 37.8366 24.2232 38.2568 23.803C38.677 23.3828 38.9131 22.8129 38.9131 22.2186V3.52489C38.9131 2.93064 38.677 2.36073 38.2568 1.94053C37.8366 1.52032 37.2667 1.28424 36.6725 1.28421L3.5249 1.28429Z" transform="translate(17 21)" fill="white"/>
<path d="M3.9301 -1.58701e-06H6.9371L10.7882 11.4399H8.25793L7.38278 8.76705H3.373L2.53024 11.4399H-5.28625e-08L3.9301 -1.58701e-06ZM3.85042 6.92092H6.95329L5.36235 2.06773L3.85042 6.92092Z" transform="translate(22.0724 28.2737)" fill="white"/>
<path d="M1.45628e-06 0.0227023H4.16845C4.88215 -0.0468566 5.60237 0.0439003 6.2765 0.28834C6.95063 0.53278 7.56164 0.924728 8.06489 1.43555C8.56814 1.94638 8.95092 2.56317 9.18526 3.24088C9.41961 3.91858 9.49959 4.64008 9.41938 5.35266C9.41938 9.76018 7.20787 11.4626 3.32502 11.4626H1.45628e-06V0.0227023ZM3.53237 9.60081C5.23476 9.60081 6.87363 8.85328 6.87363 5.54311C6.87363 1.94792 4.91667 1.86759 3.15016 1.86759H2.46611V9.60081H3.53237Z" transform="translate(34.2987 28.251)" fill="white"/>
<path d="M0.047291 9.2473H0.126954C1.0569 9.65254 2.0564 9.87426 3.07048 9.90026C4.16847 9.90026 4.93222 9.50252 4.93222 8.5153C4.93222 6.30377 -1.01519e-06 7.38555 -1.01519e-06 3.39263C0.00308427 2.90518 0.110511 2.42404 0.315057 1.98157C0.519602 1.53911 0.816523 1.14557 1.18585 0.827423C1.55518 0.50928 1.98835 0.273909 2.45623 0.137141C2.92411 0.000372439 3.41585 -0.0346217 3.89838 0.03451C4.82112 0.0317869 5.73695 0.193678 6.60284 0.512578L6.746 2.46888H6.68253C5.87394 2.15821 5.01876 1.98608 4.15294 1.95973C2.89559 1.95973 2.32296 2.40541 2.32296 3.20088C2.32296 5.28546 7.27136 4.31507 7.27136 8.27691C7.28093 8.78868 7.1796 9.29645 6.97432 9.76534C6.76904 10.2342 6.46468 10.6531 6.08217 10.9932C5.69965 11.3333 5.24803 11.5866 4.75835 11.7356C4.26867 11.8847 3.75253 11.9259 3.2454 11.8566C2.2003 11.8637 1.16525 11.6523 0.206635 11.236L0.047291 9.2473Z" transform="translate(44.8538 28.0475)" fill="white"/>
</svg>
