<svg xmlns="http://www.w3.org/2000/svg" viewBox="0 0 40.45443 40.45578"><path d="M20.12947,1.37573A18.75508,18.75508,0,1,0,38.88455,20.13081,18.7753,18.7753,0,0,0,20.12947,1.37573Z" style="fill:#26a9e1"/><path d="M22.18891,40.15855a20.13335,20.13335,0,1,1,17.968-17.96493A20.15316,20.15316,0,0,1,22.18891,40.15855ZM22.054,1.47233A18.75747,18.75747,0,1,0,38.78871,18.21378,18.77573,18.77573,0,0,0,22.054,1.47233Z" style="fill:#fff"/><path d="M9.52183,14.94526v10.036a1.54794,1.54794,0,0,0,1.54794,1.54793h1.99977a.45418.45418,0,0,1,.43142.59614l-1.06382,3.233a.45418.45418,0,0,0,.70149.50712l5.74266-4.24722a.45419.45419,0,0,1,.27006-.089H28.866a1.54794,1.54794,0,0,0,1.54794-1.54793v-10.036a1.548,1.548,0,0,0-1.548-1.548H11.06977A1.54794,1.54794,0,0,0,9.52183,14.94526Z" style="fill:#f49b2c"/><path d="M11.77085,31.28014l1.25377-3.80984a.45418.45418,0,0,0-.43142-.59615H11.06974a1.89281,1.89281,0,0,1-1.89281-1.89282V14.9452a1.89248,1.89248,0,0,1,1.89248-1.89248H28.866a1.89248,1.89248,0,0,1,1.89248,1.89248V24.981a1.89316,1.89316,0,0,1-1.89316,1.89315H19.26512a.45415.45415,0,0,0-.27007.089l-6.52272,4.82411A.45418.45418,0,0,1,11.77085,31.28014Zm-.70144-17.5379a1.203,1.203,0,0,0-1.203,1.203V24.98133a1.2033,1.2033,0,0,0,1.20329,1.2033H13.546a.45417.45417,0,0,1,.43141.59615l-.874,2.65575a.45418.45418,0,0,0,.70148.50714l4.96256-3.67a.45417.45417,0,0,1,.27005-.089H28.866a1.203,1.203,0,0,0,1.20295-1.203V14.9452a1.203,1.203,0,0,0-1.20295-1.203Z" style="fill:#fff"/><path d="M14.01029,16.95794h1.61443l2.0676,6.14194H16.33386l-.46986-1.435H13.71119l-.45247,1.435H11.90026Zm-.04278,3.71577h1.6659l-.85416-2.60563Z" style="fill:#fff"/><path d="M18.46441,16.95794h2.238a2.58467,2.58467,0,0,1,2.81917,2.8616c0,2.36635-1.18734,3.28034-3.272,3.28034H18.46441Zm1.89649,5.14239c.914,0,1.79389-.40134,1.79389-2.17854,0-1.93022-1.05067-1.97335-1.99909-1.97335h-.36726v4.15189Z" style="fill:#fff"/><path d="M24.15666,21.80124h.04277a4.2271,4.2271,0,0,0,1.58035.35057c.5895,0,.99955-.21354.99955-.74357,0-1.18735-2.64806-.60655-2.64806-2.75031a1.83307,1.83307,0,0,1,2.093-1.80294,4.16584,4.16584,0,0,1,1.452.25667l.07686,1.05032h-.03408a4.13769,4.13769,0,0,0-1.35811-.27336c-.67506,0-.9825.23928-.9825.66636,0,1.11919,2.65675.5982,2.65675,2.72527a1.90385,1.90385,0,0,1-2.1615,1.92188,4.02638,4.02638,0,0,1-1.63148-.33318Z" style="fill:#fff"/></svg>