<svg xmlns="http://www.w3.org/2000/svg" viewBox="0 0 40.45443 40.45578"><path d="M20.22654,1.38237A18.84553,18.84553,0,1,0,39.07207,20.22789,18.86583,18.86583,0,0,0,20.22654,1.38237Z" style="fill:#26a9e1"/><path d="M22.97384,28.4172V8.50013H35.52293a19.37684,19.37684,0,0,0-1.9293-2.149H20.82479v19.917H1.90686a19.13713,19.13713,0,0,0,.85736,2.14905Z" style="fill:#98daef"/><path d="M16.37212,10.31114v19.917H3.729a19.36375,19.36375,0,0,0,1.48248,2.14323l.00433.00582H18.52112V12.46014H37.89583a19.20305,19.20305,0,0,0-1.133-2.149Z" style="fill:#f59b2b;stroke:#fff;stroke-miterlimit:10"/><path d="M20.22654,40.45578A20.22789,20.22789,0,1,1,40.45443,20.22789,20.25,20.25,0,0,1,20.22654,40.45578Zm0-39.07341A18.84553,18.84553,0,1,0,39.07207,20.22789,18.86583,18.86583,0,0,0,20.22654,1.38237Z" style="fill:#fff"/></svg>