<svg width="30" height="30" viewBox="0 0 30 30" fill="none" xmlns="http://www.w3.org/2000/svg">
<circle cx="15" cy="15" r="14.5" fill="#1AB3FF" stroke="white"/>
<path d="M5.88477 9.33654V9.33653C5.88476 9.29624 5.8957 9.25671 5.91639 9.22215C5.93709 9.18759 5.96678 9.1593 6.0023 9.14028C6.03781 9.12127 6.07782 9.11224 6.11806 9.11418C6.1583 9.11611 6.19726 9.12893 6.23078 9.15126C6.23078 9.15127 6.23078 9.15127 6.23078 9.15127L12.1448 13.091L12.4196 12.6785L12.1448 13.0911C12.1753 13.1114 12.2003 13.1389 12.2176 13.1712C12.2349 13.2036 12.244 13.2397 12.244 13.2763C12.244 13.313 12.2349 13.3491 12.2176 13.3814C12.2003 13.4137 12.1753 13.4413 12.1448 13.4616L12.1448 13.4616L6.23078 17.4013C6.19726 17.4237 6.1583 17.4365 6.11806 17.4384C6.07782 17.4404 6.03781 17.4313 6.0023 17.4123C5.96678 17.3933 5.93709 17.365 5.91639 17.3305C5.8957 17.2959 5.88476 17.2564 5.88477 17.2161V9.33654Z" fill="#F49D1D" stroke="white"/>
<path d="M12.9655 12.5751L6.30967 8.14133C6.18278 8.05681 6.03534 8.0083 5.88306 8.00097C5.73078 7.99365 5.57937 8.02777 5.44495 8.09972C5.31054 8.17166 5.19817 8.27873 5.11981 8.40951C5.04145 8.54029 5.00004 8.68988 5 8.84233V17.7101C4.99995 17.8626 5.0413 18.0123 5.11963 18.1431C5.19797 18.2739 5.31036 18.381 5.44481 18.453C5.57926 18.525 5.73072 18.5591 5.88303 18.5517C6.03535 18.5443 6.1828 18.4957 6.30967 18.4111L12.9655 13.9774C13.081 13.9005 13.1757 13.7962 13.2412 13.6739C13.3067 13.5516 13.341 13.415 13.341 13.2762C13.341 13.1375 13.3067 13.0008 13.2412 12.8785C13.1757 12.7562 13.081 12.6519 12.9655 12.575V12.5751ZM12.5719 13.2764C12.5721 13.2886 12.5692 13.3006 12.5634 13.3113C12.5577 13.322 12.5492 13.3311 12.539 13.3376L5.88349 17.7713C5.87265 17.7792 5.85975 17.7837 5.84637 17.7844C5.833 17.785 5.81973 17.7817 5.80818 17.775C5.79611 17.7691 5.78601 17.7598 5.77907 17.7483C5.77213 17.7368 5.76866 17.7236 5.76907 17.7101V8.84232C5.76863 8.82862 5.77224 8.81509 5.77945 8.80343C5.78667 8.79178 5.79716 8.78251 5.80962 8.77679C5.82024 8.77119 5.83203 8.76821 5.84403 8.7681C5.85819 8.76836 5.87195 8.77291 5.88349 8.78113L12.5386 13.2149C12.5489 13.2214 12.5574 13.2305 12.5633 13.2413C12.5691 13.2521 12.5721 13.2642 12.5719 13.2764V13.2764Z" fill="white"/>
<path d="M11.6109 17.633H14.3398C14.4701 17.633 14.5758 17.7386 14.5758 17.8689V22.3158C14.5758 22.4461 14.4701 22.5517 14.3398 22.5517H11.6109C11.4806 22.5517 11.375 22.4461 11.375 22.3158V17.8689C11.375 17.7386 11.4806 17.633 11.6109 17.633Z" fill="#F49D1D" stroke="white" stroke-width="0.75"/>
<mask id="path-5-inside-1" fill="white">
<path fill-rule="evenodd" clip-rule="evenodd" d="M11.75 18.008V22.1767H14.2008V18.008H11.75ZM11.6109 17.258H14.3398C14.6772 17.258 14.9508 17.5315 14.9508 17.8689V22.3158C14.9508 22.6532 14.6772 22.9267 14.3398 22.9267H11.6109C11.2735 22.9267 11 22.6532 11 22.3158V17.8689C11 17.5315 11.2735 17.258 11.6109 17.258Z"/>
</mask>
<path fill-rule="evenodd" clip-rule="evenodd" d="M11.75 18.008V22.1767H14.2008V18.008H11.75ZM11.6109 17.258H14.3398C14.6772 17.258 14.9508 17.5315 14.9508 17.8689V22.3158C14.9508 22.6532 14.6772 22.9267 14.3398 22.9267H11.6109C11.2735 22.9267 11 22.6532 11 22.3158V17.8689C11 17.5315 11.2735 17.258 11.6109 17.258Z" fill="#F49D1D"/>
<path d="M11.75 22.1767H11V22.9267H11.75V22.1767ZM11.75 18.008V17.258H11V18.008H11.75ZM14.2008 22.1767V22.9267H14.9508V22.1767H14.2008ZM14.2008 18.008H14.9508V17.258H14.2008V18.008ZM12.5 22.1767V18.008H11V22.1767H12.5ZM14.2008 21.4267H11.75V22.9267H14.2008V21.4267ZM13.4508 18.008V22.1767H14.9508V18.008H13.4508ZM11.75 18.758H14.2008V17.258H11.75V18.758ZM14.3398 16.508H11.6109V18.008H14.3398V16.508ZM15.7008 17.8689C15.7008 17.1173 15.0915 16.508 14.3398 16.508V18.008C14.263 18.008 14.2008 17.9457 14.2008 17.8689H15.7008ZM15.7008 22.3158V17.8689H14.2008V22.3158H15.7008ZM14.3398 23.6767C15.0915 23.6767 15.7008 23.0674 15.7008 22.3158H14.2008C14.2008 22.239 14.263 22.1767 14.3398 22.1767V23.6767ZM11.6109 23.6767H14.3398V22.1767H11.6109V23.6767ZM10.25 22.3158C10.25 23.0674 10.8593 23.6767 11.6109 23.6767V22.1767C11.6877 22.1767 11.75 22.239 11.75 22.3158H10.25ZM10.25 17.8689V22.3158H11.75V17.8689H10.25ZM11.6109 16.508C10.8593 16.508 10.25 17.1173 10.25 17.8689H11.75C11.75 17.9457 11.6877 18.008 11.6109 18.008V16.508Z" fill="white" mask="url(#path-5-inside-1)"/>
<path d="M16.4706 15.7646H19.0125C19.1944 15.7646 19.3419 15.9121 19.3419 16.0941V22.2222C19.3419 22.4042 19.1944 22.5517 19.0125 22.5517H16.4706C16.2887 22.5517 16.1412 22.4042 16.1412 22.2222V16.0941C16.1412 15.9121 16.2887 15.7646 16.4706 15.7646Z" fill="#F49D1D" stroke="white" stroke-width="0.75"/>
<mask id="path-8-inside-2" fill="white">
<path fill-rule="evenodd" clip-rule="evenodd" d="M16.5162 16.1396V22.1767H18.9669V16.1396H16.5162ZM16.4706 15.3896H19.0125C19.4015 15.3896 19.7169 15.705 19.7169 16.0941V22.2222C19.7169 22.6113 19.4015 22.9267 19.0125 22.9267H16.4706C16.0816 22.9267 15.7662 22.6113 15.7662 22.2222V16.0941C15.7662 15.705 16.0816 15.3896 16.4706 15.3896Z"/>
</mask>
<path fill-rule="evenodd" clip-rule="evenodd" d="M16.5162 16.1396V22.1767H18.9669V16.1396H16.5162ZM16.4706 15.3896H19.0125C19.4015 15.3896 19.7169 15.705 19.7169 16.0941V22.2222C19.7169 22.6113 19.4015 22.9267 19.0125 22.9267H16.4706C16.0816 22.9267 15.7662 22.6113 15.7662 22.2222V16.0941C15.7662 15.705 16.0816 15.3896 16.4706 15.3896Z" fill="#F49D1D"/>
<path d="M16.5162 22.1767H15.7662V22.9267H16.5162V22.1767ZM16.5162 16.1396V15.3896H15.7662V16.1396H16.5162ZM18.9669 22.1767V22.9267H19.7169V22.1767H18.9669ZM18.9669 16.1396H19.7169V15.3896H18.9669V16.1396ZM17.2662 22.1767V16.1396H15.7662V22.1767H17.2662ZM18.9669 21.4267H16.5162V22.9267H18.9669V21.4267ZM18.2169 16.1396V22.1767H19.7169V16.1396H18.2169ZM16.5162 16.8896H18.9669V15.3896H16.5162V16.8896ZM19.0125 14.6396H16.4706V16.1396H19.0125V14.6396ZM20.4669 16.0941C20.4669 15.2908 19.8158 14.6396 19.0125 14.6396V16.1396C18.9873 16.1396 18.9669 16.1193 18.9669 16.0941H20.4669ZM20.4669 22.2222V16.0941H18.9669V22.2222H20.4669ZM19.0125 23.6767C19.8158 23.6767 20.4669 23.0255 20.4669 22.2222H18.9669C18.9669 22.1971 18.9873 22.1767 19.0125 22.1767V23.6767ZM16.4706 23.6767H19.0125V22.1767H16.4706V23.6767ZM15.0162 22.2222C15.0162 23.0255 15.6673 23.6767 16.4706 23.6767V22.1767C16.4958 22.1767 16.5162 22.1971 16.5162 22.2222H15.0162ZM15.0162 16.0941V22.2222H16.5162V16.0941H15.0162ZM16.4706 14.6396C15.6673 14.6396 15.0162 15.2908 15.0162 16.0941H16.5162C16.5162 16.1193 16.4958 16.1396 16.4706 16.1396V14.6396Z" fill="white" mask="url(#path-8-inside-2)"/>
<path d="M21.3407 13.375H23.6746C23.914 13.375 24.108 13.5691 24.108 13.8084V22.1182C24.108 22.3575 23.914 22.5516 23.6746 22.5516H21.3407C21.1013 22.5516 20.9073 22.3575 20.9073 22.1182V13.8084C20.9073 13.5691 21.1013 13.375 21.3407 13.375Z" fill="#F49D1D" stroke="white" stroke-width="0.75"/>
<mask id="path-11-inside-3" fill="white">
<path fill-rule="evenodd" clip-rule="evenodd" d="M23.6746 13.75H21.3407C21.3084 13.75 21.2823 13.7762 21.2823 13.8084V22.1182C21.2823 22.1504 21.3084 22.1766 21.3407 22.1766H23.6746C23.7069 22.1766 23.733 22.1504 23.733 22.1182V13.8084C23.733 13.7762 23.7069 13.75 23.6746 13.75ZM21.3407 13H23.6746C24.1211 13 24.483 13.362 24.483 13.8084V22.1182C24.483 22.5647 24.1211 22.9266 23.6746 22.9266H21.3407C20.8942 22.9266 20.5323 22.5647 20.5323 22.1182V13.8084C20.5323 13.362 20.8942 13 21.3407 13Z"/>
</mask>
<path fill-rule="evenodd" clip-rule="evenodd" d="M23.6746 13.75H21.3407C21.3084 13.75 21.2823 13.7762 21.2823 13.8084V22.1182C21.2823 22.1504 21.3084 22.1766 21.3407 22.1766H23.6746C23.7069 22.1766 23.733 22.1504 23.733 22.1182V13.8084C23.733 13.7762 23.7069 13.75 23.6746 13.75ZM21.3407 13H23.6746C24.1211 13 24.483 13.362 24.483 13.8084V22.1182C24.483 22.5647 24.1211 22.9266 23.6746 22.9266H21.3407C20.8942 22.9266 20.5323 22.5647 20.5323 22.1182V13.8084C20.5323 13.362 20.8942 13 21.3407 13Z" fill="#F49D1D"/>
<path d="M21.3407 14.5H23.6746V13H21.3407V14.5ZM22.0323 13.8084C22.0323 14.1904 21.7226 14.5 21.3407 14.5V13C20.8942 13 20.5323 13.362 20.5323 13.8084H22.0323ZM22.0323 22.1182V13.8084H20.5323V22.1182H22.0323ZM21.3407 21.4266C21.7226 21.4266 22.0323 21.7362 22.0323 22.1182H20.5323C20.5323 22.5647 20.8942 22.9266 21.3407 22.9266V21.4266ZM23.6746 21.4266H21.3407V22.9266H23.6746V21.4266ZM22.983 22.1182C22.983 21.7362 23.2926 21.4266 23.6746 21.4266V22.9266C24.1211 22.9266 24.483 22.5646 24.483 22.1182H22.983ZM22.983 13.8084V22.1182H24.483V13.8084H22.983ZM23.6746 14.5C23.2927 14.5 22.983 14.1904 22.983 13.8084H24.483C24.483 13.362 24.1211 13 23.6746 13V14.5ZM23.6746 12.25H21.3407V13.75H23.6746V12.25ZM25.233 13.8084C25.233 12.9477 24.5353 12.25 23.6746 12.25V13.75C23.7069 13.75 23.733 13.7762 23.733 13.8084H25.233ZM25.233 22.1182V13.8084H23.733V22.1182H25.233ZM23.6746 23.6766C24.5353 23.6766 25.233 22.9789 25.233 22.1182H23.733C23.733 22.1504 23.7069 22.1766 23.6746 22.1766V23.6766ZM21.3407 23.6766H23.6746V22.1766H21.3407V23.6766ZM19.7823 22.1182C19.7823 22.9789 20.48 23.6766 21.3407 23.6766V22.1766C21.3084 22.1766 21.2823 22.1504 21.2823 22.1182H19.7823ZM19.7823 13.8084V22.1182H21.2823V13.8084H19.7823ZM21.3407 12.25C20.48 12.25 19.7823 12.9477 19.7823 13.8084H21.2823C21.2823 13.7762 21.3084 13.75 21.3407 13.75V12.25Z" fill="white" mask="url(#path-11-inside-3)"/>
<path fill-rule="evenodd" clip-rule="evenodd" d="M16.5 9C16.7761 9 17 9.29019 17 9.64815V13.3519C17 13.7098 16.7761 14 16.5 14C16.2239 14 16 13.7098 16 13.3519V9.64815C16 9.29019 16.2239 9 16.5 9Z" fill="white"/>
<path fill-rule="evenodd" clip-rule="evenodd" d="M19 11.5C19 11.7761 18.7098 12 18.3519 12H14.6481C14.2902 12 14 11.7761 14 11.5C14 11.2239 14.2902 11 14.6481 11H18.3519C18.7098 11 19 11.2239 19 11.5Z" fill="white"/>
</svg>
