<svg width="3384" height="2954" viewBox="0 0 3384 2954" fill="none" xmlns="http://www.w3.org/2000/svg">
<g id="Frame 2">
<rect width="3384" height="2954" fill="white"/>
<path id="Polygon (Stroke)" fill-rule="evenodd" clip-rule="evenodd" d="M1475.57 1246.14L1587.14 1053L1475.57 859.856H1252.43L1140.86 1053L1252.43 1246.14H1475.57ZM1599.14 1059.93C1601.62 1055.64 1601.62 1050.36 1599.14 1046.07L1487.57 852.928C1485.1 848.641 1480.52 846 1475.57 846H1252.43C1247.48 846 1242.9 848.641 1240.43 852.928L1128.86 1046.07C1126.38 1050.36 1126.38 1055.64 1128.86 1059.93L1240.43 1253.07C1242.9 1257.36 1247.48 1260 1252.43 1260H1475.57C1480.52 1260 1485.1 1257.36 1487.57 1253.07L1599.14 1059.93Z" fill="#DDECF4"/>
<path id="Polygon (Stroke)_2" fill-rule="evenodd" clip-rule="evenodd" d="M2222.57 1246.14L2334.14 1053L2222.57 859.856H1999.43L1887.86 1053L1999.43 1246.14H2222.57ZM2346.14 1059.93C2348.62 1055.64 2348.62 1050.36 2346.14 1046.07L2234.57 852.928C2232.1 848.641 2227.52 846 2222.57 846H1999.43C1994.48 846 1989.9 848.641 1987.43 852.928L1875.86 1046.07C1873.38 1050.36 1873.38 1055.64 1875.86 1059.93L1987.43 1253.07C1989.9 1257.36 1994.48 1260 1999.43 1260H2222.57C2227.52 1260 2232.1 1257.36 2234.57 1253.07L2346.14 1059.93Z" fill="#DDECF4"/>
<path id="Polygon (Stroke)_3" fill-rule="evenodd" clip-rule="evenodd" d="M2222.57 1676.14L2334.14 1483L2222.57 1289.86H1999.43L1887.86 1483L1999.43 1676.14H2222.57ZM2346.14 1489.93C2348.62 1485.64 2348.62 1480.36 2346.14 1476.07L2234.57 1282.93C2232.1 1278.64 2227.52 1276 2222.57 1276H1999.43C1994.48 1276 1989.9 1278.64 1987.43 1282.93L1875.86 1476.07C1873.38 1480.36 1873.38 1485.64 1875.86 1489.93L1987.43 1683.07C1989.9 1687.36 1994.48 1690 1999.43 1690H2222.57C2227.52 1690 2232.1 1687.36 2234.57 1683.07L2346.14 1489.93Z" fill="#DDECF4"/>
<path id="Polygon (Stroke)_4" fill-rule="evenodd" clip-rule="evenodd" d="M1850.57 1033.14L1962.14 840L1850.57 646.856H1627.43L1515.86 840L1627.43 1033.14H1850.57ZM1974.14 846.928C1976.62 842.641 1976.62 837.359 1974.14 833.072L1862.57 639.928C1860.1 635.641 1855.52 633 1850.57 633H1627.43C1622.48 633 1617.9 635.641 1615.43 639.928L1503.86 833.072C1501.38 837.359 1501.38 842.641 1503.86 846.928L1615.43 1040.07C1617.9 1044.36 1622.48 1047 1627.43 1047H1850.57C1855.52 1047 1860.1 1044.36 1862.57 1040.07L1974.14 846.928Z" fill="#DDECF4"/>
<path id="Polygon (Stroke)_5" fill-rule="evenodd" clip-rule="evenodd" d="M1850.57 1462.14L1962.14 1269L1850.57 1075.86H1627.43L1515.86 1269L1627.43 1462.14H1850.57ZM1974.14 1275.93C1976.62 1271.64 1976.62 1266.36 1974.14 1262.07L1862.57 1068.93C1860.1 1064.64 1855.52 1062 1850.57 1062H1627.43C1622.48 1062 1617.9 1064.64 1615.43 1068.93L1503.86 1262.07C1501.38 1266.36 1501.38 1271.64 1503.86 1275.93L1615.43 1469.07C1617.9 1473.36 1622.48 1476 1627.43 1476H1850.57C1855.52 1476 1860.1 1473.36 1862.57 1469.07L1974.14 1275.93Z" fill="#DDECF4"/>
<line id="Line" x1="698" y1="444.5" x2="1604" y2="444.5" stroke="#CBE0ED" stroke-width="11"/>
<g id="non-animatable">
<rect id="Rectangle 2" x="320" y="1176" width="1568" height="808" rx="5" fill="#282157" stroke="#282157" stroke-width="10"/>
<rect id="Rectangle 2_2" x="1618" y="1621" width="1440" height="1006" fill="#DDECF4"/>
<g id="Group 24">
<g id="Group 22">
<rect id="Rectangle 12" x="1618" y="1555" width="1440" height="66" fill="white"/>
<rect id="Rectangle 13" x="1657" y="1576" width="118" height="27" rx="4" fill="#1AB3FF"/>
<rect id="Rectangle 13.3" x="2876" y="1576" width="26" height="27" rx="13" fill="url(#paint0_linear)"/>
<rect id="Rectangle 13.6" x="2667" y="1576" width="26" height="27" rx="13" fill="#CBE0ED"/>
<rect id="Rectangle 13.8" x="2621.5" y="1576.5" width="25" height="26" rx="12.5" stroke="#CBE0ED"/>
<rect id="Rectangle 13.1" x="1785" y="1583" width="85" height="13" rx="4" fill="#CBE0ED"/>
<rect id="Rectangle 13.4" x="2921" y="1584" width="85" height="11" rx="4" fill="#0D3841"/>
<rect id="Rectangle 13.7" x="2706" y="1584" width="85" height="11" rx="4" fill="#0D3841"/>
<rect id="Rectangle 13.5" x="3016" y="1584" width="13" height="11" rx="4" fill="#0D3841"/>
<rect id="Rectangle 13.2" x="2032.5" y="1574.5" width="448" height="30" rx="3.5" stroke="#CBE0ED"/>
</g>
<rect id="Rectangle 12_2" x="1640" y="1636" width="170" height="30" rx="4" fill="#CBE0ED"/>
<rect id="Rectangle 12.1" x="1692" y="1704" width="77" height="8" rx="4" fill="#0D3841"/>
<rect id="Rectangle 12.3" x="1692" y="1750" width="107" height="4" rx="2" fill="#505F79"/>
<rect id="Rectangle 12.34" x="1886" y="1723" width="107" height="4" rx="2" fill="#505F79"/>
<rect id="Rectangle 12.35" x="1886" y="1762" width="107" height="4" rx="2" fill="#505F79"/>
<rect id="Rectangle 12.52" x="1886" y="2228" width="107" height="4" rx="2" fill="#505F79"/>
<rect id="Rectangle 12.53" x="1886" y="2267" width="107" height="4" rx="2" fill="#505F79"/>
<rect id="Rectangle 12.36" x="1886" y="1807" width="94" height="4" rx="2" fill="#505F79"/>
<rect id="Rectangle 12.38" x="1904" y="1844" width="58" height="4" rx="2" fill="#505F79"/>
<rect id="Rectangle 12.39" x="1904" y="1873" width="58" height="4" rx="2" fill="#505F79"/>
<rect id="Rectangle 12.40" x="1904" y="1902" width="58" height="4" rx="2" fill="#505F79"/>
<rect id="Rectangle 12.41" x="1904" y="1931" width="58" height="4" rx="2" fill="#505F79"/>
<rect id="Rectangle 12.42" x="1904" y="1960" width="58" height="4" rx="2" fill="#505F79"/>
<rect id="Rectangle 12.43" x="1904" y="1989" width="58" height="4" rx="2" fill="#505F79"/>
<rect id="Rectangle 12.44" x="1904" y="2018" width="58" height="4" rx="2" fill="#505F79"/>
<rect id="Rectangle 12.45" x="1904" y="2047" width="58" height="4" rx="2" fill="#505F79"/>
<rect id="Rectangle 12.46" x="1904" y="2076" width="58" height="4" rx="2" fill="#505F79"/>
<rect id="Rectangle 12.47" x="1904" y="2105" width="58" height="4" rx="2" fill="#505F79"/>
<rect id="Rectangle 12.37" x="2039" y="1807" width="15" height="4" rx="2" fill="#505F79"/>
<rect id="Rectangle 12.48" x="1886" y="2146" width="94" height="4" rx="2" fill="#505F79"/>
<rect id="Rectangle 12.49" x="2039" y="2146" width="15" height="4" rx="2" fill="#505F79"/>
<rect id="Rectangle 12.50" x="1886" y="2181" width="94" height="4" rx="2" fill="#505F79"/>
<rect id="Rectangle 12.51" x="2039" y="2181" width="15" height="4" rx="2" fill="#505F79"/>
<rect id="Rectangle 12.4" x="1692" y="1783" width="56" height="4" rx="2" fill="#505F79"/>
<rect id="Rectangle 12.5" x="1692" y="1816" width="83" height="4" rx="2" fill="#505F79"/>
<rect id="Rectangle 12.6" x="1692" y="1849" width="44" height="4" rx="2" fill="#505F79"/>
<rect id="Rectangle 12.7" x="1692" y="1882" width="77" height="4" rx="2" fill="#505F79"/>
<rect id="Rectangle 12.8" x="1692" y="1915" width="39" height="4" rx="2" fill="#505F79"/>
<rect id="Rectangle 12.9" x="1692" y="1948" width="44" height="4" rx="2" fill="#505F79"/>
<rect id="Rectangle 12.10" x="1692" y="1981" width="32" height="4" rx="2" fill="#505F79"/>
<rect id="Rectangle 12.11" x="1692" y="2014" width="49" height="4" rx="2" fill="#505F79"/>
<rect id="Rectangle 12.12" x="1692" y="2047" width="73" height="4" rx="2" fill="#505F79"/>
<rect id="Rectangle 12.13" x="1692" y="2080" width="49" height="4" rx="2" fill="#505F79"/>
<rect id="Rectangle 12.14" x="1692" y="2113" width="69" height="4" rx="2" fill="#505F79"/>
<rect id="Rectangle 12.15" x="1692" y="2146" width="141" height="4" rx="2" fill="#505F79"/>
<rect id="Rectangle 12.2" x="1831" y="1704" width="10" height="8" rx="4" fill="#0D3841"/>
<path id="Vector" d="M1644 1701.08V1712.92C1644 1714.75 1644.99 1716.46 1646.61 1717.39L1656.97 1723.31C1658.57 1724.23 1660.57 1724.23 1662.17 1723.31L1672.53 1717.39C1674.14 1716.46 1675.14 1714.77 1675.14 1712.92V1701.08C1675.14 1699.25 1674.15 1697.54 1672.53 1696.61L1662.17 1690.69C1660.57 1689.77 1658.57 1689.77 1656.97 1690.69L1646.61 1696.61C1644.99 1697.54 1644 1699.23 1644 1701.08Z" fill="url(#paint1_linear)"/>
<rect id="Rectangle 12.16" x="1692" y="2205" width="77" height="8" rx="4" fill="#0D3841"/>
<rect id="Rectangle 12.17" width="107" height="4" rx="2" transform="matrix(1 0 0 -1 1692 2486)" fill="#505F79"/>
<rect id="Rectangle 12.18" width="56" height="4" rx="2" transform="matrix(1 0 0 -1 1692 2453)" fill="#505F79"/>
<rect id="Rectangle 12.19" width="83" height="4" rx="2" transform="matrix(1 0 0 -1 1692 2420)" fill="#505F79"/>
<rect id="Rectangle 12.20" width="44" height="4" rx="2" transform="matrix(1 0 0 -1 1692 2387)" fill="#505F79"/>
<rect id="Rectangle 12.21" width="77" height="4" rx="2" transform="matrix(1 0 0 -1 1692 2354)" fill="#505F79"/>
<rect id="Rectangle 12.22" width="39" height="4" rx="2" transform="matrix(1 0 0 -1 1692 2321)" fill="#505F79"/>
<rect id="Rectangle 12.23" width="44" height="4" rx="2" transform="matrix(1 0 0 -1 1692 2288)" fill="#505F79"/>
<rect id="Rectangle 12.24" width="32" height="4" rx="2" transform="matrix(1 0 0 -1 1692 2255)" fill="#505F79"/>
<rect id="Rectangle 12.26" x="1831" y="2205" width="10" height="8" rx="4" fill="#0D3841"/>
<path id="Vector_2" d="M1644 2202.08V2213.92C1644 2215.75 1644.99 2217.46 1646.61 2218.39L1656.97 2224.31C1658.57 2225.23 1660.57 2225.23 1662.17 2224.31L1672.53 2218.39C1674.14 2217.46 1675.14 2215.77 1675.14 2213.92V2202.08C1675.14 2200.25 1674.15 2198.54 1672.53 2197.61L1662.17 2191.69C1660.57 2190.77 1658.57 2190.77 1656.97 2191.69L1646.61 2197.61C1644.99 2198.54 1644 2200.23 1644 2202.08Z" fill="url(#paint2_linear)"/>
<rect id="Rectangle 12.27" x="1692" y="2544" width="77" height="8" rx="4" fill="#0D3841"/>
<rect id="Rectangle 12.28" x="1692" y="2590" width="44" height="4" rx="2" fill="#505F79"/>
<rect id="Rectangle 12.33" x="1831" y="2544" width="10" height="8" rx="4" fill="#0D3841"/>
<path id="Vector_3" d="M1644 2541.08V2552.92C1644 2554.75 1644.99 2556.46 1646.61 2557.39L1656.97 2563.31C1658.57 2564.23 1660.57 2564.23 1662.17 2563.31L1672.53 2557.39C1674.14 2556.46 1675.14 2554.77 1675.14 2552.92V2541.08C1675.14 2539.25 1674.15 2537.54 1672.53 2536.61L1662.17 2530.69C1660.57 2529.77 1658.57 2529.77 1656.97 2530.69L1646.61 2536.61C1644.99 2537.54 1644 2539.23 1644 2541.08Z" fill="url(#paint3_linear)"/>
<rect id="Rectangle 13_2" x="1877" y="1629" width="180" height="46" rx="3" fill="white" stroke="#CBE0ED" stroke-width="2"/>
<rect id="Rectangle 13.1_2" x="2078" y="1629" width="180" height="46" rx="3" fill="white" stroke="#CBE0ED" stroke-width="2"/>
<rect id="Rectangle 13.2_2" x="2279" y="1629" width="180" height="46" rx="3" fill="white" stroke="#CBE0ED" stroke-width="2"/>
<rect id="Rectangle 12.54" x="1900" y="1658" width="107" height="4" rx="2" fill="#505F79"/>
<rect id="Rectangle 12.55" x="1900" y="1643" width="58" height="4" rx="2" fill="#0D3841"/>
<rect id="Rectangle 12.56" x="2097" y="1658" width="107" height="4" rx="2" fill="#505F79"/>
<rect id="Rectangle 12.57" x="2097" y="1643" width="58" height="4" rx="2" fill="#0D3841"/>
<rect id="Rectangle 12.58" x="2294" y="1658" width="107" height="4" rx="2" fill="#505F79"/>
<rect id="Rectangle 12.59" x="2294" y="1643" width="58" height="4" rx="2" fill="#0D3841"/>
<rect id="Rectangle 14" x="2078.5" y="1692.5" width="962" height="910" rx="3.5" fill="white" stroke="#CBE0ED"/>
<rect id="Rectangle 11.5" x="2080" y="2175" width="960" height="43" fill="#EEF6F9"/>
<rect id="Rectangle 11.5_2" x="2080" y="2261" width="960" height="43" fill="#EEF6F9"/>
<rect id="Rectangle 11.18" x="2080" y="2347" width="960" height="43" fill="#EEF6F9"/>
<rect id="Rectangle 11.20" x="2080" y="2433" width="960" height="43" fill="#EEF6F9"/>
<rect id="Rectangle 11.22" x="2080" y="2519" width="960" height="43" fill="#EEF6F9"/>
<rect id="Rectangle 12.61" x="2090" y="2053" width="45" height="4" rx="2" fill="#505F79"/>
<rect id="Rectangle 12.62" x="2257" y="2053" width="45" height="4" rx="2" fill="#505F79"/>
<rect id="Rectangle 12.63" x="2424" y="2053" width="45" height="4" rx="2" fill="#505F79"/>
<rect id="Rectangle 12.64" x="2591" y="2053" width="45" height="4" rx="2" fill="#505F79"/>
<rect id="Rectangle 12.65" x="2758" y="2053" width="45" height="4" rx="2" fill="#505F79"/>
<rect id="Rectangle 12.66" x="2925" y="2053" width="45" height="4" rx="2" fill="#505F79"/>
<rect id="Rectangle 12.60" x="2110" y="1714" width="216" height="8" rx="4" fill="#0D3841"/>
<rect id="Rectangle 12.67" x="2110" y="2112" width="76" height="8" rx="4" fill="#0D3841"/>
</g>
<path id="Polygon 2" d="M474.25 1883.83C475.917 1884.8 475.917 1887.2 474.25 1888.17L418.75 1920.21C417.083 1921.17 415 1919.97 415 1918.04L415 1853.96C415 1852.03 417.083 1850.83 418.75 1851.79L474.25 1883.83Z" stroke="white" stroke-width="11"/>
<g id="Rectangle 2_3">
<mask id="path-95-inside-1" fill="white">
<rect x="1611" y="1545" width="1458" height="1093" rx="4"/>
</mask>
<rect x="1611" y="1545" width="1458" height="1093" rx="4" stroke="#CBE0ED" stroke-width="20" mask="url(#path-95-inside-1)"/>
</g>
</g>
<g id="ToAnimate1">
<path id="Vector_4" d="M2090 1980C2090 1980 2128.14 1964.67 2157.07 1964.67C2186 1964.67 2200.29 1987.67 2224.14 1987.67C2248 1987.67 2263.43 1953 2291.21 1953C2319 1953 2338.79 1898.5 2358.29 1898.5C2377.79 1898.5 2388.71 1940 2425.36 1940C2462 1940 2457.02 1980 2492.43 1980C2527.83 1980 2533.77 1906.5 2559.5 1906.5C2585.23 1906.5 2598.67 1934 2626.57 1934C2654.48 1934 2664.5 1877.5 2693.64 1877.5C2722.79 1877.5 2731.5 1854 2760.71 1854C2789.93 1854 2800.07 1877.5 2827.79 1877.5C2855.5 1877.5 2866.21 1893 2894.86 1893C2923.5 1893 2939.36 1871.5 2961.93 1871.5C2984.5 1871.5 3002.5 1836.5 3029 1836.5" stroke="url(#paint4_linear)" stroke-width="20" stroke-linecap="round" stroke-linejoin="round"/>
</g>
<g id="Scrubber">
<line id="Scrobbler" x1="560.5" y1="1887.5" x2="1599.5" y2="1887.5" stroke="white" stroke-width="9" stroke-linecap="round"/>
</g>
<g id="ToAnimate3">
<line id="Progress" x1="565.5" y1="1887.5" x2="1594.5" y2="1887.5" stroke="#1AB3FF" stroke-width="19" stroke-linecap="round"/>
</g>
<g id="Scrub">
<circle id="Scrub_2" cx="926.477" cy="1886.08" r="21.5529" fill="white" stroke="#1AB3FF" stroke-width="10"/>
</g>
<g id="ToAnimate4">
<path id="GoingUp" d="M1104 1446L1178.81 1317.64C1196.73 1286.9 1229.63 1268 1265.21 1268H1469.93C1482.05 1268 1493.24 1261.56 1499.33 1251.08L1603.23 1072.31C1609.28 1061.9 1609.37 1049.05 1603.47 1038.55L1498.97 852.826C1493.1 842.391 1493.15 829.637 1499.1 819.249L1603.2 637.594C1609.26 627.022 1620.52 620.5 1632.7 620.5H1687C1705.78 620.5 1721 605.278 1721 586.5V444.5" stroke="#1AB3FF" stroke-width="15" stroke-linecap="round"/>
<path id="GoingDown" d="M1721 444.5V587.5C1721 606.278 1736.22 621.5 1755 621.5H1842.53C1854.59 621.5 1865.75 627.892 1871.85 638.297L1978.89 820.757C1985.13 831.401 1985.12 844.592 1978.85 855.223L1872.2 1036.2C1865.91 1046.87 1865.92 1060.12 1872.23 1070.78L1979.13 1251.32C1985.25 1261.66 1996.37 1268 2008.38 1268H2216.95C2229.06 1268 2240.25 1274.43 2246.34 1284.89L2322.46 1415.62C2328.76 1426.44 2332.98 1438.36 2334.88 1450.74L2338 1471" stroke="#006BFF" stroke-width="15" stroke-linecap="round"/>
</g>
<g id="Player">
<g id="Player_2" filter="url(#filter0_d)">
<path id="Vector_5" d="M987 1520.76V1610.24C987 1624.09 994.456 1637.02 1006.71 1644.02L1084.86 1688.75C1096.98 1695.75 1112.02 1695.75 1124.14 1688.75L1202.29 1644.02C1214.41 1637.02 1222 1624.22 1222 1610.24V1520.76C1222 1506.91 1214.54 1493.98 1202.29 1486.98L1124.14 1442.25C1112.02 1435.25 1096.98 1435.25 1084.86 1442.25L1006.71 1486.98C994.456 1493.98 987 1506.78 987 1520.76Z" fill="url(#paint5_linear)"/>
<path id="Vector_6" d="M1085.29 1608.33C1082.72 1608.33 1080.15 1607.66 1077.99 1606.31C1074.62 1604.29 1072.46 1600.79 1072.46 1597.02V1541C1072.46 1537.23 1074.48 1533.87 1077.99 1531.71C1082.18 1529.29 1087.58 1529.15 1091.9 1531.44L1144.71 1559.59C1148.49 1561.61 1150.79 1565.24 1150.79 1569.15C1150.79 1573.05 1148.49 1576.69 1144.71 1578.71L1091.9 1606.85C1089.88 1607.79 1087.58 1608.33 1085.29 1608.33ZM1085.29 1595.68C1085.56 1595.68 1085.69 1595.68 1085.96 1595.54L1135.66 1569.15L1085.83 1542.62C1085.69 1542.48 1085.42 1542.48 1085.15 1542.48V1595.68H1085.29Z" fill="white"/>
</g>
</g>
<g id="Analytics">
<g id="Analytics_2" filter="url(#filter1_d)">
<path id="Vector_7" d="M2221 1521.09V1610.91C2221 1624.82 2228.46 1637.8 2240.71 1644.82L2318.86 1689.73C2330.98 1696.76 2346.02 1696.76 2358.14 1689.73L2436.29 1644.82C2448.41 1637.8 2456 1624.95 2456 1610.91V1521.09C2456 1507.18 2448.54 1494.2 2436.29 1487.18L2358.14 1442.27C2346.02 1435.24 2330.98 1435.24 2318.86 1442.27L2240.71 1487.18C2228.46 1494.2 2221 1507.05 2221 1521.09Z" fill="url(#paint6_linear)"/>
<path id="Vector_8" d="M2290.52 1570.38C2287.52 1570.38 2285.09 1572.86 2285.09 1575.92V1603.61C2285.09 1606.67 2287.52 1609.15 2290.52 1609.15C2293.52 1609.15 2295.94 1606.67 2295.94 1603.61V1575.92C2296.06 1572.86 2293.63 1570.38 2290.52 1570.38ZM2315.1 1548.94C2312.1 1548.94 2309.67 1551.41 2309.67 1554.48V1603.73C2309.67 1606.79 2312.1 1609.26 2315.1 1609.26C2318.1 1609.26 2320.52 1606.79 2320.52 1603.73V1554.48C2320.52 1551.41 2318.1 1548.94 2315.1 1548.94ZM2364.15 1533.51C2361.15 1533.51 2358.72 1535.98 2358.72 1539.04V1603.61C2358.72 1606.67 2361.15 1609.15 2364.15 1609.15C2367.15 1609.15 2369.57 1606.67 2369.57 1603.61V1539.04C2369.57 1535.98 2367.15 1533.51 2364.15 1533.51Z" fill="white"/>
<g id="Vector_9">
<path d="M2334.14 1564.14C2334.14 1561.08 2336.57 1558.6 2339.57 1558.6C2342.57 1558.6 2344.99 1561.08 2344.99 1564.14V1603.73C2344.99 1606.79 2342.57 1609.27 2339.57 1609.27C2336.57 1609.27 2334.14 1606.79 2334.14 1603.73V1564.14Z" fill="white"/>
<path d="M2383.19 1521.37C2383.19 1518.31 2385.62 1515.84 2388.62 1515.84C2391.62 1515.84 2394.04 1518.43 2394.04 1521.49V1603.61C2394.04 1606.67 2391.62 1609.15 2388.62 1609.15C2385.62 1609.15 2383.19 1606.67 2383.19 1603.61V1521.37Z" fill="white"/>
</g>
</g>
</g>
<g id="non-animatable_2">
<g id="___Icon" filter="url(#filter2_d)">
<g id="icon_base_hex_grd">
<path id="Vector_10" d="M1604 399.09V488.91C1604 502.82 1611.48 515.803 1623.76 522.824L1702.13 567.734C1714.28 574.755 1729.36 574.755 1741.51 567.734L1819.88 522.824C1832.03 515.803 1839.64 502.952 1839.64 488.91V399.09C1839.64 385.18 1832.16 372.197 1819.88 365.176L1741.51 320.266C1729.36 313.245 1714.28 313.245 1702.13 320.266L1623.76 365.176C1611.48 372.197 1604 385.047 1604 399.09Z" fill="url(#paint7_linear)"/>
</g>
<g id="analytics-backend">
<g id="Group">
<path id="Vector_11" d="M1664.42 466.413C1660.78 466.413 1657.85 469.405 1657.85 473.108V492.072C1657.85 495.776 1660.78 498.767 1664.42 498.767C1668.06 498.767 1671 495.776 1671 492.072V473.108C1671.14 469.405 1668.2 466.413 1664.42 466.413ZM1694.22 474.35C1690.59 474.35 1687.65 477.341 1687.65 481.045V492.214C1687.65 495.918 1690.59 498.91 1694.22 498.91C1697.86 498.91 1700.8 495.918 1700.8 492.214V481.045C1700.8 477.341 1697.86 474.35 1694.22 474.35ZM1753.69 407.314C1750.05 407.314 1747.11 410.305 1747.11 414.009V492.072C1747.11 495.776 1750.05 498.767 1753.69 498.767C1757.33 498.767 1760.27 495.776 1760.27 492.072V414.009C1760.27 410.305 1757.33 407.314 1753.69 407.314Z" fill="white"/>
<g id="Vector_12">
<path d="M1717.31 473.38C1717.31 469.676 1720.25 466.685 1723.89 466.685C1727.52 466.685 1730.46 469.676 1730.46 473.38V492.218C1730.46 495.922 1727.52 498.914 1723.89 498.914C1720.25 498.914 1717.31 495.922 1717.31 492.218V473.38Z" fill="white"/>
<path d="M1776.78 392.645C1776.78 388.941 1779.71 385.95 1783.35 385.95C1786.99 385.95 1789.93 389.084 1789.93 392.788V492.076C1789.93 495.78 1786.99 498.771 1783.35 498.771C1779.71 498.771 1776.78 495.78 1776.78 492.076V392.645Z" fill="white"/>
</g>
</g>
</g>
</g>
<g id="Regular">
<rect id="Background" x="1802" y="576" width="580" height="96" rx="3" fill="#EEF6F9" stroke="#CBE0ED" stroke-width="6"/>
<g id="Label">
<path id="Impressions Ingest" d="M1874.38 642C1874.38 635.957 1874.38 623.888 1874.38 605.792C1875.41 605.792 1877.47 605.792 1880.55 605.792C1880.55 611.835 1880.55 623.904 1880.55 642C1879.52 642 1877.47 642 1874.38 642ZM1888.97 642C1888.97 637.85 1888.97 629.549 1888.97 617.098C1889.9 617.098 1891.79 617.098 1894.65 617.098C1894.65 617.662 1894.65 618.808 1894.65 620.534C1894.68 620.534 1894.7 620.534 1894.7 620.534C1896.82 618.011 1899.41 616.749 1902.47 616.749C1905.99 616.749 1908.48 618.127 1909.94 620.883C1909.94 620.883 1909.97 620.883 1910.04 620.883C1912.16 618.127 1915.14 616.749 1918.95 616.749C1921.74 616.749 1923.88 617.646 1925.38 619.438C1926.91 621.265 1927.67 623.987 1927.67 627.606C1927.67 630.794 1927.67 635.592 1927.67 642C1926.71 642 1924.8 642 1921.94 642C1921.94 639.842 1921.94 635.525 1921.94 629.051C1921.94 624.303 1920.33 621.929 1917.11 621.929C1915.45 621.929 1914.07 622.609 1912.98 623.971C1911.85 625.332 1911.28 627.208 1911.28 629.599C1911.28 632.354 1911.28 636.488 1911.28 642C1910.35 642 1908.46 642 1905.61 642C1905.61 639.842 1905.61 635.525 1905.61 629.051C1905.61 624.303 1903.95 621.929 1900.63 621.929C1898.87 621.929 1897.44 622.609 1896.34 623.971C1895.21 625.332 1894.65 627.208 1894.65 629.599C1894.65 632.354 1894.65 636.488 1894.65 642C1893.72 642 1891.83 642 1888.97 642ZM1934.74 652.11C1934.74 646.267 1934.74 634.596 1934.74 617.098C1935.67 617.098 1937.56 617.098 1940.42 617.098C1940.42 617.596 1940.42 618.592 1940.42 620.086C1940.45 620.086 1940.49 620.086 1940.52 620.086C1942.44 617.861 1945.07 616.749 1948.39 616.749C1951.87 616.749 1954.75 617.961 1957 620.385C1959.3 622.842 1960.44 625.93 1960.44 629.648C1960.44 633.467 1959.3 636.555 1957 638.912C1954.75 641.236 1951.86 642.398 1948.34 642.398C1945.05 642.398 1942.44 641.253 1940.52 638.962C1940.52 638.962 1940.49 638.979 1940.42 639.012C1940.42 641.17 1940.42 645.536 1940.42 652.11C1939.49 652.11 1937.6 652.11 1934.74 652.11ZM1947.49 637.219C1949.55 637.219 1951.26 636.521 1952.62 635.127C1953.95 633.732 1954.61 631.923 1954.61 629.698C1954.61 627.374 1953.93 625.498 1952.57 624.07C1951.18 622.643 1949.47 621.929 1947.44 621.929C1945.32 621.929 1943.57 622.659 1942.21 624.12C1940.85 625.614 1940.17 627.474 1940.17 629.698C1940.17 631.923 1940.87 633.732 1942.26 635.127C1943.66 636.521 1945.4 637.219 1947.49 637.219ZM1966.42 642C1966.42 637.85 1966.42 629.549 1966.42 617.098C1967.35 617.098 1969.24 617.098 1972.1 617.098C1972.1 617.729 1972.1 618.974 1972.1 620.833C1972.13 620.833 1972.16 620.833 1972.19 620.833C1974.25 618.11 1976.83 616.749 1979.91 616.749C1980.08 616.749 1980.31 616.749 1980.61 616.749C1980.61 617.812 1980.61 619.937 1980.61 623.124C1979.75 623.058 1979.18 623.024 1978.92 623.024C1976.79 623.024 1975.13 623.705 1973.94 625.066C1972.71 626.395 1972.1 628.104 1972.1 630.196C1972.1 632.819 1972.1 636.754 1972.1 642C1971.17 642 1969.27 642 1966.42 642ZM2008.1 629.25C2008.1 629.881 2008.05 630.611 2007.95 631.441C2003.94 631.441 1997.89 631.441 1989.83 631.441C1990.19 633.234 1991.02 634.646 1992.32 635.675C1993.58 636.704 1995.17 637.219 1997.1 637.219C1999.72 637.219 2001.81 636.239 2003.37 634.28C2004.27 635.044 2005.6 636.189 2007.36 637.717C2004.93 640.838 2001.41 642.398 1996.8 642.398C1992.98 642.398 1989.88 641.236 1987.48 638.912C1985.09 636.555 1983.9 633.434 1983.9 629.549C1983.9 625.73 1985.06 622.643 1987.39 620.285C1989.71 617.928 1992.71 616.749 1996.4 616.749C1999.85 616.749 2002.68 617.928 2004.87 620.285C2007.02 622.609 2008.1 625.598 2008.1 629.25ZM1996.35 621.929C1994.76 621.929 1993.38 622.36 1992.22 623.224C1991.09 624.12 1990.32 625.365 1989.93 626.959C1992.68 626.959 1996.83 626.959 2002.38 626.959C2001.98 625.398 2001.28 624.17 2000.28 623.273C1999.26 622.377 1997.94 621.929 1996.35 621.929ZM2021.95 642.398C2018 642.398 2014.66 641.187 2011.94 638.763C2012.57 637.833 2013.52 636.405 2014.78 634.479C2016.77 636.438 2019.16 637.418 2021.95 637.418C2023.05 637.418 2023.91 637.202 2024.54 636.771C2025.14 636.306 2025.44 635.708 2025.44 634.978C2025.44 634.38 2025.09 633.898 2024.39 633.533C2023.69 633.135 2022.41 632.604 2020.56 631.939C2018.1 631.109 2016.22 630.097 2014.93 628.901C2013.6 627.706 2012.94 625.996 2012.94 623.771C2012.94 621.746 2013.77 620.069 2015.43 618.741C2017.09 617.413 2019.18 616.749 2021.7 616.749C2025.02 616.749 2027.96 617.795 2030.52 619.887C2029.85 620.883 2028.89 622.377 2027.63 624.369C2025.77 622.576 2023.69 621.68 2021.4 621.68C2020.74 621.68 2020.12 621.862 2019.56 622.228C2018.99 622.593 2018.71 623.124 2018.71 623.821C2018.71 624.851 2020.02 625.863 2022.65 626.859C2025.87 628.121 2027.89 629.034 2028.72 629.599C2030.42 630.794 2031.26 632.554 2031.26 634.878C2031.26 637.069 2030.47 638.879 2028.87 640.307C2027.31 641.701 2025 642.398 2021.95 642.398ZM2044.86 642.398C2040.91 642.398 2037.57 641.187 2034.85 638.763C2035.48 637.833 2036.43 636.405 2037.69 634.479C2039.68 636.438 2042.07 637.418 2044.86 637.418C2045.96 637.418 2046.82 637.202 2047.45 636.771C2048.05 636.306 2048.35 635.708 2048.35 634.978C2048.35 634.38 2048 633.898 2047.3 633.533C2046.6 633.135 2045.32 632.604 2043.47 631.939C2041.01 631.109 2039.13 630.097 2037.84 628.901C2036.51 627.706 2035.85 625.996 2035.85 623.771C2035.85 621.746 2036.68 620.069 2038.34 618.741C2040 617.413 2042.09 616.749 2044.61 616.749C2047.93 616.749 2050.87 617.795 2053.43 619.887C2052.76 620.883 2051.8 622.377 2050.54 624.369C2048.68 622.576 2046.6 621.68 2044.31 621.68C2043.65 621.68 2043.03 621.862 2042.47 622.228C2041.9 622.593 2041.62 623.124 2041.62 623.821C2041.62 624.851 2042.93 625.863 2045.56 626.859C2048.78 628.121 2050.8 629.034 2051.63 629.599C2053.33 630.794 2054.17 632.554 2054.17 634.878C2054.17 637.069 2053.38 638.879 2051.78 640.307C2050.22 641.701 2047.91 642.398 2044.86 642.398ZM2063.04 613.462C2062.91 613.462 2062.79 613.445 2062.69 613.412C2061.79 613.346 2061.01 612.98 2060.35 612.316C2059.59 611.586 2059.2 610.689 2059.2 609.627C2059.2 608.598 2059.59 607.718 2060.35 606.987C2061.11 606.224 2062.01 605.842 2063.04 605.842C2064.1 605.842 2065.01 606.224 2065.78 606.987C2066.54 607.718 2066.92 608.598 2066.92 609.627C2066.92 610.689 2066.54 611.586 2065.78 612.316C2065.01 613.08 2064.1 613.462 2063.04 613.462ZM2060.2 642C2060.2 637.85 2060.2 629.549 2060.2 617.098C2060.66 617.098 2061.61 617.098 2063.04 617.098C2063.54 617.098 2064.5 617.098 2065.93 617.098C2065.93 621.248 2065.93 629.549 2065.93 642C2064.96 642 2063.06 642 2060.2 642ZM2085.3 642.398C2081.42 642.398 2078.28 641.187 2075.89 638.763C2073.46 636.372 2072.25 633.317 2072.25 629.599C2072.25 625.913 2073.46 622.842 2075.89 620.385C2078.28 617.961 2081.42 616.749 2085.3 616.749C2089.15 616.749 2092.29 617.944 2094.71 620.335C2097.14 622.692 2098.35 625.78 2098.35 629.599C2098.35 633.384 2097.14 636.472 2094.71 638.862C2092.29 641.22 2089.15 642.398 2085.3 642.398ZM2085.3 637.219C2087.36 637.219 2089.09 636.505 2090.48 635.077C2091.88 633.649 2092.57 631.823 2092.57 629.599C2092.57 627.341 2091.88 625.498 2090.48 624.07C2089.12 622.643 2087.39 621.929 2085.3 621.929C2083.18 621.929 2081.43 622.659 2080.07 624.12C2078.74 625.581 2078.08 627.407 2078.08 629.599C2078.08 631.757 2078.76 633.566 2080.12 635.027C2081.48 636.488 2083.21 637.219 2085.3 637.219ZM2104.33 642C2104.33 637.85 2104.33 629.549 2104.33 617.098C2105.26 617.098 2107.15 617.098 2110 617.098C2110 617.662 2110 618.808 2110 620.534C2110.04 620.534 2110.07 620.534 2110.1 620.534C2112.23 618.011 2115 616.749 2118.42 616.749C2121.28 616.749 2123.52 617.612 2125.15 619.339C2126.77 621.099 2127.59 623.771 2127.59 627.357C2127.59 630.611 2127.59 635.492 2127.59 642C2126.62 642 2124.71 642 2121.86 642C2121.86 639.809 2121.86 635.426 2121.86 628.852C2121.86 626.328 2121.41 624.535 2120.51 623.473C2119.62 622.443 2118.26 621.929 2116.43 621.929C2114.47 621.929 2112.91 622.576 2111.75 623.871C2110.59 625.199 2110 627.075 2110 629.499C2110 632.288 2110 636.455 2110 642C2109.07 642 2107.18 642 2104.33 642ZM2142.48 642.398C2138.53 642.398 2135.19 641.187 2132.47 638.763C2133.1 637.833 2134.04 636.405 2135.31 634.479C2137.3 636.438 2139.69 637.418 2142.48 637.418C2143.57 637.418 2144.44 637.202 2145.07 636.771C2145.66 636.306 2145.96 635.708 2145.96 634.978C2145.96 634.38 2145.61 633.898 2144.92 633.533C2144.22 633.135 2142.94 632.604 2141.08 631.939C2138.63 631.109 2136.75 630.097 2135.45 628.901C2134.13 627.706 2133.46 625.996 2133.46 623.771C2133.46 621.746 2134.29 620.069 2135.95 618.741C2137.61 617.413 2139.7 616.749 2142.23 616.749C2145.55 616.749 2148.49 617.795 2151.04 619.887C2150.38 620.883 2149.42 622.377 2148.15 624.369C2146.3 622.576 2144.22 621.68 2141.93 621.68C2141.27 621.68 2140.65 621.862 2140.09 622.228C2139.52 622.593 2139.24 623.124 2139.24 623.821C2139.24 624.851 2140.55 625.863 2143.17 626.859C2146.4 628.121 2148.42 629.034 2149.25 629.599C2150.94 630.794 2151.79 632.554 2151.79 634.878C2151.79 637.069 2150.99 638.879 2149.4 640.307C2147.84 641.701 2145.53 642.398 2142.48 642.398ZM2172.01 642C2172.01 635.957 2172.01 623.888 2172.01 605.792C2173.04 605.792 2175.1 605.792 2178.19 605.792C2178.19 611.835 2178.19 623.904 2178.19 642C2177.16 642 2175.1 642 2172.01 642ZM2186.6 642C2186.6 637.85 2186.6 629.549 2186.6 617.098C2187.53 617.098 2189.43 617.098 2192.28 617.098C2192.28 617.662 2192.28 618.808 2192.28 620.534C2192.31 620.534 2192.35 620.534 2192.38 620.534C2194.51 618.011 2197.28 616.749 2200.7 616.749C2203.55 616.749 2205.8 617.612 2207.42 619.339C2209.05 621.099 2209.86 623.771 2209.86 627.357C2209.86 630.611 2209.86 635.492 2209.86 642C2208.9 642 2206.99 642 2204.14 642C2204.14 639.809 2204.14 635.426 2204.14 628.852C2204.14 626.328 2203.69 624.535 2202.79 623.473C2201.89 622.443 2200.53 621.929 2198.71 621.929C2196.75 621.929 2195.19 622.576 2194.02 623.871C2192.86 625.199 2192.28 627.075 2192.28 629.499C2192.28 632.288 2192.28 636.455 2192.28 642C2191.35 642 2189.46 642 2186.6 642ZM2227.94 652.459C2224.06 652.459 2220.67 651.596 2217.78 649.869C2218.08 648.74 2218.55 647.063 2219.18 644.839C2220.77 645.702 2222.16 646.333 2223.36 646.731C2224.59 647.097 2226.02 647.279 2227.64 647.279C2229.97 647.279 2231.78 646.698 2233.07 645.536C2234.37 644.374 2235.01 642.93 2235.01 641.203C2235.01 640.605 2235.01 639.726 2235.01 638.563C2235.01 638.563 2234.98 638.563 2234.91 638.563C2232.92 640.589 2230.42 641.602 2227.39 641.602C2223.87 641.602 2220.97 640.456 2218.68 638.165C2216.39 635.907 2215.24 632.952 2215.24 629.3C2215.24 625.647 2216.35 622.643 2218.58 620.285C2220.8 617.928 2223.64 616.749 2227.1 616.749C2230.15 616.749 2232.72 617.762 2234.81 619.787C2234.85 619.787 2234.88 619.787 2234.91 619.787C2234.91 619.322 2234.91 618.426 2234.91 617.098C2235.88 617.098 2237.79 617.098 2240.64 617.098C2240.64 620.816 2240.64 628.271 2240.64 639.46C2240.64 643.478 2239.63 646.648 2237.6 648.973C2235.55 651.297 2232.32 652.459 2227.94 652.459ZM2228.14 636.322C2230.23 636.322 2231.93 635.642 2233.22 634.28C2234.52 632.886 2235.16 631.143 2235.16 629.051C2235.16 626.959 2234.5 625.266 2233.17 623.971C2231.81 622.643 2230.13 621.979 2228.14 621.979C2226.05 621.979 2224.34 622.643 2223.01 623.971C2221.72 625.299 2221.07 627.025 2221.07 629.15C2221.07 631.309 2221.73 633.052 2223.06 634.38C2224.42 635.675 2226.12 636.322 2228.14 636.322ZM2270.52 629.25C2270.52 629.881 2270.48 630.611 2270.38 631.441C2266.36 631.441 2260.31 631.441 2252.25 631.441C2252.61 633.234 2253.44 634.646 2254.74 635.675C2256 636.704 2257.59 637.219 2259.52 637.219C2262.14 637.219 2264.23 636.239 2265.79 634.28C2266.69 635.044 2268.02 636.189 2269.78 637.717C2267.35 640.838 2263.83 642.398 2259.22 642.398C2255.4 642.398 2252.3 641.236 2249.91 638.912C2247.52 636.555 2246.32 633.434 2246.32 629.549C2246.32 625.73 2247.48 622.643 2249.81 620.285C2252.13 617.928 2255.14 616.749 2258.82 616.749C2262.27 616.749 2265.1 617.928 2267.29 620.285C2269.45 622.609 2270.52 625.598 2270.52 629.25ZM2258.77 621.929C2257.18 621.929 2255.8 622.36 2254.64 623.224C2253.51 624.12 2252.74 625.365 2252.35 626.959C2255.1 626.959 2259.25 626.959 2264.8 626.959C2264.4 625.398 2263.7 624.17 2262.71 623.273C2261.68 622.377 2260.36 621.929 2258.77 621.929ZM2284.37 642.398C2280.42 642.398 2277.08 641.187 2274.36 638.763C2274.99 637.833 2275.94 636.405 2277.2 634.479C2279.19 636.438 2281.58 637.418 2284.37 637.418C2285.47 637.418 2286.33 637.202 2286.96 636.771C2287.56 636.306 2287.86 635.708 2287.86 634.978C2287.86 634.38 2287.51 633.898 2286.81 633.533C2286.11 633.135 2284.84 632.604 2282.98 631.939C2280.52 631.109 2278.64 630.097 2277.35 628.901C2276.02 627.706 2275.36 625.996 2275.36 623.771C2275.36 621.746 2276.19 620.069 2277.85 618.741C2279.51 617.413 2281.6 616.749 2284.12 616.749C2287.44 616.749 2290.38 617.795 2292.94 619.887C2292.27 620.883 2291.31 622.377 2290.05 624.369C2288.19 622.576 2286.11 621.68 2283.82 621.68C2283.16 621.68 2282.54 621.862 2281.98 622.228C2281.42 622.593 2281.13 623.124 2281.13 623.821C2281.13 624.851 2282.44 625.863 2285.07 626.859C2288.29 628.121 2290.31 629.034 2291.14 629.599C2292.84 630.794 2293.68 632.554 2293.68 634.878C2293.68 637.069 2292.89 638.879 2291.29 640.307C2289.73 641.701 2287.43 642.398 2284.37 642.398ZM2306.73 642.398C2304.57 642.398 2302.88 641.701 2301.65 640.307C2300.42 638.912 2299.81 636.854 2299.81 634.131C2299.81 631.441 2299.81 627.391 2299.81 621.979C2299.31 621.979 2298.3 621.979 2296.77 621.979C2296.77 621.148 2296.77 619.521 2296.77 617.098C2297.27 617.098 2298.28 617.098 2299.81 617.098C2299.81 615.736 2299.81 612.98 2299.81 608.83C2300.77 608.73 2302.68 608.531 2305.54 608.232C2305.54 609.727 2305.54 612.682 2305.54 617.098C2306.73 617.098 2309.16 617.098 2312.81 617.098C2312.81 617.928 2312.81 619.555 2312.81 621.979C2311.58 621.979 2309.16 621.979 2305.54 621.979C2305.54 623.904 2305.54 627.772 2305.54 633.583C2305.54 634.845 2305.72 635.741 2306.09 636.272C2306.45 636.804 2307.06 637.069 2307.93 637.069C2309.06 637.069 2310.29 636.704 2311.61 635.974C2311.91 637.069 2312.39 638.713 2313.06 640.904C2311.27 641.9 2309.16 642.398 2306.73 642.398Z" fill="#0D3841"/>
</g>
</g>
<g id="Regular_2">
<rect id="Background_2" x="873" y="396" width="492" height="96" rx="3" fill="#EEF6F9" stroke="#CBE0ED" stroke-width="6"/>
<g id="Label_2">
<path id="Activate Bundle" d="M929.493 462C931.718 455.957 936.217 443.888 942.99 425.792C943.986 425.792 945.995 425.792 949.017 425.792C951.274 431.835 955.79 443.904 962.563 462C961.501 462 959.359 462 956.139 462C955.674 460.705 954.761 458.099 953.399 454.181C950.942 454.181 946.012 454.181 938.607 454.181C938.143 455.476 937.246 458.082 935.918 462C934.822 462 932.681 462 929.493 462ZM940.5 448.901C942.326 448.901 946.012 448.901 951.557 448.901C950.627 446.278 948.784 441.032 946.028 433.163C946.028 433.163 945.995 433.163 945.929 433.163C945.032 435.786 943.223 441.032 940.5 448.901ZM978.7 462.398C974.981 462.398 971.943 461.22 969.586 458.862C967.195 456.472 966 453.384 966 449.599C966 445.78 967.212 442.692 969.636 440.335C972.026 437.944 975.114 436.749 978.899 436.749C980.925 436.749 982.867 437.147 984.727 437.944C986.586 438.741 988.13 439.887 989.358 441.381C988.495 442.145 987.2 443.273 985.474 444.768C983.847 442.875 981.755 441.929 979.198 441.929C977.007 441.929 975.23 442.626 973.869 444.021C972.508 445.448 971.827 447.291 971.827 449.549C971.827 451.84 972.508 453.683 973.869 455.077C975.23 456.505 977.007 457.219 979.198 457.219C981.921 457.219 984.013 456.239 985.474 454.28C986.37 455.077 987.682 456.239 989.408 457.767C987.018 460.854 983.448 462.398 978.7 462.398ZM1002.01 462.398C999.851 462.398 998.157 461.701 996.929 460.307C995.7 458.912 995.086 456.854 995.086 454.131C995.086 451.441 995.086 447.391 995.086 441.979C994.588 441.979 993.575 441.979 992.048 441.979C992.048 441.148 992.048 439.521 992.048 437.098C992.546 437.098 993.559 437.098 995.086 437.098C995.086 435.736 995.086 432.98 995.086 428.83C996.049 428.73 997.958 428.531 1000.81 428.232C1000.81 429.727 1000.81 432.682 1000.81 437.098C1002.01 437.098 1004.43 437.098 1008.08 437.098C1008.08 437.928 1008.08 439.555 1008.08 441.979C1006.86 441.979 1004.43 441.979 1000.81 441.979C1000.81 443.904 1000.81 447.772 1000.81 453.583C1000.81 454.845 1001 455.741 1001.36 456.272C1001.73 456.804 1002.34 457.069 1003.2 457.069C1004.33 457.069 1005.56 456.704 1006.89 455.974C1007.19 457.069 1007.67 458.713 1008.33 460.904C1006.54 461.9 1004.43 462.398 1002.01 462.398ZM1016.45 433.462C1016.32 433.462 1016.2 433.445 1016.1 433.412C1015.21 433.346 1014.43 432.98 1013.76 432.316C1013 431.586 1012.62 430.689 1012.62 429.627C1012.62 428.598 1013 427.718 1013.76 426.987C1014.53 426.224 1015.42 425.842 1016.45 425.842C1017.51 425.842 1018.43 426.224 1019.19 426.987C1019.96 427.718 1020.34 428.598 1020.34 429.627C1020.34 430.689 1019.96 431.586 1019.19 432.316C1018.43 433.08 1017.51 433.462 1016.45 433.462ZM1013.61 462C1013.61 457.85 1013.61 449.549 1013.61 437.098C1014.08 437.098 1015.02 437.098 1016.45 437.098C1016.95 437.098 1017.91 437.098 1019.34 437.098C1019.34 441.248 1019.34 449.549 1019.34 462C1018.38 462 1016.47 462 1013.61 462ZM1034.28 462C1032.66 457.85 1029.37 449.549 1024.42 437.098C1025.45 437.098 1027.49 437.098 1030.55 437.098C1031.64 440.053 1033.8 445.979 1037.02 454.878C1037.05 454.878 1037.07 454.878 1037.07 454.878C1038.17 451.923 1040.33 445.996 1043.55 437.098C1044.58 437.098 1046.6 437.098 1049.62 437.098C1048 441.248 1044.71 449.549 1039.76 462C1038.83 462 1037 462 1034.28 462ZM1064.91 462.398C1061.39 462.398 1058.5 461.236 1056.25 458.912C1053.99 456.555 1052.86 453.467 1052.86 449.648C1052.86 445.93 1054 442.842 1056.3 440.385C1058.55 437.961 1061.41 436.749 1064.86 436.749C1068.18 436.749 1070.74 437.895 1072.53 440.186C1072.57 440.152 1072.6 440.136 1072.63 440.136C1072.63 439.638 1072.63 438.625 1072.63 437.098C1073.59 437.098 1075.5 437.098 1078.36 437.098C1078.36 441.248 1078.36 449.549 1078.36 462C1077.46 462 1075.64 462 1072.88 462C1072.88 461.469 1072.88 460.373 1072.88 458.713C1072.88 458.713 1072.85 458.696 1072.78 458.663C1070.96 461.153 1068.33 462.398 1064.91 462.398ZM1065.81 457.219C1067.8 457.219 1069.48 456.521 1070.84 455.127C1072.2 453.732 1072.88 451.923 1072.88 449.698C1072.88 447.507 1072.22 445.664 1070.89 444.17C1069.56 442.676 1067.87 441.929 1065.81 441.929C1063.78 441.929 1062.09 442.643 1060.73 444.07C1059.37 445.498 1058.69 447.374 1058.69 449.698C1058.69 451.923 1059.35 453.732 1060.68 455.127C1062.01 456.521 1063.72 457.219 1065.81 457.219ZM1092.95 462.398C1090.79 462.398 1089.1 461.701 1087.87 460.307C1086.64 458.912 1086.03 456.854 1086.03 454.131C1086.03 451.441 1086.03 447.391 1086.03 441.979C1085.53 441.979 1084.52 441.979 1082.99 441.979C1082.99 441.148 1082.99 439.521 1082.99 437.098C1083.49 437.098 1084.5 437.098 1086.03 437.098C1086.03 435.736 1086.03 432.98 1086.03 428.83C1086.99 428.73 1088.9 428.531 1091.76 428.232C1091.76 429.727 1091.76 432.682 1091.76 437.098C1092.95 437.098 1095.38 437.098 1099.03 437.098C1099.03 437.928 1099.03 439.555 1099.03 441.979C1097.8 441.979 1095.38 441.979 1091.76 441.979C1091.76 443.904 1091.76 447.772 1091.76 453.583C1091.76 454.845 1091.94 455.741 1092.3 456.272C1092.67 456.804 1093.28 457.069 1094.15 457.069C1095.28 457.069 1096.5 456.704 1097.83 455.974C1098.13 457.069 1098.61 458.713 1099.28 460.904C1097.48 461.9 1095.38 462.398 1092.95 462.398ZM1126.92 449.25C1126.92 449.881 1126.87 450.611 1126.77 451.441C1122.75 451.441 1116.71 451.441 1108.64 451.441C1109.01 453.234 1109.84 454.646 1111.13 455.675C1112.39 456.704 1113.99 457.219 1115.91 457.219C1118.54 457.219 1120.63 456.239 1122.19 454.28C1123.08 455.044 1124.41 456.189 1126.17 457.717C1123.75 460.838 1120.23 462.398 1115.61 462.398C1111.79 462.398 1108.69 461.236 1106.3 458.912C1103.91 456.555 1102.71 453.434 1102.71 449.549C1102.71 445.73 1103.88 442.643 1106.2 440.285C1108.52 437.928 1111.53 436.749 1115.21 436.749C1118.67 436.749 1121.49 437.928 1123.68 440.285C1125.84 442.609 1126.92 445.598 1126.92 449.25ZM1115.17 441.929C1113.57 441.929 1112.19 442.36 1111.03 443.224C1109.9 444.12 1109.14 445.365 1108.74 446.959C1111.5 446.959 1115.65 446.959 1121.19 446.959C1120.79 445.398 1120.1 444.17 1119.1 443.273C1118.07 442.377 1116.76 441.929 1115.17 441.929ZM1147.19 462C1147.19 455.957 1147.19 443.888 1147.19 425.792C1149.28 425.792 1153.48 425.792 1159.79 425.792C1163.58 425.792 1166.48 426.539 1168.51 428.033C1170.56 429.494 1171.59 431.686 1171.59 434.607C1171.59 436.4 1171.13 438.044 1170.2 439.538C1169.3 440.999 1167.97 442.095 1166.21 442.825C1166.21 442.825 1166.21 442.842 1166.21 442.875C1168.41 443.406 1170.15 444.469 1171.44 446.062C1172.74 447.656 1173.39 449.648 1173.39 452.039C1173.39 455.027 1172.37 457.435 1170.35 459.261C1168.36 461.087 1165.42 462 1161.53 462C1158.35 462 1153.56 462 1147.19 462ZM1153.37 440.783C1154.36 440.783 1156.35 440.783 1159.34 440.783C1163.33 440.783 1165.32 439.189 1165.32 436.002C1165.32 434.541 1164.79 433.379 1163.72 432.516C1162.7 431.686 1161.17 431.271 1159.14 431.271C1157.85 431.271 1155.92 431.287 1153.37 431.32C1153.37 432.881 1153.37 436.035 1153.37 440.783ZM1153.37 456.472C1154.59 456.472 1157.05 456.472 1160.74 456.472C1162.73 456.472 1164.27 456.04 1165.37 455.177C1166.43 454.313 1166.96 453.052 1166.96 451.392C1166.96 449.765 1166.36 448.47 1165.17 447.507C1163.94 446.577 1162.15 446.112 1159.79 446.112C1158.36 446.112 1156.22 446.112 1153.37 446.112C1153.37 447.839 1153.37 451.292 1153.37 456.472ZM1188.38 462.398C1182.17 462.398 1179.06 459.012 1179.06 452.238C1179.06 448.885 1179.06 443.838 1179.06 437.098C1179.99 437.098 1181.89 437.098 1184.74 437.098C1184.74 439.389 1184.74 443.938 1184.74 450.744C1184.74 453.135 1185.12 454.812 1185.89 455.774C1186.65 456.737 1187.93 457.219 1189.72 457.219C1191.48 457.219 1192.98 456.488 1194.21 455.027C1195.47 453.6 1196.1 451.607 1196.1 449.051C1196.1 446.395 1196.1 442.41 1196.1 437.098C1197.03 437.098 1198.92 437.098 1201.78 437.098C1201.78 441.248 1201.78 449.549 1201.78 462C1200.85 462 1198.95 462 1196.1 462C1196.1 461.469 1196.1 460.439 1196.1 458.912C1196.06 458.879 1196.01 458.862 1195.95 458.862C1193.99 461.22 1191.47 462.398 1188.38 462.398ZM1209.05 462C1209.05 457.85 1209.05 449.549 1209.05 437.098C1209.98 437.098 1211.87 437.098 1214.72 437.098C1214.72 437.662 1214.72 438.808 1214.72 440.534C1214.76 440.534 1214.79 440.534 1214.82 440.534C1216.95 438.011 1219.72 436.749 1223.14 436.749C1226 436.749 1228.24 437.612 1229.87 439.339C1231.49 441.099 1232.31 443.771 1232.31 447.357C1232.31 450.611 1232.31 455.492 1232.31 462C1231.34 462 1229.43 462 1226.58 462C1226.58 459.809 1226.58 455.426 1226.58 448.852C1226.58 446.328 1226.13 444.535 1225.23 443.473C1224.34 442.443 1222.98 441.929 1221.15 441.929C1219.19 441.929 1217.63 442.576 1216.47 443.871C1215.31 445.199 1214.72 447.075 1214.72 449.499C1214.72 452.288 1214.72 456.455 1214.72 462C1213.79 462 1211.9 462 1209.05 462ZM1249.84 462.398C1246.32 462.398 1243.43 461.236 1241.17 458.912C1238.88 456.555 1237.73 453.467 1237.73 449.648C1237.73 445.93 1238.88 442.842 1241.17 440.385C1243.46 437.961 1246.33 436.749 1249.79 436.749C1253.17 436.749 1255.81 437.895 1257.71 440.186C1257.74 440.186 1257.76 440.186 1257.76 440.186C1257.76 437.562 1257.76 432.316 1257.76 424.447C1258.72 424.447 1260.61 424.447 1263.43 424.447C1263.43 430.723 1263.43 443.24 1263.43 462C1262.54 462 1260.73 462 1258 462C1258 461.436 1258 460.307 1258 458.613C1257.97 458.613 1257.96 458.613 1257.96 458.613C1256 461.137 1253.29 462.398 1249.84 462.398ZM1250.68 457.219C1252.78 457.219 1254.52 456.521 1255.91 455.127C1257.31 453.732 1258 451.923 1258 449.698C1258 447.474 1257.32 445.614 1255.96 444.12C1254.6 442.659 1252.86 441.929 1250.73 441.929C1248.71 441.929 1247 442.643 1245.6 444.07C1244.24 445.498 1243.56 447.374 1243.56 449.698C1243.56 451.923 1244.23 453.732 1245.55 455.127C1246.92 456.521 1248.62 457.219 1250.68 457.219ZM1271.25 462C1271.25 455.758 1271.25 443.24 1271.25 424.447C1272.22 424.447 1274.12 424.447 1276.98 424.447C1276.98 430.723 1276.98 443.24 1276.98 462C1276.02 462 1274.11 462 1271.25 462ZM1307.51 449.25C1307.51 449.881 1307.46 450.611 1307.36 451.441C1303.34 451.441 1297.3 451.441 1289.23 451.441C1289.6 453.234 1290.43 454.646 1291.72 455.675C1292.98 456.704 1294.58 457.219 1296.5 457.219C1299.13 457.219 1301.22 456.239 1302.78 454.28C1303.68 455.044 1305 456.189 1306.76 457.717C1304.34 460.838 1300.82 462.398 1296.21 462.398C1292.39 462.398 1289.28 461.236 1286.89 458.912C1284.5 456.555 1283.31 453.434 1283.31 449.549C1283.31 445.73 1284.47 442.643 1286.79 440.285C1289.12 437.928 1292.12 436.749 1295.81 436.749C1299.26 436.749 1302.08 437.928 1304.27 440.285C1306.43 442.609 1307.51 445.598 1307.51 449.25ZM1295.76 441.929C1294.16 441.929 1292.79 442.36 1291.62 443.224C1290.49 444.12 1289.73 445.365 1289.33 446.959C1292.09 446.959 1296.24 446.959 1301.78 446.959C1301.38 445.398 1300.69 444.17 1299.69 443.273C1298.66 442.377 1297.35 441.929 1295.76 441.929Z" fill="#0D3841"/>
</g>
</g>
<g id="Regular_3">
<rect id="Background_3" x="2486" y="1398" width="580" height="96" rx="3" fill="#EEF6F9" stroke="#CBE0ED" stroke-width="6"/>
<g id="Label_3">
<path id="Analytics Dashboard" d="M2526.98 1464C2529.2 1457.96 2533.7 1445.89 2540.47 1427.79C2541.47 1427.79 2543.48 1427.79 2546.5 1427.79C2548.76 1433.83 2553.27 1445.9 2560.05 1464C2558.98 1464 2556.84 1464 2553.62 1464C2553.16 1462.71 2552.24 1460.1 2550.88 1456.18C2548.43 1456.18 2543.5 1456.18 2536.09 1456.18C2535.63 1457.48 2534.73 1460.08 2533.4 1464C2532.31 1464 2530.16 1464 2526.98 1464ZM2537.98 1450.9C2539.81 1450.9 2543.5 1450.9 2549.04 1450.9C2548.11 1448.28 2546.27 1443.03 2543.51 1435.16C2543.51 1435.16 2543.48 1435.16 2543.41 1435.16C2542.52 1437.79 2540.71 1443.03 2537.98 1450.9ZM2564.98 1464C2564.98 1459.85 2564.98 1451.55 2564.98 1439.1C2565.91 1439.1 2567.8 1439.1 2570.66 1439.1C2570.66 1439.66 2570.66 1440.81 2570.66 1442.53C2570.69 1442.53 2570.72 1442.53 2570.75 1442.53C2572.88 1440.01 2575.65 1438.75 2579.07 1438.75C2581.93 1438.75 2584.17 1439.61 2585.8 1441.34C2587.42 1443.1 2588.24 1445.77 2588.24 1449.36C2588.24 1452.61 2588.24 1457.49 2588.24 1464C2587.27 1464 2585.36 1464 2582.51 1464C2582.51 1461.81 2582.51 1457.43 2582.51 1450.85C2582.51 1448.33 2582.06 1446.54 2581.16 1445.47C2580.27 1444.44 2578.91 1443.93 2577.08 1443.93C2575.12 1443.93 2573.56 1444.58 2572.4 1445.87C2571.24 1447.2 2570.66 1449.08 2570.66 1451.5C2570.66 1454.29 2570.66 1458.46 2570.66 1464C2569.73 1464 2567.83 1464 2564.98 1464ZM2605.72 1464.4C2602.2 1464.4 2599.31 1463.24 2597.05 1460.91C2594.79 1458.55 2593.67 1455.47 2593.67 1451.65C2593.67 1447.93 2594.81 1444.84 2597.1 1442.38C2599.36 1439.96 2602.21 1438.75 2605.67 1438.75C2608.99 1438.75 2611.54 1439.89 2613.34 1442.19C2613.37 1442.15 2613.4 1442.14 2613.44 1442.14C2613.44 1441.64 2613.44 1440.62 2613.44 1439.1C2614.4 1439.1 2616.31 1439.1 2619.17 1439.1C2619.17 1443.25 2619.17 1451.55 2619.17 1464C2618.27 1464 2616.44 1464 2613.69 1464C2613.69 1463.47 2613.69 1462.37 2613.69 1460.71C2613.69 1460.71 2613.65 1460.7 2613.59 1460.66C2611.76 1463.15 2609.14 1464.4 2605.72 1464.4ZM2606.61 1459.22C2608.61 1459.22 2610.28 1458.52 2611.64 1457.13C2613.01 1455.73 2613.69 1453.92 2613.69 1451.7C2613.69 1449.51 2613.02 1447.66 2611.69 1446.17C2610.37 1444.68 2608.67 1443.93 2606.61 1443.93C2604.59 1443.93 2602.9 1444.64 2601.53 1446.07C2600.17 1447.5 2599.49 1449.37 2599.49 1451.7C2599.49 1453.92 2600.16 1455.73 2601.48 1457.13C2602.81 1458.52 2604.52 1459.22 2606.61 1459.22ZM2626.74 1464C2626.74 1457.76 2626.74 1445.24 2626.74 1426.45C2627.7 1426.45 2629.61 1426.45 2632.46 1426.45C2632.46 1432.72 2632.46 1445.24 2632.46 1464C2631.5 1464 2629.59 1464 2626.74 1464ZM2643.22 1474.11C2643.98 1472.18 2645.48 1468.35 2647.7 1462.61C2646.01 1458.69 2642.61 1450.85 2637.49 1439.1C2638.52 1439.1 2640.56 1439.1 2643.62 1439.1C2644.78 1441.89 2647.07 1447.45 2650.49 1455.78C2650.49 1455.78 2650.53 1455.78 2650.59 1455.78C2651.65 1452.99 2653.78 1447.43 2656.97 1439.1C2657.93 1439.1 2659.87 1439.1 2662.79 1439.1C2660.54 1444.94 2655.99 1456.61 2649.15 1474.11C2648.15 1474.11 2646.18 1474.11 2643.22 1474.11ZM2674.95 1464.4C2672.79 1464.4 2671.09 1463.7 2669.87 1462.31C2668.64 1460.91 2668.02 1458.85 2668.02 1456.13C2668.02 1453.44 2668.02 1449.39 2668.02 1443.98C2667.53 1443.98 2666.51 1443.98 2664.99 1443.98C2664.99 1443.15 2664.99 1441.52 2664.99 1439.1C2665.48 1439.1 2666.5 1439.1 2668.02 1439.1C2668.02 1437.74 2668.02 1434.98 2668.02 1430.83C2668.99 1430.73 2670.9 1430.53 2673.75 1430.23C2673.75 1431.73 2673.75 1434.68 2673.75 1439.1C2674.95 1439.1 2677.37 1439.1 2681.02 1439.1C2681.02 1439.93 2681.02 1441.55 2681.02 1443.98C2679.79 1443.98 2677.37 1443.98 2673.75 1443.98C2673.75 1445.9 2673.75 1449.77 2673.75 1455.58C2673.75 1456.84 2673.93 1457.74 2674.3 1458.27C2674.66 1458.8 2675.28 1459.07 2676.14 1459.07C2677.27 1459.07 2678.5 1458.7 2679.83 1457.97C2680.13 1459.07 2680.61 1460.71 2681.27 1462.9C2679.48 1463.9 2677.37 1464.4 2674.95 1464.4ZM2689.39 1435.46C2689.26 1435.46 2689.14 1435.45 2689.04 1435.41C2688.14 1435.35 2687.36 1434.98 2686.7 1434.32C2685.94 1433.59 2685.55 1432.69 2685.55 1431.63C2685.55 1430.6 2685.94 1429.72 2686.7 1428.99C2687.46 1428.22 2688.36 1427.84 2689.39 1427.84C2690.45 1427.84 2691.37 1428.22 2692.13 1428.99C2692.89 1429.72 2693.27 1430.6 2693.27 1431.63C2693.27 1432.69 2692.89 1433.59 2692.13 1434.32C2691.37 1435.08 2690.45 1435.46 2689.39 1435.46ZM2686.55 1464C2686.55 1459.85 2686.55 1451.55 2686.55 1439.1C2687.02 1439.1 2687.96 1439.1 2689.39 1439.1C2689.89 1439.1 2690.85 1439.1 2692.28 1439.1C2692.28 1443.25 2692.28 1451.55 2692.28 1464C2691.32 1464 2689.41 1464 2686.55 1464ZM2711.3 1464.4C2707.58 1464.4 2704.55 1463.22 2702.19 1460.86C2699.8 1458.47 2698.6 1455.38 2698.6 1451.6C2698.6 1447.78 2699.82 1444.69 2702.24 1442.33C2704.63 1439.94 2707.72 1438.75 2711.5 1438.75C2713.53 1438.75 2715.47 1439.15 2717.33 1439.94C2719.19 1440.74 2720.73 1441.89 2721.96 1443.38C2721.1 1444.14 2719.8 1445.27 2718.08 1446.77C2716.45 1444.88 2714.36 1443.93 2711.8 1443.93C2709.61 1443.93 2707.83 1444.63 2706.47 1446.02C2705.11 1447.45 2704.43 1449.29 2704.43 1451.55C2704.43 1453.84 2705.11 1455.68 2706.47 1457.08C2707.83 1458.5 2709.61 1459.22 2711.8 1459.22C2714.52 1459.22 2716.62 1458.24 2718.08 1456.28C2718.97 1457.08 2720.29 1458.24 2722.01 1459.77C2719.62 1462.85 2716.05 1464.4 2711.3 1464.4ZM2735.16 1464.4C2731.21 1464.4 2727.87 1463.19 2725.15 1460.76C2725.78 1459.83 2726.73 1458.41 2727.99 1456.48C2729.98 1458.44 2732.37 1459.42 2735.16 1459.42C2736.26 1459.42 2737.12 1459.2 2737.75 1458.77C2738.35 1458.31 2738.65 1457.71 2738.65 1456.98C2738.65 1456.38 2738.3 1455.9 2737.6 1455.53C2736.9 1455.13 2735.62 1454.6 2733.77 1453.94C2731.31 1453.11 2729.43 1452.1 2728.14 1450.9C2726.81 1449.71 2726.15 1448 2726.15 1445.77C2726.15 1443.75 2726.98 1442.07 2728.64 1440.74C2730.3 1439.41 2732.39 1438.75 2734.91 1438.75C2738.23 1438.75 2741.17 1439.79 2743.73 1441.89C2743.06 1442.88 2742.1 1444.38 2740.84 1446.37C2738.98 1444.58 2736.9 1443.68 2734.61 1443.68C2733.95 1443.68 2733.33 1443.86 2732.77 1444.23C2732.21 1444.59 2731.92 1445.12 2731.92 1445.82C2731.92 1446.85 2733.23 1447.86 2735.86 1448.86C2739.08 1450.12 2741.1 1451.03 2741.93 1451.6C2743.63 1452.79 2744.47 1454.55 2744.47 1456.88C2744.47 1459.07 2743.68 1460.88 2742.08 1462.31C2740.52 1463.7 2738.21 1464.4 2735.16 1464.4ZM2764.5 1464C2764.5 1457.96 2764.5 1445.89 2764.5 1427.79C2766.42 1427.79 2770.27 1427.79 2776.05 1427.79C2781.73 1427.79 2786.28 1429.47 2789.7 1432.82C2793.12 1436.18 2794.83 1440.56 2794.83 1445.97C2794.83 1451.35 2793.17 1455.7 2789.85 1459.02C2786.49 1462.34 2781.94 1464 2776.2 1464C2773.58 1464 2769.67 1464 2764.5 1464ZM2770.67 1458.47C2771.53 1458.47 2773.24 1458.47 2775.8 1458.47C2779.59 1458.47 2782.64 1457.29 2784.96 1454.94C2787.29 1452.58 2788.45 1449.59 2788.45 1445.97C2788.45 1442.29 2787.31 1439.25 2785.01 1436.86C2782.72 1434.5 2779.77 1433.32 2776.15 1433.32C2774.92 1433.32 2773.09 1433.32 2770.67 1433.32C2770.67 1437.5 2770.67 1445.89 2770.67 1458.47ZM2811.86 1464.4C2808.34 1464.4 2805.45 1463.24 2803.19 1460.91C2800.94 1458.55 2799.81 1455.47 2799.81 1451.65C2799.81 1447.93 2800.95 1444.84 2803.24 1442.38C2805.5 1439.96 2808.36 1438.75 2811.81 1438.75C2815.13 1438.75 2817.69 1439.89 2819.48 1442.19C2819.51 1442.15 2819.55 1442.14 2819.58 1442.14C2819.58 1441.64 2819.58 1440.62 2819.58 1439.1C2820.54 1439.1 2822.45 1439.1 2825.31 1439.1C2825.31 1443.25 2825.31 1451.55 2825.31 1464C2824.41 1464 2822.58 1464 2819.83 1464C2819.83 1463.47 2819.83 1462.37 2819.83 1460.71C2819.83 1460.71 2819.79 1460.7 2819.73 1460.66C2817.9 1463.15 2815.28 1464.4 2811.86 1464.4ZM2812.76 1459.22C2814.75 1459.22 2816.42 1458.52 2817.79 1457.13C2819.15 1455.73 2819.83 1453.92 2819.83 1451.7C2819.83 1449.51 2819.16 1447.66 2817.84 1446.17C2816.51 1444.68 2814.81 1443.93 2812.76 1443.93C2810.73 1443.93 2809.04 1444.64 2807.68 1446.07C2806.31 1447.5 2805.63 1449.37 2805.63 1451.7C2805.63 1453.92 2806.3 1455.73 2807.63 1457.13C2808.95 1458.52 2810.66 1459.22 2812.76 1459.22ZM2840.45 1464.4C2836.5 1464.4 2833.16 1463.19 2830.44 1460.76C2831.07 1459.83 2832.01 1458.41 2833.28 1456.48C2835.27 1458.44 2837.66 1459.42 2840.45 1459.42C2841.54 1459.42 2842.41 1459.2 2843.04 1458.77C2843.63 1458.31 2843.93 1457.71 2843.93 1456.98C2843.93 1456.38 2843.58 1455.9 2842.89 1455.53C2842.19 1455.13 2840.91 1454.6 2839.05 1453.94C2836.6 1453.11 2834.72 1452.1 2833.42 1450.9C2832.1 1449.71 2831.43 1448 2831.43 1445.77C2831.43 1443.75 2832.26 1442.07 2833.92 1440.74C2835.58 1439.41 2837.67 1438.75 2840.2 1438.75C2843.52 1438.75 2846.46 1439.79 2849.01 1441.89C2848.35 1442.88 2847.39 1444.38 2846.12 1446.37C2844.27 1444.58 2842.19 1443.68 2839.9 1443.68C2839.24 1443.68 2838.62 1443.86 2838.06 1444.23C2837.49 1444.59 2837.21 1445.12 2837.21 1445.82C2837.21 1446.85 2838.52 1447.86 2841.14 1448.86C2844.37 1450.12 2846.39 1451.03 2847.22 1451.6C2848.91 1452.79 2849.76 1454.55 2849.76 1456.88C2849.76 1459.07 2848.96 1460.88 2847.37 1462.31C2845.81 1463.7 2843.5 1464.4 2840.45 1464.4ZM2855.44 1464C2855.44 1457.76 2855.44 1445.24 2855.44 1426.45C2856.37 1426.45 2858.26 1426.45 2861.12 1426.45C2861.12 1429.07 2861.12 1434.33 2861.12 1442.24C2861.15 1442.24 2861.17 1442.24 2861.17 1442.24C2863.29 1439.91 2866.11 1438.75 2869.63 1438.75C2872.52 1438.75 2874.8 1439.58 2876.46 1441.24C2878.12 1442.9 2878.95 1445.52 2878.95 1449.11C2878.95 1452.43 2878.95 1457.39 2878.95 1464C2877.98 1464 2876.07 1464 2873.22 1464C2873.22 1461.78 2873.22 1457.31 2873.22 1450.6C2873.22 1448.21 2872.77 1446.5 2871.87 1445.47C2870.98 1444.44 2869.63 1443.93 2867.84 1443.93C2865.71 1443.93 2864.07 1444.56 2862.91 1445.82C2861.71 1447.08 2861.12 1448.93 2861.12 1451.35C2861.12 1454.17 2861.12 1458.39 2861.12 1464C2860.19 1464 2858.29 1464 2855.44 1464ZM2899.52 1464.4C2896.06 1464.4 2893.37 1463.15 2891.45 1460.66C2891.45 1460.66 2891.41 1460.66 2891.35 1460.66C2891.35 1461.23 2891.35 1462.34 2891.35 1464C2890.45 1464 2888.64 1464 2885.92 1464C2885.92 1457.76 2885.92 1445.24 2885.92 1426.45C2886.85 1426.45 2888.74 1426.45 2891.6 1426.45C2891.6 1429.07 2891.6 1434.28 2891.6 1442.09C2891.63 1442.09 2891.65 1442.09 2891.65 1442.09C2893.61 1439.86 2896.25 1438.75 2899.57 1438.75C2903.05 1438.75 2905.92 1439.96 2908.18 1442.38C2910.47 1444.84 2911.62 1447.93 2911.62 1451.65C2911.62 1455.47 2910.47 1458.55 2908.18 1460.91C2905.92 1463.24 2903.04 1464.4 2899.52 1464.4ZM2898.67 1459.22C2900.73 1459.22 2902.44 1458.52 2903.8 1457.13C2905.13 1455.73 2905.79 1453.92 2905.79 1451.7C2905.79 1449.37 2905.11 1447.5 2903.75 1446.07C2902.35 1444.64 2900.64 1443.93 2898.62 1443.93C2896.49 1443.93 2894.75 1444.66 2893.39 1446.12C2892.03 1447.61 2891.35 1449.47 2891.35 1451.7C2891.35 1453.92 2892.04 1455.73 2893.44 1457.13C2894.83 1458.52 2896.58 1459.22 2898.67 1459.22ZM2929.15 1464.4C2925.26 1464.4 2922.13 1463.19 2919.74 1460.76C2917.31 1458.37 2916.1 1455.32 2916.1 1451.6C2916.1 1447.91 2917.31 1444.84 2919.74 1442.38C2922.13 1439.96 2925.26 1438.75 2929.15 1438.75C2933 1438.75 2936.14 1439.94 2938.56 1442.33C2940.99 1444.69 2942.2 1447.78 2942.2 1451.6C2942.2 1455.38 2940.99 1458.47 2938.56 1460.86C2936.14 1463.22 2933 1464.4 2929.15 1464.4ZM2929.15 1459.22C2931.21 1459.22 2932.93 1458.5 2934.33 1457.08C2935.72 1455.65 2936.42 1453.82 2936.42 1451.6C2936.42 1449.34 2935.72 1447.5 2934.33 1446.07C2932.97 1444.64 2931.24 1443.93 2929.15 1443.93C2927.02 1443.93 2925.28 1444.66 2923.92 1446.12C2922.59 1447.58 2921.93 1449.41 2921.93 1451.6C2921.93 1453.76 2922.61 1455.57 2923.97 1457.03C2925.33 1458.49 2927.06 1459.22 2929.15 1459.22ZM2958.68 1464.4C2955.16 1464.4 2952.28 1463.24 2950.02 1460.91C2947.76 1458.55 2946.63 1455.47 2946.63 1451.65C2946.63 1447.93 2947.78 1444.84 2950.07 1442.38C2952.33 1439.96 2955.18 1438.75 2958.63 1438.75C2961.95 1438.75 2964.51 1439.89 2966.3 1442.19C2966.34 1442.15 2966.37 1442.14 2966.4 1442.14C2966.4 1441.64 2966.4 1440.62 2966.4 1439.1C2967.37 1439.1 2969.28 1439.1 2972.13 1439.1C2972.13 1443.25 2972.13 1451.55 2972.13 1464C2971.23 1464 2969.41 1464 2966.65 1464C2966.65 1463.47 2966.65 1462.37 2966.65 1460.71C2966.65 1460.71 2966.62 1460.7 2966.55 1460.66C2964.73 1463.15 2962.1 1464.4 2958.68 1464.4ZM2959.58 1459.22C2961.57 1459.22 2963.25 1458.52 2964.61 1457.13C2965.97 1455.73 2966.65 1453.92 2966.65 1451.7C2966.65 1449.51 2965.99 1447.66 2964.66 1446.17C2963.33 1444.68 2961.64 1443.93 2959.58 1443.93C2957.55 1443.93 2955.86 1444.64 2954.5 1446.07C2953.14 1447.5 2952.46 1449.37 2952.46 1451.7C2952.46 1453.92 2953.12 1455.73 2954.45 1457.13C2955.78 1458.52 2957.49 1459.22 2959.58 1459.22ZM2979.35 1464C2979.35 1459.85 2979.35 1451.55 2979.35 1439.1C2980.28 1439.1 2982.17 1439.1 2985.03 1439.1C2985.03 1439.73 2985.03 1440.97 2985.03 1442.83C2985.06 1442.83 2985.1 1442.83 2985.13 1442.83C2987.19 1440.11 2989.76 1438.75 2992.85 1438.75C2993.02 1438.75 2993.25 1438.75 2993.55 1438.75C2993.55 1439.81 2993.55 1441.94 2993.55 1445.12C2992.68 1445.06 2992.12 1445.02 2991.85 1445.02C2989.73 1445.02 2988.07 1445.71 2986.87 1447.07C2985.64 1448.39 2985.03 1450.1 2985.03 1452.2C2985.03 1454.82 2985.03 1458.75 2985.03 1464C2984.1 1464 2982.21 1464 2979.35 1464ZM3008.89 1464.4C3005.37 1464.4 3002.48 1463.24 3000.22 1460.91C2997.93 1458.55 2996.78 1455.47 2996.78 1451.65C2996.78 1447.93 2997.93 1444.84 3000.22 1442.38C3002.51 1439.96 3005.38 1438.75 3008.84 1438.75C3012.22 1438.75 3014.86 1439.89 3016.76 1442.19C3016.79 1442.19 3016.81 1442.19 3016.81 1442.19C3016.81 1439.56 3016.81 1434.32 3016.81 1426.45C3017.77 1426.45 3019.66 1426.45 3022.48 1426.45C3022.48 1432.72 3022.48 1445.24 3022.48 1464C3021.59 1464 3019.78 1464 3017.05 1464C3017.05 1463.44 3017.05 1462.31 3017.05 1460.61C3017.02 1460.61 3017 1460.61 3017 1460.61C3015.05 1463.14 3012.34 1464.4 3008.89 1464.4ZM3009.73 1459.22C3011.83 1459.22 3013.57 1458.52 3014.96 1457.13C3016.36 1455.73 3017.05 1453.92 3017.05 1451.7C3017.05 1449.47 3016.37 1447.61 3015.01 1446.12C3013.65 1444.66 3011.91 1443.93 3009.78 1443.93C3007.76 1443.93 3006.05 1444.64 3004.65 1446.07C3003.29 1447.5 3002.61 1449.37 3002.61 1451.7C3002.61 1453.92 3003.28 1455.73 3004.6 1457.13C3005.96 1458.52 3007.67 1459.22 3009.73 1459.22Z" fill="#0D3841"/>
</g>
</g>
<g id="Regular_4">
<rect id="Background_4" x="386" y="1233" width="285" height="96" rx="3" fill="#EEF6F9" stroke="#CBE0ED" stroke-width="6"/>
<g id="Label_4">
<path id="Player_3" d="M456.906 1299C456.906 1292.96 456.906 1280.89 456.906 1262.79C459.097 1262.79 463.463 1262.79 470.004 1262.79C474.155 1262.79 477.259 1263.85 479.318 1265.98C481.376 1268.1 482.406 1270.94 482.406 1274.5C482.406 1278.31 481.227 1281.2 478.87 1283.16C476.545 1285.12 473.358 1286.1 469.307 1286.1C467.913 1286.1 465.837 1286.1 463.082 1286.1C463.082 1288.26 463.082 1292.56 463.082 1299C462.052 1299 459.994 1299 456.906 1299ZM463.082 1280.52C464.011 1280.52 465.887 1280.52 468.709 1280.52C471.133 1280.52 472.959 1279.97 474.188 1278.88C475.417 1277.78 476.031 1276.29 476.031 1274.4C476.031 1272.47 475.433 1270.98 474.238 1269.91C473.042 1268.85 471.349 1268.32 469.158 1268.32C467.796 1268.32 465.771 1268.32 463.082 1268.32C463.082 1270.35 463.082 1274.41 463.082 1280.52ZM488.631 1299C488.631 1292.76 488.631 1280.24 488.631 1261.45C489.594 1261.45 491.503 1261.45 494.359 1261.45C494.359 1267.72 494.359 1280.24 494.359 1299C493.396 1299 491.487 1299 488.631 1299ZM512.687 1299.4C509.167 1299.4 506.279 1298.24 504.021 1295.91C501.763 1293.55 500.634 1290.47 500.634 1286.65C500.634 1282.93 501.78 1279.84 504.071 1277.38C506.329 1274.96 509.184 1273.75 512.637 1273.75C515.958 1273.75 518.514 1274.89 520.307 1277.19C520.34 1277.15 520.374 1277.14 520.407 1277.14C520.407 1276.64 520.407 1275.62 520.407 1274.1C521.37 1274.1 523.279 1274.1 526.134 1274.1C526.134 1278.25 526.134 1286.55 526.134 1299C525.238 1299 523.412 1299 520.656 1299C520.656 1298.47 520.656 1297.37 520.656 1295.71C520.656 1295.71 520.623 1295.7 520.556 1295.66C518.73 1298.15 516.107 1299.4 512.687 1299.4ZM513.583 1294.22C515.576 1294.22 517.252 1293.52 518.614 1292.13C519.975 1290.73 520.656 1288.92 520.656 1286.7C520.656 1284.51 519.992 1282.66 518.664 1281.17C517.335 1279.68 515.642 1278.93 513.583 1278.93C511.558 1278.93 509.865 1279.64 508.503 1281.07C507.142 1282.5 506.461 1284.37 506.461 1286.7C506.461 1288.92 507.125 1290.73 508.454 1292.13C509.782 1293.52 511.492 1294.22 513.583 1294.22ZM536.294 1309.11C537.058 1307.18 538.552 1303.35 540.777 1297.61C539.083 1293.69 535.68 1285.85 530.567 1274.1C531.596 1274.1 533.638 1274.1 536.693 1274.1C537.855 1276.89 540.146 1282.45 543.566 1290.78C543.566 1290.78 543.599 1290.78 543.666 1290.78C544.728 1287.99 546.853 1282.43 550.041 1274.1C551.003 1274.1 552.946 1274.1 555.868 1274.1C553.61 1279.94 549.061 1291.61 542.221 1309.11C541.225 1309.11 539.25 1309.11 536.294 1309.11ZM583.36 1286.25C583.36 1286.88 583.31 1287.61 583.21 1288.44C579.193 1288.44 573.15 1288.44 565.082 1288.44C565.447 1290.23 566.277 1291.65 567.572 1292.67C568.833 1293.7 570.427 1294.22 572.353 1294.22C574.976 1294.22 577.068 1293.24 578.628 1291.28C579.525 1292.04 580.853 1293.19 582.613 1294.72C580.189 1297.84 576.669 1299.4 572.054 1299.4C568.236 1299.4 565.131 1298.24 562.741 1295.91C560.35 1293.55 559.155 1290.43 559.155 1286.55C559.155 1282.73 560.317 1279.64 562.641 1277.29C564.965 1274.93 567.97 1273.75 571.656 1273.75C575.109 1273.75 577.931 1274.93 580.123 1277.29C582.281 1279.61 583.36 1282.6 583.36 1286.25ZM571.606 1278.93C570.012 1278.93 568.634 1279.36 567.472 1280.22C566.343 1281.12 565.58 1282.37 565.181 1283.96C567.937 1283.96 572.087 1283.96 577.632 1283.96C577.234 1282.4 576.537 1281.17 575.541 1280.27C574.511 1279.38 573.2 1278.93 571.606 1278.93ZM589.287 1299C589.287 1294.85 589.287 1286.55 589.287 1274.1C590.216 1274.1 592.109 1274.1 594.964 1274.1C594.964 1274.73 594.964 1275.97 594.964 1277.83C594.998 1277.83 595.031 1277.83 595.064 1277.83C597.123 1275.11 599.696 1273.75 602.784 1273.75C602.95 1273.75 603.182 1273.75 603.481 1273.75C603.481 1274.81 603.481 1276.94 603.481 1280.12C602.618 1280.06 602.053 1280.02 601.788 1280.02C599.663 1280.02 598.002 1280.71 596.807 1282.07C595.579 1283.39 594.964 1285.1 594.964 1287.2C594.964 1289.82 594.964 1293.75 594.964 1299C594.035 1299 592.142 1299 589.287 1299Z" fill="#0D3841"/>
</g>
</g>
<path id="Ellipse" d="M1744.84 582.92C1744.84 595.579 1734.58 605.841 1721.92 605.841C1709.26 605.841 1699 595.579 1699 582.92C1699 570.262 1709.26 560 1721.92 560C1734.58 560 1744.84 570.262 1744.84 582.92Z" fill="#1FAAE2"/>
<path id="Ellipse_2" d="M1739.11 582.92C1739.11 592.414 1731.41 600.111 1721.92 600.111C1712.42 600.111 1704.73 592.414 1704.73 582.92C1704.73 573.426 1712.42 565.73 1721.92 565.73C1731.41 565.73 1739.11 573.426 1739.11 582.92Z" fill="white"/>
<path id="Ellipse_3" d="M1126.84 1436.92C1126.84 1449.58 1116.58 1459.84 1103.92 1459.84C1091.26 1459.84 1081 1449.58 1081 1436.92C1081 1424.26 1091.26 1414 1103.92 1414C1116.58 1414 1126.84 1424.26 1126.84 1436.92Z" fill="#1FAAE2"/>
<path id="Ellipse_4" d="M1121.11 1436.92C1121.11 1446.41 1113.41 1454.11 1103.92 1454.11C1094.42 1454.11 1086.73 1446.41 1086.73 1436.92C1086.73 1427.43 1094.42 1419.73 1103.92 1419.73C1113.41 1419.73 1121.11 1427.43 1121.11 1436.92Z" fill="white"/>
<path id="Ellipse_5" d="M2360.84 1436.92C2360.84 1449.58 2350.58 1459.84 2337.92 1459.84C2325.26 1459.84 2315 1449.58 2315 1436.92C2315 1424.26 2325.26 1414 2337.92 1414C2350.58 1414 2360.84 1424.26 2360.84 1436.92Z" fill="#1FAAE2"/>
<path id="Ellipse_6" d="M2355.11 1436.92C2355.11 1446.41 2347.41 1454.11 2337.92 1454.11C2328.42 1454.11 2320.73 1446.41 2320.73 1436.92C2320.73 1427.43 2328.42 1419.73 2337.92 1419.73C2347.41 1419.73 2355.11 1427.43 2355.11 1436.92Z" fill="white"/>
<g id="Developer">
<path id="Rectangle 2.1" d="M315 331.292C315 322.294 323.796 315 334.646 315H645.708C656.558 315 665.354 322.294 665.354 331.292V632.69C665.354 641.688 656.558 648.982 645.708 648.982H334.646C323.796 648.982 315 641.688 315 632.69V331.292Z" fill="white"/>
<path id="Rectangle 2 (Stroke).1" fill-rule="evenodd" clip-rule="evenodd" d="M681.243 321.607H336.757C328.746 321.607 322.252 327.523 322.252 334.821V685.179C322.252 692.477 328.746 698.393 336.757 698.393H681.243C689.254 698.393 695.748 692.477 695.748 685.179V334.821C695.748 327.523 689.254 321.607 681.243 321.607ZM336.757 315C324.741 315 315 323.874 315 334.821V685.179C315 696.126 324.741 705 336.757 705H681.243C693.259 705 703 696.126 703 685.179V334.821C703 323.874 693.259 315 681.243 315H336.757Z" fill="#CBE0ED"/>
<g id="teacher-with-laptop">
<g id="Group_2">
<g id="Group_3">
<g id="Group 10">
<path id="Rectangle" d="M384.273 439.659C384.273 427 394.535 416.738 407.194 416.738H425.819C438.478 416.738 448.739 427 448.739 439.659V475.91C448.739 488.569 438.478 498.83 425.819 498.83H407.194C394.535 498.83 384.273 488.569 384.273 475.91V439.659Z" fill="#1FAAE2"/>
<path id="Ellipse_7" d="M436.459 395.455C436.459 405.53 428.212 413.698 418.04 413.698C407.867 413.698 399.621 405.53 399.621 395.455C399.621 385.38 407.867 377.212 418.04 377.212C428.212 377.212 436.459 385.38 436.459 395.455Z" fill="#1FAAE2"/>
</g>
<path id="Vector_13" d="M451.97 495.949C455.297 495.949 457.986 493.261 457.986 489.958V448.868C457.986 445.551 455.292 442.866 451.97 442.866H381.041C377.717 442.866 375.026 445.557 375.026 448.868V489.958C375.026 493.261 377.719 495.949 381.041 495.949H370.459C370.459 500.662 372.503 501.871 375.009 501.871H458C460.506 501.871 462.549 500.657 462.549 495.949H451.97Z" fill="#1FAAE2"/>
<path id="Vector (Stroke)" fill-rule="evenodd" clip-rule="evenodd" d="M367.389 492.91H372.453C372.13 491.984 371.955 490.991 371.955 489.959V448.87C371.955 443.902 375.998 439.826 381.041 439.826H451.969C457.007 439.826 461.055 443.893 461.055 448.87V489.959C461.055 490.991 460.88 491.984 460.558 492.91H465.619V495.95C465.619 498.659 465.043 501.036 463.478 502.729C461.853 504.488 459.723 504.912 457.999 504.912H375.008C373.288 504.912 371.157 504.491 369.53 502.732C367.964 501.039 367.389 498.661 367.389 495.95V492.91ZM451.969 495.95C454.217 495.95 456.173 494.724 457.206 492.91C457.702 492.038 457.985 491.031 457.985 489.959V448.87C457.985 445.552 455.291 442.867 451.969 442.867H381.041C377.716 442.867 375.025 445.558 375.025 448.87V489.959C375.025 491.031 375.309 492.038 375.806 492.91C376.84 494.724 378.797 495.95 381.041 495.95H370.458C370.458 497.194 370.601 498.193 370.856 498.991C371.569 501.217 373.163 501.872 375.008 501.872H457.999C459.844 501.872 461.437 501.214 462.151 498.991C462.406 498.193 462.549 497.194 462.549 495.95H451.969Z" fill="white"/>
</g>
</g>
</g>
<path id="Ellipse_8" d="M725.841 443.92C725.841 456.579 715.579 466.841 702.92 466.841C690.262 466.841 680 456.579 680 443.92C680 431.262 690.262 421 702.92 421C715.579 421 725.841 431.262 725.841 443.92Z" fill="#1FAAE2"/>
<path id="Ellipse_9" d="M720.109 443.92C720.109 453.414 712.413 461.111 702.919 461.111C693.425 461.111 685.729 453.414 685.729 443.92C685.729 434.426 693.425 426.73 702.919 426.73C712.413 426.73 720.109 434.426 720.109 443.92Z" fill="white"/>
</g>
<path id="Dashboard User" d="M371.433 586C371.433 579.957 371.433 567.888 371.433 549.792C373.358 549.792 377.21 549.792 382.987 549.792C388.665 549.792 393.214 551.469 396.634 554.822C400.054 558.176 401.764 562.559 401.764 567.971C401.764 573.35 400.104 577.699 396.783 581.02C393.43 584.34 388.881 586 383.137 586C380.514 586 376.612 586 371.433 586ZM377.608 580.472C378.472 580.472 380.182 580.472 382.738 580.472C386.523 580.472 389.578 579.293 391.902 576.936C394.227 574.578 395.389 571.59 395.389 567.971C395.389 564.285 394.243 561.247 391.952 558.856C389.661 556.499 386.706 555.32 383.087 555.32C381.858 555.32 380.032 555.32 377.608 555.32C377.608 559.504 377.608 567.888 377.608 580.472ZM418.797 586.398C415.277 586.398 412.389 585.236 410.131 582.912C407.873 580.555 406.744 577.467 406.744 573.648C406.744 569.93 407.89 566.842 410.181 564.385C412.438 561.961 415.294 560.749 418.747 560.749C422.067 560.749 424.624 561.895 426.417 564.186C426.45 564.152 426.483 564.136 426.517 564.136C426.517 563.638 426.517 562.625 426.517 561.098C427.479 561.098 429.389 561.098 432.244 561.098C432.244 565.248 432.244 573.549 432.244 586C431.348 586 429.521 586 426.766 586C426.766 585.469 426.766 584.373 426.766 582.713C426.766 582.713 426.732 582.696 426.666 582.663C424.84 585.153 422.217 586.398 418.797 586.398ZM419.693 581.219C421.686 581.219 423.362 580.521 424.724 579.127C426.085 577.732 426.766 575.923 426.766 573.698C426.766 571.507 426.102 569.664 424.773 568.17C423.445 566.676 421.752 565.929 419.693 565.929C417.668 565.929 415.975 566.643 414.613 568.07C413.252 569.498 412.571 571.374 412.571 573.698C412.571 575.923 413.235 577.732 414.563 579.127C415.892 580.521 417.602 581.219 419.693 581.219ZM447.385 586.398C443.434 586.398 440.097 585.187 437.374 582.763C438.005 581.833 438.951 580.405 440.213 578.479C442.205 580.438 444.596 581.418 447.385 581.418C448.48 581.418 449.344 581.202 449.975 580.771C450.572 580.306 450.871 579.708 450.871 578.978C450.871 578.38 450.522 577.898 449.825 577.533C449.128 577.135 447.85 576.604 445.99 575.939C443.533 575.109 441.657 574.097 440.362 572.901C439.034 571.706 438.37 569.996 438.37 567.771C438.37 565.746 439.2 564.069 440.86 562.741C442.521 561.413 444.612 560.749 447.136 560.749C450.456 560.749 453.395 561.795 455.951 563.887C455.287 564.883 454.324 566.377 453.062 568.369C451.203 566.576 449.128 565.68 446.837 565.68C446.173 565.68 445.559 565.862 444.994 566.228C444.43 566.593 444.147 567.124 444.147 567.821C444.147 568.851 445.459 569.863 448.082 570.859C451.303 572.121 453.328 573.034 454.158 573.599C455.852 574.794 456.698 576.554 456.698 578.878C456.698 581.069 455.901 582.879 454.308 584.307C452.747 585.701 450.439 586.398 447.385 586.398ZM462.376 586C462.376 579.758 462.376 567.24 462.376 548.447C463.306 548.447 465.198 548.447 468.054 548.447C468.054 551.07 468.054 556.333 468.054 564.235C468.087 564.235 468.104 564.235 468.104 564.235C470.229 561.911 473.051 560.749 476.57 560.749C479.459 560.749 481.733 561.579 483.394 563.239C485.054 564.899 485.884 567.522 485.884 571.108C485.884 574.429 485.884 579.393 485.884 586C484.921 586 483.012 586 480.156 586C480.156 583.775 480.156 579.31 480.156 572.603C480.156 570.212 479.708 568.502 478.812 567.473C477.915 566.443 476.57 565.929 474.777 565.929C472.652 565.929 471.009 566.56 469.847 567.821C468.651 569.083 468.054 570.926 468.054 573.35C468.054 576.172 468.054 580.389 468.054 586C467.124 586 465.231 586 462.376 586ZM506.453 586.398C503 586.398 500.311 585.153 498.385 582.663C498.385 582.663 498.352 582.663 498.285 582.663C498.285 583.228 498.285 584.34 498.285 586C497.389 586 495.579 586 492.856 586C492.856 579.758 492.856 567.24 492.856 548.447C493.786 548.447 495.679 548.447 498.534 548.447C498.534 551.07 498.534 556.283 498.534 564.086C498.567 564.086 498.584 564.086 498.584 564.086C500.543 561.861 503.183 560.749 506.503 560.749C509.989 560.749 512.861 561.961 515.119 564.385C517.41 566.842 518.556 569.93 518.556 573.648C518.556 577.467 517.41 580.555 515.119 582.912C512.861 585.236 509.973 586.398 506.453 586.398ZM505.606 581.219C507.665 581.219 509.375 580.521 510.736 579.127C512.064 577.732 512.729 575.923 512.729 573.698C512.729 571.374 512.048 569.498 510.687 568.07C509.292 566.643 507.582 565.929 505.557 565.929C503.432 565.929 501.688 566.659 500.327 568.12C498.966 569.614 498.285 571.474 498.285 573.698C498.285 575.923 498.982 577.732 500.377 579.127C501.771 580.521 503.515 581.219 505.606 581.219ZM536.087 586.398C532.202 586.398 529.064 585.187 526.674 582.763C524.25 580.372 523.038 577.317 523.038 573.599C523.038 569.913 524.25 566.842 526.674 564.385C529.064 561.961 532.202 560.749 536.087 560.749C539.938 560.749 543.076 561.944 545.5 564.335C547.924 566.692 549.136 569.78 549.136 573.599C549.136 577.384 547.924 580.472 545.5 582.862C543.076 585.22 539.938 586.398 536.087 586.398ZM536.087 581.219C538.146 581.219 539.872 580.505 541.267 579.077C542.661 577.649 543.358 575.823 543.358 573.599C543.358 571.341 542.661 569.498 541.267 568.07C539.905 566.643 538.179 565.929 536.087 565.929C533.962 565.929 532.219 566.659 530.857 568.12C529.529 569.581 528.865 571.407 528.865 573.599C528.865 575.757 529.546 577.566 530.907 579.027C532.269 580.488 533.995 581.219 536.087 581.219ZM565.621 586.398C562.102 586.398 559.213 585.236 556.955 582.912C554.697 580.555 553.568 577.467 553.568 573.648C553.568 569.93 554.714 566.842 557.005 564.385C559.263 561.961 562.118 560.749 565.571 560.749C568.892 560.749 571.448 561.895 573.241 564.186C573.274 564.152 573.308 564.136 573.341 564.136C573.341 563.638 573.341 562.625 573.341 561.098C574.304 561.098 576.213 561.098 579.068 561.098C579.068 565.248 579.068 573.549 579.068 586C578.172 586 576.346 586 573.59 586C573.59 585.469 573.59 584.373 573.59 582.713C573.59 582.713 573.557 582.696 573.49 582.663C571.664 585.153 569.041 586.398 565.621 586.398ZM566.518 581.219C568.51 581.219 570.187 580.521 571.548 579.127C572.909 577.732 573.59 575.923 573.59 573.698C573.59 571.507 572.926 569.664 571.598 568.17C570.27 566.676 568.576 565.929 566.518 565.929C564.492 565.929 562.799 566.643 561.438 568.07C560.076 569.498 559.396 571.374 559.396 573.698C559.396 575.923 560.06 577.732 561.388 579.127C562.716 580.521 564.426 581.219 566.518 581.219ZM586.29 586C586.29 581.85 586.29 573.549 586.29 561.098C587.22 561.098 589.112 561.098 591.968 561.098C591.968 561.729 591.968 562.974 591.968 564.833C592.001 564.833 592.034 564.833 592.067 564.833C594.126 562.11 596.699 560.749 599.787 560.749C599.953 560.749 600.186 560.749 600.484 560.749C600.484 561.812 600.484 563.937 600.484 567.124C599.621 567.058 599.057 567.024 598.791 567.024C596.666 567.024 595.006 567.705 593.811 569.066C592.582 570.395 591.968 572.104 591.968 574.196C591.968 576.819 591.968 580.754 591.968 586C591.038 586 589.146 586 586.29 586ZM615.824 586.398C612.305 586.398 609.416 585.236 607.158 582.912C604.867 580.555 603.722 577.467 603.722 573.648C603.722 569.93 604.867 566.842 607.158 564.385C609.449 561.961 612.321 560.749 615.774 560.749C619.161 560.749 621.801 561.895 623.693 564.186C623.727 564.186 623.743 564.186 623.743 564.186C623.743 561.562 623.743 556.316 623.743 548.447C624.706 548.447 626.599 548.447 629.421 548.447C629.421 554.723 629.421 567.24 629.421 586C628.524 586 626.715 586 623.992 586C623.992 585.436 623.992 584.307 623.992 582.613C623.959 582.613 623.942 582.613 623.942 582.613C621.983 585.137 619.277 586.398 615.824 586.398ZM616.671 581.219C618.763 581.219 620.506 580.521 621.9 579.127C623.295 577.732 623.992 575.923 623.992 573.698C623.992 571.474 623.312 569.614 621.95 568.12C620.589 566.659 618.846 565.929 616.721 565.929C614.695 565.929 612.985 566.643 611.591 568.07C610.229 569.498 609.549 571.374 609.549 573.698C609.549 575.923 610.213 577.732 611.541 579.127C612.902 580.521 614.612 581.219 616.671 581.219ZM385.328 649.398C380.979 649.398 377.492 648.054 374.869 645.364C372.246 642.642 370.935 638.89 370.935 634.108C370.935 629.36 370.935 622.255 370.935 612.792C371.964 612.792 374.006 612.792 377.061 612.792C377.061 616.278 377.061 623.234 377.061 633.66C377.061 636.615 377.791 639.006 379.252 640.832C380.746 642.658 382.771 643.571 385.328 643.571C387.785 643.571 389.777 642.691 391.305 640.932C392.865 639.139 393.646 636.715 393.646 633.66C393.646 629.012 393.646 622.056 393.646 612.792C394.675 612.792 396.717 612.792 399.771 612.792C399.771 616.345 399.771 623.45 399.771 634.108C399.771 638.823 398.493 642.559 395.937 645.314C393.347 648.037 389.811 649.398 385.328 649.398ZM415.311 649.398C411.359 649.398 408.022 648.187 405.3 645.763C405.931 644.833 406.877 643.405 408.139 641.479C410.131 643.438 412.521 644.418 415.311 644.418C416.406 644.418 417.27 644.202 417.9 643.771C418.498 643.306 418.797 642.708 418.797 641.978C418.797 641.38 418.448 640.898 417.751 640.533C417.054 640.135 415.775 639.604 413.916 638.939C411.459 638.109 409.583 637.097 408.288 635.901C406.96 634.706 406.296 632.996 406.296 630.771C406.296 628.746 407.126 627.069 408.786 625.741C410.446 624.413 412.538 623.749 415.062 623.749C418.382 623.749 421.32 624.795 423.877 626.887C423.213 627.883 422.25 629.377 420.988 631.369C419.129 629.576 417.054 628.68 414.763 628.68C414.099 628.68 413.484 628.862 412.92 629.228C412.355 629.593 412.073 630.124 412.073 630.821C412.073 631.851 413.385 632.863 416.008 633.859C419.229 635.121 421.254 636.034 422.084 636.599C423.777 637.794 424.624 639.554 424.624 641.878C424.624 644.069 423.827 645.879 422.233 647.307C420.673 648.701 418.365 649.398 415.311 649.398ZM453.013 636.25C453.013 636.881 452.963 637.611 452.863 638.441C448.846 638.441 442.803 638.441 434.734 638.441C435.1 640.234 435.93 641.646 437.225 642.675C438.486 643.704 440.08 644.219 442.006 644.219C444.629 644.219 446.721 643.239 448.281 641.28C449.178 642.044 450.506 643.189 452.266 644.717C449.842 647.838 446.322 649.398 441.707 649.398C437.889 649.398 434.784 648.236 432.394 645.912C430.003 643.555 428.808 640.434 428.808 636.549C428.808 632.73 429.97 629.643 432.294 627.285C434.618 624.928 437.623 623.749 441.309 623.749C444.762 623.749 447.584 624.928 449.775 627.285C451.934 629.609 453.013 632.598 453.013 636.25ZM441.259 628.929C439.665 628.929 438.287 629.36 437.125 630.224C435.996 631.12 435.232 632.365 434.834 633.959C437.59 633.959 441.74 633.959 447.285 633.959C446.887 632.398 446.189 631.17 445.193 630.273C444.164 629.377 442.853 628.929 441.259 628.929ZM458.939 649C458.939 644.85 458.939 636.549 458.939 624.098C459.869 624.098 461.762 624.098 464.617 624.098C464.617 624.729 464.617 625.974 464.617 627.833C464.65 627.833 464.684 627.833 464.717 627.833C466.775 625.11 469.349 623.749 472.437 623.749C472.603 623.749 472.835 623.749 473.134 623.749C473.134 624.812 473.134 626.937 473.134 630.124C472.271 630.058 471.706 630.024 471.44 630.024C469.315 630.024 467.655 630.705 466.46 632.066C465.231 633.395 464.617 635.104 464.617 637.196C464.617 639.819 464.617 643.754 464.617 649C463.688 649 461.795 649 458.939 649Z" fill="#0D3841"/>
</g>
<path id="ToAnimate5" fill-rule="evenodd" clip-rule="evenodd" d="M1715.29 408.572L1716.1 410.472C1716.1 410.472 1716.66 410.671 1717.47 410.972C1717.64 411.032 1717.81 411.097 1717.99 411.166C1720.09 411.942 1723.24 413.149 1723.82 413.585C1723.91 413.654 1723.94 413.704 1723.89 413.729V420.244C1723.89 420.438 1721.83 421.324 1719.78 422.21C1718.96 422.565 1718.13 422.919 1717.44 423.23C1716.37 423.772 1715.56 424.587 1715.03 425.672C1714.49 427.03 1714.49 428.387 1715.03 429.472C1715.3 430.1 1715.63 430.817 1715.96 431.54C1716.92 433.634 1717.91 435.785 1717.71 435.987L1713.15 440.601C1712.88 440.873 1708.85 439.244 1706.43 438.158C1705.36 437.615 1704.01 437.615 1702.94 438.158H1702.67C1701.6 438.701 1700.79 439.787 1700.25 440.873C1699.45 443.044 1697.84 447.116 1697.57 447.116H1691.12C1690.93 447.116 1690.05 445.038 1689.18 442.961C1688.83 442.13 1688.47 441.299 1688.17 440.601C1687.63 439.515 1686.82 438.701 1685.75 438.158H1685.48C1684.14 437.615 1683.06 437.615 1681.72 437.887C1679.57 438.973 1675.54 440.873 1675.28 440.601L1670.71 435.987C1670.67 435.987 1670.67 435.892 1670.71 435.722C1670.91 434.835 1672.07 431.913 1672.96 429.847C1673.02 429.718 1673.07 429.593 1673.13 429.472C1673.13 429.457 1673.13 429.442 1673.14 429.427C1673.4 428.349 1673.4 427.015 1673.4 425.944C1672.86 424.858 1671.78 424.044 1670.71 423.501C1668.29 422.687 1664.26 421.058 1664.26 420.787V414.272C1664.26 414.078 1666.32 413.192 1668.37 412.306C1669.2 411.951 1670.02 411.597 1670.71 411.287C1671.78 410.744 1672.59 409.929 1673.13 408.844C1673.66 407.486 1673.66 406.129 1673.13 405.044C1672.85 404.416 1672.52 403.699 1672.19 402.976C1671.23 400.882 1670.24 398.731 1670.44 398.529L1675.01 393.915C1675.28 393.643 1679.3 395.272 1681.72 396.358C1683.06 396.901 1684.14 396.901 1685.75 396.901H1685.75C1686.82 396.358 1687.63 395.272 1688.17 394.186C1688.97 391.743 1690.58 387.672 1690.85 387.672H1697.57C1697.76 387.672 1698.64 389.749 1699.51 391.827C1699.86 392.657 1700.22 393.488 1700.52 394.186C1700.79 395.272 1701.86 396.086 1702.94 396.629C1704.01 397.172 1705.36 397.172 1706.43 396.629C1706.8 396.466 1707.2 396.283 1707.62 396.093C1709.98 395.02 1712.92 393.684 1713.15 393.915L1717.71 398.529C1717.75 398.529 1717.75 398.624 1717.71 398.794C1717.51 399.681 1716.35 402.603 1715.46 404.669C1715.4 404.798 1715.35 404.923 1715.29 405.044C1715.29 405.059 1715.28 405.074 1715.27 405.089C1714.76 406.167 1714.76 407.501 1715.29 408.572ZM1722.07 393.707C1722.5 394.112 1722.87 394.565 1723.16 395.044C1723.96 396.341 1724.1 397.566 1724.13 397.985C1724.21 398.914 1724.08 399.666 1724.05 399.86L1724.04 399.872C1723.95 400.422 1723.8 400.922 1723.72 401.184C1723.52 401.808 1723.25 402.55 1722.99 403.248C1722.7 404.014 1722.36 404.864 1722.02 405.69C1722.17 405.748 1722.32 405.807 1722.47 405.865C1723.5 406.262 1724.62 406.712 1725.49 407.105C1725.87 407.276 1726.46 407.551 1727 407.88C1727 407.883 1727.01 407.887 1727.02 407.891C1727.18 407.991 1727.99 408.48 1728.72 409.33L1728.72 409.332C1728.99 409.648 1730.33 411.212 1730.33 413.696C1730.33 413.904 1730.32 414.105 1730.31 414.301V420.244C1730.31 422.234 1729.44 423.595 1729.11 424.071C1728.7 424.654 1728.29 425.044 1728.09 425.232C1727.66 425.619 1727.26 425.877 1727.09 425.984C1726.7 426.231 1726.3 426.435 1726.04 426.564C1725.48 426.847 1724.78 427.163 1724.11 427.455C1723.43 427.754 1722.79 428.03 1722.18 428.293C1722.01 428.368 1721.83 428.443 1721.66 428.516C1721.69 428.576 1721.72 428.636 1721.75 428.697L1721.78 428.773C1722.09 429.444 1722.42 430.171 1722.72 430.84C1723.01 431.503 1723.34 432.265 1723.58 432.939C1723.69 433.242 1723.87 433.773 1724 434.375C1724.05 434.65 1724.17 435.254 1724.15 436.007L1724.15 436.015C1724.15 436.45 1724.11 438.746 1722.22 440.651L1717.66 445.265C1715.9 447.037 1713.82 447.156 1713.46 447.177C1713.45 447.177 1713.44 447.178 1713.43 447.178C1712.77 447.219 1712.22 447.149 1711.96 447.111C1711.4 447.028 1710.89 446.889 1710.57 446.797C1709.87 446.595 1709.08 446.312 1708.36 446.039C1707.48 445.705 1706.51 445.312 1705.6 444.925C1705.28 445.734 1704.94 446.597 1704.61 447.378C1704.33 448.056 1704.02 448.77 1703.74 449.357C1703.61 449.624 1703.41 450.032 1703.16 450.436C1703.05 450.612 1702.79 451.02 1702.4 451.46C1702.21 451.673 1701.83 452.087 1701.26 452.492C1700.78 452.827 1699.47 453.675 1697.57 453.675H1691.12C1689.22 453.675 1687.9 452.827 1687.43 452.491C1686.86 452.086 1686.48 451.673 1686.29 451.46C1685.9 451.023 1685.64 450.616 1685.54 450.443C1685.29 450.043 1685.09 449.639 1684.96 449.377C1684.68 448.803 1684.36 448.091 1684.07 447.42C1683.78 446.732 1683.5 446.084 1683.24 445.467C1683.12 445.171 1683 444.882 1682.88 444.599C1682.05 444.997 1681.16 445.414 1680.33 445.777C1679.63 446.085 1678.86 446.411 1678.17 446.651C1677.86 446.76 1677.35 446.929 1676.78 447.044C1676.52 447.096 1675.96 447.197 1675.27 447.186C1675.26 447.186 1675.25 447.186 1675.24 447.186C1674.87 447.181 1672.63 447.154 1670.76 445.265L1666.35 440.809C1665.92 440.404 1665.56 439.951 1665.26 439.472C1664.46 438.175 1664.33 436.95 1664.29 436.531C1664.21 435.602 1664.34 434.85 1664.37 434.656L1664.38 434.645C1664.47 434.094 1664.62 433.595 1664.7 433.332C1664.9 432.708 1665.17 431.966 1665.43 431.268C1665.72 430.523 1666.05 429.699 1666.38 428.893C1665.62 428.605 1664.85 428.303 1664.17 428.019C1663.47 427.728 1662.75 427.415 1662.16 427.126C1661.89 426.993 1661.48 426.789 1661.08 426.537C1660.91 426.429 1660.51 426.17 1660.07 425.78C1659.86 425.591 1659.45 425.2 1659.04 424.616C1658.71 424.139 1657.85 422.777 1657.85 420.787V414.272C1657.85 412.282 1658.71 410.921 1659.04 410.445C1659.45 409.862 1659.86 409.472 1660.07 409.284C1660.5 408.897 1660.9 408.639 1661.07 408.532C1661.46 408.285 1661.85 408.081 1662.11 407.952C1662.68 407.669 1663.38 407.353 1664.04 407.061C1664.72 406.762 1665.36 406.487 1665.97 406.223C1666.15 406.148 1666.32 406.073 1666.49 406C1666.46 405.94 1666.43 405.88 1666.41 405.819L1666.37 405.744C1666.06 405.072 1665.73 404.345 1665.43 403.676C1665.14 403.013 1664.81 402.251 1664.57 401.577C1664.46 401.274 1664.28 400.743 1664.16 400.141C1664.1 399.866 1663.99 399.262 1664 398.509L1664 398.501C1664.01 398.066 1664.04 395.77 1665.93 393.865L1665.93 393.865L1670.49 389.251C1670.49 389.251 1670.49 389.251 1670.49 389.251C1672.25 387.479 1674.33 387.36 1674.7 387.339C1674.71 387.339 1674.71 387.338 1674.72 387.338C1675.39 387.297 1675.93 387.367 1676.19 387.405C1676.75 387.488 1677.26 387.627 1677.58 387.719C1678.28 387.921 1679.07 388.204 1679.79 388.477C1680.79 388.855 1681.9 389.309 1682.91 389.744C1683.2 388.972 1683.5 388.197 1683.78 387.499C1684.07 386.79 1684.38 386.059 1684.67 385.459C1684.8 385.185 1685.01 384.773 1685.26 384.363C1685.37 384.185 1685.63 383.775 1686.01 383.333C1686.2 383.119 1686.59 382.704 1687.16 382.297C1687.64 381.961 1688.95 381.112 1690.85 381.112H1697.57C1699.47 381.112 1700.79 381.961 1701.26 382.296C1701.83 382.701 1702.21 383.115 1702.4 383.327C1702.79 383.765 1703.04 384.172 1703.15 384.345C1703.4 384.744 1703.6 385.148 1703.73 385.41C1704.01 385.985 1704.33 386.697 1704.62 387.367C1704.91 388.056 1705.19 388.703 1705.45 389.321C1705.52 389.485 1705.58 389.647 1705.65 389.807C1706.47 389.438 1707.34 389.046 1708.11 388.716C1708.81 388.416 1709.58 388.095 1710.26 387.859C1710.57 387.752 1711.08 387.584 1711.65 387.472C1711.9 387.42 1712.46 387.319 1713.15 387.33C1713.16 387.33 1713.17 387.33 1713.18 387.33C1713.55 387.335 1715.79 387.362 1717.66 389.251L1722.07 393.707ZM1690.83 417.258C1690.83 418.605 1692.06 420.199 1694.08 420.199C1696.09 420.199 1697.33 418.605 1697.33 417.258C1697.33 415.911 1696.09 414.317 1694.08 414.317C1692.06 414.317 1690.83 415.911 1690.83 417.258ZM1684.41 417.258C1684.41 422.415 1688.7 426.758 1694.08 426.758C1699.45 426.758 1703.74 422.415 1703.74 417.258C1703.74 412.101 1699.45 407.758 1694.08 407.758C1688.7 407.758 1684.41 412.101 1684.41 417.258Z" fill="white"/>
</g>
<defs>
<filter id="filter0_d" x="967" y="1417" width="275" height="297" filterUnits="userSpaceOnUse" color-interpolation-filters="sRGB">
<feFlood flood-opacity="0" result="BackgroundImageFix"/>
<feColorMatrix in="SourceAlpha" type="matrix" values="0 0 0 0 0 0 0 0 0 0 0 0 0 0 0 0 0 0 127 0"/>
<feOffset/>
<feGaussianBlur stdDeviation="10"/>
<feColorMatrix type="matrix" values="0 0 0 0 0.0630041 0 0 0 0 0.342352 0 0 0 0 0.515284 0 0 0 0.4 0"/>
<feBlend mode="normal" in2="BackgroundImageFix" result="effect1_dropShadow"/>
<feBlend mode="normal" in="SourceGraphic" in2="effect1_dropShadow" result="shape"/>
</filter>
<filter id="filter1_d" x="2201" y="1417" width="275" height="298" filterUnits="userSpaceOnUse" color-interpolation-filters="sRGB">
<feFlood flood-opacity="0" result="BackgroundImageFix"/>
<feColorMatrix in="SourceAlpha" type="matrix" values="0 0 0 0 0 0 0 0 0 0 0 0 0 0 0 0 0 0 127 0"/>
<feOffset/>
<feGaussianBlur stdDeviation="10"/>
<feColorMatrix type="matrix" values="0 0 0 0 0.0630041 0 0 0 0 0.342352 0 0 0 0 0.515284 0 0 0 0.4 0"/>
<feBlend mode="normal" in2="BackgroundImageFix" result="effect1_dropShadow"/>
<feBlend mode="normal" in="SourceGraphic" in2="effect1_dropShadow" result="shape"/>
</filter>
<filter id="filter2_d" x="1584" y="295" width="283" height="298" filterUnits="userSpaceOnUse" color-interpolation-filters="sRGB">
<feFlood flood-opacity="0" result="BackgroundImageFix"/>
<feColorMatrix in="SourceAlpha" type="matrix" values="0 0 0 0 0 0 0 0 0 0 0 0 0 0 0 0 0 0 127 0"/>
<feOffset/>
<feGaussianBlur stdDeviation="10"/>
<feColorMatrix type="matrix" values="0 0 0 0 0.0630041 0 0 0 0 0.342352 0 0 0 0 0.515284 0 0 0 0.4 0"/>
<feBlend mode="normal" in2="BackgroundImageFix" result="effect1_dropShadow"/>
<feBlend mode="normal" in="SourceGraphic" in2="effect1_dropShadow" result="shape"/>
</filter>
<linearGradient id="paint0_linear" x1="2876" y1="1576.62" x2="2906.7" y2="1585.87" gradientUnits="userSpaceOnUse">
<stop stop-color="#1AB3FF"/>
<stop offset="1" stop-color="#651FD7"/>
</linearGradient>
<linearGradient id="paint1_linear" x1="1659.57" y1="1690" x2="1659.57" y2="1724" gradientUnits="userSpaceOnUse">
<stop stop-color="#1AB3FF"/>
<stop offset="1" stop-color="#0E82FF"/>
</linearGradient>
<linearGradient id="paint2_linear" x1="1659.57" y1="2191" x2="1659.57" y2="2225" gradientUnits="userSpaceOnUse">
<stop stop-color="#1AB3FF"/>
<stop offset="1" stop-color="#0E82FF"/>
</linearGradient>
<linearGradient id="paint3_linear" x1="1659.57" y1="2530" x2="1659.57" y2="2564" gradientUnits="userSpaceOnUse">
<stop stop-color="#1AB3FF"/>
<stop offset="1" stop-color="#0E82FF"/>
</linearGradient>
<linearGradient id="paint4_linear" x1="2141.69" y1="1967.66" x2="2887.91" y2="1644.98" gradientUnits="userSpaceOnUse">
<stop stop-color="#F49D1D"/>
<stop offset="1" stop-color="#FF6B00"/>
</linearGradient>
<linearGradient id="paint5_linear" x1="1104.5" y1="1437" x2="1104.5" y2="1694" gradientUnits="userSpaceOnUse">
<stop stop-color="#1AB3FF"/>
<stop offset="1" stop-color="#0E82FF"/>
</linearGradient>
<linearGradient id="paint6_linear" x1="2338.5" y1="1437" x2="2338.5" y2="1695" gradientUnits="userSpaceOnUse">
<stop stop-color="#1AB3FF"/>
<stop offset="1" stop-color="#0E82FF"/>
</linearGradient>
<linearGradient id="paint7_linear" x1="1721.82" y1="315" x2="1721.82" y2="573" gradientUnits="userSpaceOnUse">
<stop stop-color="#1AB3FF"/>
<stop offset="1" stop-color="#0E82FF"/>
</linearGradient>
<style>
#ToAnimate1 {
    stroke-dasharray: 1400 1400;
    stroke-dashoffset: 200;
    animation: ToAnimate1_draw 3500ms ease-in-out 0ms infinite, ToAnimate1_fade 3500ms linear 0ms infinite;
}

@keyframes ToAnimate1_draw {
    0% {
        stroke-dashoffset: 1400
    }

    100% {
        stroke-dashoffset: 0;
    }
}

@keyframes ToAnimate1_fade {
    0% {
        stroke-opacity: 1;
    }

    50% {
        stroke-opacity: 0.7;
    }

    100% {
        stroke-opacity: 0;
    }
}
</style>
<!--<style>
#Vector_4 {
	
	animation: vector_draw 3500ms ease-in-out 0ms infinite;
	transform-origin: 1836.5px 1836.5px;

}

@keyframes vector_draw{
	0% {
		transform: scaleY(1);
	}
	50% {
		transform: scaleY(-1);
	}
	100% {
		transform: scaleY(1);
	}
}
</style>-->
<style>
#ToAnimate4 {
    stroke-dasharray: 12 33;
    stroke-dashoffset: 7;
    animation: ToAnimate4_draw 400ms linear 0ms infinite;
}

@keyframes ToAnimate4_draw {
    0% {
        stroke-dashoffset: 45
    }

    100% {
        stroke-dashoffset: 0;
    }
}

}
</style>
<style>
#ToAnimate3 {
    stroke-dasharray: 0 950;
    stroke-dashoffset: 0;
    animation: ToAnimate3_draw 10s linear 0ms infinite;
}

@keyframes ToAnimate3_draw {
    0% {
        stroke-dashoffset: 0;
        stroke-dasharray: 0 0;
        opacity: 0;
    }
    5%{
		stroke-dashoffset: 0;
        stroke-dasharray: 0 2000;
        opacity: 1;
    }

    95% {
        stroke-dashoffset: 0;
        stroke-dasharray: 960 960;
        opacity: 1;
    }
    100%{
    	stroke-dashoffset: 0;
        stroke-dasharray: 1000 1000;
        opacity: 0;
    }

}

}
</style>
<style>
#Scrub {
	
	animation: scrubbing 10s infinite linear;

}
@keyframes scrubbing{
	0% {
		transform: translateX(-400px);
		opacity: 0;
	}
	5% {
		transform: translateX(-350px);
		opacity: 1;

	}
	95% {
		transform: translateX(620px);
		opacity: 1;
	}
	100% {
		transform: translateX(680px);
		opacity: 0;
	}
}
</style>
<style>
#Scrubber {
	
    animation: scrubber_fade 1500ms linear 0ms infinite;
}


@keyframes scrubber_fade {
    0% {
        stroke-opacity: 1;
    }

    50% {
        stroke-opacity: 0.7;
    }

    100% {
        stroke-opacity: 1;
    }
}
</style>
<style>
#ToAnimate5 {
    animation: rotation 2s infinite linear;
    transform-origin: 1694px 417px;
}

@keyframes rotation {
    from {
        transform: rotate(0deg);
    }

    to {
        transform: rotate(359deg);
    }
}
</style>


</defs>
</svg>
