<svg width="30" height="30" viewBox="0 0 30 30" fill="none" xmlns="http://www.w3.org/2000/svg">
<circle cx="15" cy="15" r="14.5" fill="#1FAAE2" stroke="white"/>
<path fill-rule="evenodd" clip-rule="evenodd" d="M8.5 5C8.77614 5 9 5.22386 9 5.5V6.45C9 6.72614 8.77614 6.95 8.5 6.95C8.22386 6.95 8 6.72614 8 6.45V5.5C8 5.22386 8.22386 5 8.5 5ZM8.5 8.8C8.77614 8.8 9 9.02386 9 9.3V11.2C9 11.4761 8.77614 11.7 8.5 11.7C8.22386 11.7 8 11.4761 8 11.2V9.3C8 9.02386 8.22386 8.8 8.5 8.8ZM8.5 13.55C8.77614 13.55 9 13.7739 9 14.05V15.95C9 16.2261 8.77614 16.45 8.5 16.45C8.22386 16.45 8 16.2261 8 15.95V14.05C8 13.7739 8.22386 13.55 8.5 13.55ZM8.5 18.3C8.77614 18.3 9 18.5239 9 18.8L9 20.7C9 20.9761 8.77614 21.2 8.5 21.2C8.22386 21.2 8 20.9761 8 20.7L8 18.8C8 18.5239 8.22386 18.3 8.5 18.3ZM8.5 23.05C8.77614 23.05 9 23.2739 9 23.55V24.5C9 24.7761 8.77614 25 8.5 25C8.22386 25 8 24.7761 8 24.5V23.55C8 23.2739 8.22386 23.05 8.5 23.05Z" fill="white"/>
<path fill-rule="evenodd" clip-rule="evenodd" d="M21.5 5C21.7761 5 22 5.22386 22 5.5V6.45C22 6.72614 21.7761 6.95 21.5 6.95C21.2239 6.95 21 6.72614 21 6.45V5.5C21 5.22386 21.2239 5 21.5 5ZM21.5 8.8C21.7761 8.8 22 9.02386 22 9.3V11.2C22 11.4761 21.7761 11.7 21.5 11.7C21.2239 11.7 21 11.4761 21 11.2V9.3C21 9.02386 21.2239 8.8 21.5 8.8ZM21.5 13.55C21.7761 13.55 22 13.7739 22 14.05V15.95C22 16.2261 21.7761 16.45 21.5 16.45C21.2239 16.45 21 16.2261 21 15.95V14.05C21 13.7739 21.2239 13.55 21.5 13.55ZM21.5 18.3C21.7761 18.3 22 18.5239 22 18.8V20.7C22 20.9761 21.7761 21.2 21.5 21.2C21.2239 21.2 21 20.9761 21 20.7V18.8C21 18.5239 21.2239 18.3 21.5 18.3ZM21.5 23.05C21.7761 23.05 22 23.2739 22 23.55V24.5C22 24.7761 21.7761 25 21.5 25C21.2239 25 21 24.7761 21 24.5V23.55C21 23.2739 21.2239 23.05 21.5 23.05Z" fill="white"/>
<rect x="10" y="5" width="10" height="4" rx="1" fill="white"/>
<rect x="10" y="10" width="10" height="7" rx="1" fill="#F49D1D"/>
<rect x="10" y="18" width="10" height="7" rx="1" fill="white"/>
<path fill-rule="evenodd" clip-rule="evenodd" d="M18.852 12.281C19.3963 12.8253 19.1473 13.7548 18.4037 13.954L16.173 14.5517C15.4294 14.751 14.749 14.0706 14.9483 13.327L15.546 11.0963C15.7452 10.3527 16.6747 10.1037 17.219 10.648L18.852 12.281Z" fill="white"/>
</svg>
