<svg xmlns="http://www.w3.org/2000/svg" viewBox="0 0 40.45443 40.45578"><path d="M20.22654,1.38237A18.84553,18.84553,0,1,0,39.07207,20.22789,18.86583,18.86583,0,0,0,20.22654,1.38237Z" style="fill:#26a9e1"/><path d="M20.22654,40.45578A20.22789,20.22789,0,1,1,40.45443,20.22789,20.25,20.25,0,0,1,20.22654,40.45578Zm0-39.07341A18.84553,18.84553,0,1,0,39.07207,20.22789,18.86583,18.86583,0,0,0,20.22654,1.38237Z" style="fill:#fff"/><path d="M28.56128,22.69531A14.45943,14.45943,0,0,1,20.22736,25.686a14.45984,14.45984,0,0,1-8.33428-2.99073,20.03648,20.03648,0,0,1-2.79053-2.47147,20.06535,20.06535,0,0,1,2.79023-2.47139,14.461,14.461,0,0,1,8.33429-2.9911,14.45915,14.45915,0,0,1,8.33421,2.9911,20.0436,20.0436,0,0,1,2.7906,2.47139,20.03552,20.03552,0,0,1-2.7906,2.47147Zm0,0" style="fill:#fff"/><path d="M32.35133,19.67756a18.78625,18.78625,0,0,0-3.3585-3.12814,14.946,14.946,0,0,0-8.785-3.1353,14.94626,14.94626,0,0,0-8.78529,3.1353,18.7918,18.7918,0,0,0-3.3585,3.12814l-.432.54627.432.54634a18.79631,18.79631,0,0,0,3.3585,3.12807,14.94589,14.94589,0,0,0,8.78529,3.13537,14.94558,14.94558,0,0,0,8.785-3.13537,18.79075,18.79075,0,0,0,3.3585-3.12807l.43209-.54634Zm-4.442,2.83019a13.36216,13.36216,0,0,1-7.7015,2.76378A13.36254,13.36254,0,0,1,12.506,22.50775a18.51625,18.51625,0,0,1-2.57877-2.28392A18.54189,18.54189,0,0,1,12.50576,17.94a13.36361,13.36361,0,0,1,7.70184-2.76412A13.36185,13.36185,0,0,1,27.90937,17.94a18.52206,18.52206,0,0,1,2.57884,2.28385,18.51487,18.51487,0,0,1-2.57884,2.28392Zm0,0" style="fill:#26a9e1"/><rect x="7.63206" y="13.42258" width="25.19032" height="13.61909" style="fill:none"/><path d="M20.20787,16.4978a3.70958,3.70958,0,0,0-2.37773.85764A1.22957,1.22957,0,1,1,16.58129,19.37a3.72571,3.72571,0,1,0,3.62658-2.87217Zm0,0" style="fill:#f69c2a"/></svg>