<svg xmlns="http://www.w3.org/2000/svg" viewBox="0 0 40.45443 40.45578"><path d="M20.22654,1.38237A18.84553,18.84553,0,1,0,39.07207,20.22789,18.86583,18.86583,0,0,0,20.22654,1.38237Z" style="fill:#26a9e1"/><path d="M20.22654,40.45578A20.22789,20.22789,0,1,1,40.45443,20.22789,20.25,20.25,0,0,1,20.22654,40.45578Zm0-39.07341A18.84553,18.84553,0,1,0,39.07207,20.22789,18.86583,18.86583,0,0,0,20.22654,1.38237Z" style="fill:#fff"/><path d="M25.69466,19.71826l-8.21387-5.84619a.62552.62552,0,0,0-.98828.50977V26.07422a.6247.6247,0,0,0,.98828.50928l8.21387-5.84571a.62461.62461,0,0,0,0-1.01953Zm-1.63281.50977a.1236.1236,0,0,1-.05274.10254L18.0013,24.606a.125.125,0,0,1-.13086.00927.1221.1221,0,0,1-.06836-.11132V15.95215a.123.123,0,0,1,.06836-.11182.12649.12649,0,0,1,.0586-.01465.12328.12328,0,0,1,.07226.02393l6.00781,4.27588A.12358.12358,0,0,1,24.06185,20.228Z" style="fill:#fff"/></svg>