<svg viewBox="0 0 75 75" fill="none" xmlns="http://www.w3.org/2000/svg">
<path d="M34.9328 7.01992e-08C28.0238 7.01991e-08 21.2699 2.04877 15.5252 5.88724C9.78053 9.72571 5.3031 15.1815 2.65912 21.5646C0.015136 27.9478 -0.676651 34.9716 0.67124 41.7479C2.01913 48.5242 5.34616 54.7486 10.2316 59.6341C15.117 64.5195 21.3415 67.8465 28.1178 69.1944C34.8941 70.5423 41.9179 69.8505 48.3011 67.2066C54.6842 64.5626 60.14 60.0851 63.9784 54.3405C67.8169 48.5958 69.8657 41.8419 69.8657 34.9328C69.8557 25.6711 66.1721 16.7916 59.6231 10.2426C53.0741 3.69358 44.1945 0.00996907 34.9328 7.01992e-08Z" transform="translate(2.56689 2.56714)" fill="#1FAAE2"/>
<path d="M41.3358 74.8033C33.6318 75.5955 25.8714 73.9829 19.1208 70.1872C12.3701 66.3914 6.96021 60.5987 3.63423 53.6046C0.308251 46.6105 -0.770668 38.7582 0.54567 31.1262C1.86201 23.4943 5.50903 16.4571 10.9858 10.9813C16.4625 5.50543 23.5004 1.85962 31.1325 0.544581C38.7647 -0.770453 46.6168 0.309809 53.6104 3.63698C60.6039 6.96415 66.3957 12.375 70.1903 19.1264C73.9849 25.8777 75.5961 33.6383 74.8026 41.3422C73.9128 49.9137 70.1008 57.9181 64.0067 64.0112C57.9126 70.1043 49.9075 73.9149 41.3358 74.8033ZM41.0845 2.74711C33.9071 2.00679 26.6766 3.50689 20.3861 7.04135C14.0955 10.5758 9.05366 15.9712 5.95297 22.4865C2.85229 29.0018 1.84491 36.3173 3.06922 43.4281C4.29352 50.5389 7.68945 57.0963 12.7905 62.1994C17.8916 67.3026 24.4476 70.7011 31.5579 71.9283C38.6683 73.1555 45.9842 72.151 52.5007 69.053C59.0172 65.9549 64.4147 60.9152 67.9517 54.6261C71.4887 48.337 72.9917 41.1071 72.2542 33.9294C71.4274 25.9437 67.8781 18.4856 62.2023 12.8075C56.5265 7.12945 49.0699 3.57715 41.0845 2.74711Z" fill="white"/>
<path d="M8.44986 17.0483C13.1166 17.0483 16.8997 13.2319 16.8997 8.52413C16.8997 3.81638 13.1166 0 8.44986 0C3.78313 0 0 3.81638 0 8.52413C0 13.2319 3.78313 17.0483 8.44986 17.0483Z" transform="translate(40.5019 26.5693)" fill="#1EABE2"/>
<path d="M9.04759 18.255C7.25807 18.2549 5.50876 17.7195 4.02087 16.7165C2.53298 15.7135 1.37334 14.288 0.688591 12.6201C0.00384205 10.9522 -0.175258 9.11698 0.173936 7.34643C0.52313 5.57589 1.38493 3.94956 2.65037 2.67311C3.91581 1.39666 5.52804 0.52742 7.28319 0.17531C9.03834 -0.176801 10.8576 0.004033 12.5109 0.694944C14.1641 1.38586 15.5772 2.55581 16.5713 4.05687C17.5655 5.55792 18.096 7.32265 18.096 9.1279C18.0931 11.5478 17.1389 13.8678 15.4426 15.5789C13.7463 17.29 11.4464 18.2524 9.04759 18.255ZM9.04759 1.20628C7.4946 1.20635 5.97651 1.67098 4.68528 2.54141C3.39405 3.41183 2.38767 4.64896 1.79341 6.09636C1.19914 7.54377 1.04367 9.13643 1.34666 10.673C1.64966 12.2095 2.3975 13.6209 3.49563 14.7287C4.59375 15.8364 5.99285 16.5909 7.516 16.8965C9.03914 17.2022 10.6179 17.0453 12.0527 16.4459C13.4875 15.8464 14.7139 14.8311 15.5767 13.5286C16.4395 12.226 16.9001 10.6945 16.9002 9.1279C16.8979 7.02767 16.0698 5.01413 14.5977 3.52904C13.1255 2.04395 11.1295 1.20861 9.04759 1.20628Z" transform="translate(39.9041 25.9658)" fill="white"/>
<path d="M8.44987 17.0483C13.1166 17.0483 16.8997 13.2319 16.8997 8.52413C16.8997 3.81638 13.1166 0 8.44987 0C3.78313 0 0 3.81638 0 8.52413C0 13.2319 3.78313 17.0483 8.44987 17.0483Z" transform="translate(24.0692 41.3486)" fill="#1EABE2"/>
<path d="M9.04759 18.2542C7.25815 18.2542 5.50889 17.7189 4.02102 16.716C2.53315 15.7131 1.3735 14.2877 0.68871 12.6199C0.00391968 10.9521 -0.175251 9.11699 0.173852 7.3465C0.522955 5.57601 1.38465 3.94972 2.64998 2.67327C3.91531 1.39682 5.52744 0.527549 7.2825 0.175378C9.03755 -0.176794 10.8567 0.00395391 12.5099 0.694763C14.1632 1.38557 15.5762 2.55542 16.5704 4.05636C17.5645 5.55731 18.0952 7.32194 18.0952 9.12711C18.0924 11.5469 17.1382 13.8668 15.4421 15.5778C13.7459 17.2889 11.4463 18.2514 9.04759 18.2542ZM9.04759 1.20625C7.49465 1.20627 5.97659 1.67084 4.68538 2.5412C3.39416 3.41157 2.38779 4.64864 1.79352 6.09598C1.19925 7.54332 1.04376 9.13594 1.34674 10.6724C1.64971 12.2089 2.39753 13.6203 3.49563 14.728C4.59373 15.8357 5.99279 16.5901 7.51589 16.8957C9.03899 17.2014 10.6177 17.0445 12.0525 16.445C13.4872 15.8455 14.7135 14.8302 15.5762 13.5277C16.439 12.2251 16.8995 10.6937 16.8995 9.12711C16.897 7.02712 16.069 5.01386 14.597 3.52895C13.125 2.04404 11.1293 1.20874 9.04759 1.20628V1.20625Z" transform="translate(23.4716 40.7457)" fill="white"/>
<path d="M7.79945 15.736C12.107 15.736 15.5989 12.2134 15.5989 7.868C15.5989 3.52263 12.107 0 7.79945 0C3.49193 0 0 3.52263 0 7.868C0 12.2134 3.49193 15.736 7.79945 15.736Z" transform="translate(20.2482 20.2588)" fill="#F39E21"/>
<path d="M9.04759 18.2542C7.25815 18.2542 5.50889 17.7189 4.02102 16.716C2.53315 15.7131 1.3735 14.2877 0.68871 12.6199C0.00391979 10.9521 -0.175251 9.11699 0.173852 7.3465C0.522955 5.57602 1.38465 3.94972 2.64998 2.67327C3.91531 1.39682 5.52743 0.52755 7.28249 0.175379C9.03755 -0.176793 10.8567 0.00395497 12.51 0.694764C14.1632 1.38557 15.5762 2.55542 16.5704 4.05636C17.5645 5.55731 18.0952 7.32194 18.0952 9.12711C18.0924 11.5469 17.1382 13.8668 15.4421 15.5778C13.7459 17.2889 11.4463 18.2514 9.04759 18.2542ZM9.04759 1.20626C7.49464 1.20626 5.97657 1.67081 4.68534 2.54116C3.39411 3.41152 2.38772 4.64859 1.79343 6.09593C1.19915 7.54328 1.04365 9.1359 1.34662 10.6724C1.64958 12.2089 2.3974 13.6203 3.4955 14.728C4.5936 15.8358 5.99266 16.5901 7.51577 16.8958C9.03888 17.2014 10.6176 17.0445 12.0524 16.445C13.4871 15.8455 14.7134 14.8303 15.5762 13.5277C16.4389 12.2251 16.8994 10.6937 16.8994 9.12711C16.897 7.02713 16.0689 5.01388 14.597 3.52897C13.125 2.04406 11.1293 1.20874 9.04759 1.20626Z" transform="translate(19 19)" fill="white"/>
</svg>
