<svg xmlns="http://www.w3.org/2000/svg" viewBox="0 0 40.45443 40.45578"><path d="M20.22654,1.38237A18.84553,18.84553,0,1,0,39.07207,20.22789,18.86583,18.86583,0,0,0,20.22654,1.38237Z" style="fill:#26a9e1"/><path d="M20.22654,40.45578A20.22789,20.22789,0,1,1,40.45443,20.22789,20.25,20.25,0,0,1,20.22654,40.45578Zm0-39.07341A18.84553,18.84553,0,1,0,39.07207,20.22789,18.86583,18.86583,0,0,0,20.22654,1.38237Z" style="fill:#fff"/><circle cx="26.38691" cy="18.72917" r="4.54158" style="fill:#1eabe2"/><path d="M26.38674,23.59218A4.86305,4.86305,0,1,1,31.25,18.72934,4.86856,4.86856,0,0,1,26.38674,23.59218Zm0-9.08341a4.22036,4.22036,0,1,0,4.22057,4.22057A4.22526,4.22526,0,0,0,26.38674,14.50877Z" style="fill:#fff"/><circle cx="17.55476" cy="26.60348" r="4.54158" style="fill:#1eabe2"/><path d="M17.5548,31.46637a4.86284,4.86284,0,1,1,4.86284-4.86284A4.86856,4.86856,0,0,1,17.5548,31.46637Zm0-9.083A4.22015,4.22015,0,1,0,21.775,26.60353,4.22516,4.22516,0,0,0,17.5548,22.38338Z" style="fill:#fff"/><circle cx="15.15147" cy="15.01747" r="4.192" style="fill:#f39e21"/><path d="M15.15141,19.88041a4.86284,4.86284,0,1,1,4.86284-4.86284A4.86856,4.86856,0,0,1,15.15141,19.88041Zm0-9.083a4.22016,4.22016,0,1,0,4.22016,4.22016A4.22517,4.22517,0,0,0,15.15141,10.79741Z" style="fill:#fff"/></svg>