<svg xmlns="http://www.w3.org/2000/svg" viewBox="0 0 40.45443 40.45578"><path d="M20.22654,1.38237A18.84553,18.84553,0,1,0,39.07207,20.22789,18.86583,18.86583,0,0,0,20.22654,1.38237Z" style="fill:#26a9e1"/><path d="M20.22654,40.45578A20.22789,20.22789,0,1,1,40.45443,20.22789,20.25,20.25,0,0,1,20.22654,40.45578Zm0-39.07341A18.84553,18.84553,0,1,0,39.07207,20.22789,18.86583,18.86583,0,0,0,20.22654,1.38237Z" style="fill:#fff"/><path d="M15.69293,17.34064H18.1535a.74353.74353,0,0,1,.74353.74353v1.09924a.74359.74359,0,0,1-.74359.74359H15.69293a.74353.74353,0,0,1-.74353-.74353v-1.0993A.74353.74353,0,0,1,15.69293,17.34064Z" style="fill:#f69c2a;stroke:#fff;stroke-miterlimit:10;stroke-width:0.75px"/><path d="M4.871,17.34064h7.08881a.74353.74353,0,0,1,.74353.74353v1.09924a.74359.74359,0,0,1-.74359.74359H4.871a.74353.74353,0,0,1-.74353-.74353v-1.0993A.74353.74353,0,0,1,4.871,17.34064Z" style="fill:#f69c2a;stroke:#fff;stroke-miterlimit:10;stroke-width:0.75px"/><path d="M21.51025,17.34064h7.08881a.74353.74353,0,0,1,.74353.74353v1.09924a.74359.74359,0,0,1-.74359.74359H21.51025a.74353.74353,0,0,1-.74353-.74353v-1.0993A.74353.74353,0,0,1,21.51025,17.34064Z" style="fill:#f69c2a;stroke:#fff;stroke-miterlimit:10;stroke-width:0.75px"/><path d="M31.04413,18.08417v1.0993a.74573.74573,0,0,0,.74359.74353h7.08874a.71152.71152,0,0,0,.17853-.03625,18.83033,18.83033,0,0,0-.22778-2.55011H31.78772A.74573.74573,0,0,0,31.04413,18.08417Z" style="fill:#f69c2a;stroke:#fff;stroke-miterlimit:10;stroke-width:0.75px"/><path d="M1.68237,19.927a.74572.74572,0,0,0,.74353-.74353v-1.0993a.74572.74572,0,0,0-.74353-.74353H1.62726A18.83624,18.83624,0,0,0,1.39764,19.927Z" style="fill:#f69c2a;stroke:#fff;stroke-miterlimit:10;stroke-width:0.75px"/><path d="M5.28772,10.177h7.08874A.74573.74573,0,0,0,13.12,9.43347V8.33417a.74573.74573,0,0,0-.74354-.74353H6.28754A18.94476,18.94476,0,0,0,4.59967,9.707.74371.74371,0,0,0,5.28772,10.177Z" style="fill:#fff"/><path d="M22.277,22.37292h7.08875a.74353.74353,0,0,1,.74353.74353v1.0993a.74353.74353,0,0,1-.74353.74353H22.277a.74353.74353,0,0,1-.74353-.74353V23.11652A.74359.74359,0,0,1,22.277,22.37292Z" style="fill:#fff"/><path d="M6.18225,22.37292H8.64276a.74353.74353,0,0,1,.74353.74353v1.0993a.74353.74353,0,0,1-.74353.74353H6.18219a.74353.74353,0,0,1-.74353-.74353V23.11652A.74359.74359,0,0,1,6.18225,22.37292Z" style="fill:#fff"/><rect x="15.36609" y="7.59064" width="3.94757" height="2.58636" rx="0.74353" ry="0.74353" style="fill:#fff"/><path d="M35.15417,30.46594a.74574.74574,0,0,0-.74353-.74359H27.3219a.74574.74574,0,0,0-.74353.74359v1.09925a.74572.74572,0,0,0,.74353.74353h7.08874a.72094.72094,0,0,0,.3559-.10407c.12518-.15167.23328-.31714.35376-.47278a.7067.7067,0,0,0,.03387-.16668Z" style="fill:#fff"/><path d="M11.22711,29.72235h2.46057a.74353.74353,0,0,1,.74353.74353v1.09924a.74359.74359,0,0,1-.74359.74359H11.22717a.74359.74359,0,0,1-.74359-.74359V30.46588A.74353.74353,0,0,1,11.22711,29.72235Z" style="fill:#fff"/><path d="M17.04449,29.72235h7.08868a.74359.74359,0,0,1,.74359.74359v1.09924a.74353.74353,0,0,1-.74353.74353H17.04443a.74353.74353,0,0,1-.74353-.74353V30.46594A.74359.74359,0,0,1,17.04449,29.72235Z" style="fill:#fff"/><path d="M11.99963,22.37292h7.08875a.74353.74353,0,0,1,.74353.74353v1.0993a.74353.74353,0,0,1-.74353.74353H11.99957a.74353.74353,0,0,1-.74353-.74353V23.11652A.74359.74359,0,0,1,11.99963,22.37292Z" style="fill:#fff"/><path d="M33.09888,22.37292h2.46057a.74353.74353,0,0,1,.74353.74353V24.2157a.74359.74359,0,0,1-.74359.74359H33.09888a.74353.74353,0,0,1-.74353-.74353v-1.0993A.74353.74353,0,0,1,33.09888,22.37292Z" style="fill:#fff"/><path d="M3.19263,24.21576v-1.0993a.74573.74573,0,0,0-.74353-.74354H1.51367a18.67455,18.67455,0,0,0,.494,2.58637H2.4491A.74573.74573,0,0,0,3.19263,24.21576Z" style="fill:#fff"/><path d="M7.494,32.30872a.74574.74574,0,0,0,.74359-.74353V30.46594a.74576.74576,0,0,0-.74359-.74359H3.97552a18.9272,18.9272,0,0,0,1.80622,2.58637Z" style="fill:#fff"/></svg>