<svg width="30" height="30" viewBox="0 0 30 30" fill="none" xmlns="http://www.w3.org/2000/svg">
<circle cx="15" cy="15" r="14.5" fill="#1FAAE2" stroke="white"/>
<path d="M14.7164 15.5H13.7164C13.5784 15.5 13.4665 15.3881 13.4665 15.2501V11.2499C13.4665 11.1119 13.3546 11 13.2165 11H10.5366C10.4911 11.0016 10.4467 11.0135 10.4066 11.035L5.94667 13.8001C5.18748 14.2704 4.83226 15.1869 5.07624 16.0459C5.32 16.9051 6.10368 17.4983 6.99654 17.4999H11.2166C11.3546 17.4999 11.4665 17.6119 11.4665 17.7499V18.7498C11.4665 18.8881 11.5785 19 11.7165 19H13.2165C13.3546 19 13.4665 18.8881 13.4665 18.7498V17.7499C13.4665 17.6119 13.5784 17.4999 13.7164 17.4999H14.7164C14.8546 17.4999 14.9666 17.388 14.9666 17.25V15.7499C14.9666 15.6119 14.8546 15.5 14.7164 15.5ZM11.4665 15.5H7.46665L11.4665 12.9999V15.5Z" fill="white"/>
<path d="M16.4662 11H17.9663C18.2423 11 18.4661 11.2238 18.4661 11.5001V18.4999C18.4661 18.7762 18.2423 19 17.9663 19H16.4662C16.1902 19 15.9663 18.7762 15.9663 18.4999V11.5001C15.9663 11.2238 16.1902 11 16.4662 11Z" fill="#F49D1D"/>
<path d="M24.6242 11H23.1292C23.007 11.0002 22.8886 11.0451 22.7973 11.1266L18.8599 14.6266C18.7533 14.7213 18.6924 14.8573 18.6924 14.9999C18.6924 15.1427 18.7533 15.2787 18.8599 15.3734L22.7973 18.8734C22.8886 18.9549 23.007 18.9998 23.1292 19H25.0163C25.2287 19 25.418 18.8659 25.4883 18.6654C25.5585 18.4651 25.4947 18.2422 25.3287 18.1094L21.6708 15.185C21.6133 15.139 21.579 15.0699 21.5772 14.9962C21.5751 14.9228 21.6058 14.852 21.6607 14.803L24.9563 11.8736C25.1113 11.7356 25.1648 11.5164 25.0911 11.3225C25.0175 11.1284 24.8318 11.0002 24.6242 11Z" fill="#F49D1D"/>
</svg>
