<svg xmlns="http://www.w3.org/2000/svg" viewBox="0 0 40.45443 40.45578"><path d="M20.22654,1.38237A18.84553,18.84553,0,1,0,39.07207,20.22789,18.86583,18.86583,0,0,0,20.22654,1.38237Z" style="fill:#26a9e1"/><path d="M20.22654,40.45578A20.22789,20.22789,0,1,1,40.45443,20.22789,20.25,20.25,0,0,1,20.22654,40.45578Zm0-39.07341A18.84553,18.84553,0,1,0,39.07207,20.22789,18.86583,18.86583,0,0,0,20.22654,1.38237Z" style="fill:#fff"/><path d="M20.73733,21.07952h3.94373a.21283.21283,0,0,1,.21283.21283v5.14246a.21277.21277,0,0,1-.21277.21277H20.73726a.21277.21277,0,0,1-.21277-.21277V21.29235A.21283.21283,0,0,1,20.73733,21.07952Z" style="fill:#f69c2a"/><path d="M20.73726,27.46826h3.94379a.21283.21283,0,0,1,.21283.21283v5.1424a.21283.21283,0,0,1-.21283.21283H20.73726a.21277.21277,0,0,1-.21277-.21277V27.681A.21277.21277,0,0,1,20.73726,27.46826Z" style="fill:#f69c2a"/><path d="M24.89388,34.06976a.2128.2128,0,0,0-.21277-.21283H20.73733a.21281.21281,0,0,0-.21283.21283v5.021a18.76034,18.76034,0,0,0,4.36938-.58776Z" style="fill:#f69c2a"/><rect x="14.05904" y="9.96966" width="4.36938" height="5.56805" rx="0.50055" ry="0.50055" style="fill:#fff"/><rect x="7.59359" y="17.47485" width="4.36938" height="5.56805" rx="0.50055" ry="0.50055" style="fill:#fff"/><path d="M11.963,35.31976v-4.567a.50057.50057,0,0,0-.50055-.50055H8.09414a.50057.50057,0,0,0-.50055.50055V34.176a18.96036,18.96036,0,0,0,2.051,1.64435h1.81781A.50057.50057,0,0,0,11.963,35.31976Z" style="fill:#fff"/><path d="M11.963,37.14153a.50054.50054,0,0,0-.50055-.50055h-.48736c.32245.18342.654.35041.98791.515Z" style="fill:#fff"/><rect x="14.05904" y="16.35839" width="4.36938" height="5.56805" rx="0.50055" ry="0.50055" style="fill:#fff"/><rect x="7.59359" y="23.86358" width="4.36938" height="5.56805" rx="0.50055" ry="0.50055" style="fill:#fff"/><rect x="26.99001" y="15.94805" width="4.36932" height="5.56805" rx="0.50055" ry="0.50055" style="fill:#fff"/><path d="M14.55965,29.13574h3.36823a.50055.50055,0,0,1,.50055.50055v4.567a.50055.50055,0,0,1-.50055.50055H14.55959a.50055.50055,0,0,1-.50055-.50055V29.63635A.50061.50061,0,0,1,14.55965,29.13574Z" style="fill:#fff"/><rect x="26.99001" y="22.33672" width="4.36932" height="5.56805" rx="0.50055" ry="0.50055" style="fill:#fff"/><rect x="14.05904" y="22.74706" width="4.36938" height="5.56805" rx="0.50055" ry="0.50055" style="fill:#fff"/><rect x="26.99001" y="28.72546" width="4.36932" height="5.56805" rx="0.50055" ry="0.50055" style="fill:#fff"/><path d="M18.42843,36.025a.50057.50057,0,0,0-.50055-.50055H14.55959a.50057.50057,0,0,0-.50055.50055v2.01123a18.6583,18.6583,0,0,0,4.36939.97565Z" style="fill:#fff"/><path d="M30.85878,35.11413H27.49056a.50053.50053,0,0,0-.50055.50055V37.839a18.796,18.796,0,0,0,4.34076-2.36578A.49431.49431,0,0,0,30.85878,35.11413Z" style="fill:#fff"/><path d="M24.94973,27.1994H20.46865a.21279.21279,0,0,0-.21277.21276v5.68a.2128.2128,0,0,0,.21277.21277h4.48108a.2128.2128,0,0,0,.21277-.21277v-5.68A.21279.21279,0,0,0,24.94973,27.1994Zm-.32459,5.35534a.21281.21281,0,0,1-.21283.21283H21.00606a.21281.21281,0,0,1-.21283-.21283V27.94952a.21281.21281,0,0,1,.21283-.21277h3.40625a.2128.2128,0,0,1,.21283.21277Z" style="fill:#fff"/><path d="M20.79323,38.94335V34.33849a.21281.21281,0,0,1,.21283-.21282h3.40625a.21281.21281,0,0,1,.21283.21282v4.23383c.18042-.04309.359-.09027.53736-.13849V33.80108a.2128.2128,0,0,0-.21277-.21277H20.46865a.2128.2128,0,0,0-.21277.21277v5.30328c.19971,0,.39343-.02374.59161-.03A.20723.20723,0,0,1,20.79323,38.94335Z" style="fill:#fff"/><path d="M24.94973,20.81078H20.46865a.21281.21281,0,0,0-.21277.21283v5.67994a.21281.21281,0,0,0,.21277.21283h4.48108a.21281.21281,0,0,0,.21277-.21283V21.02361A.21281.21281,0,0,0,24.94973,20.81078Zm-.32459,5.35541a.2128.2128,0,0,1-.21283.21277H21.00606a.2128.2128,0,0,1-.21283-.21277V21.561a.21281.21281,0,0,1,.21283-.21283h3.40625a.21281.21281,0,0,1,.21283.21283Z" style="fill:#fff"/></svg>