<svg width="30" height="30" viewBox="0 0 30 30" fill="none" xmlns="http://www.w3.org/2000/svg">
<circle cx="15" cy="15" r="14.5" fill="#1FAAE2" stroke="white"/>
<rect x="5" y="8" width="20" height="15" rx="2" fill="white"/>
<path d="M9.19189 11.0524V16.6327C9.1919 16.861 9.28258 17.0799 9.44399 17.2413C9.6054 17.4027 9.82432 17.4934 10.0526 17.4934H11.1645C11.2045 17.4934 11.2438 17.5029 11.2794 17.521C11.315 17.5392 11.3457 17.5655 11.3691 17.5979C11.3925 17.6302 11.4079 17.6677 11.4141 17.7071C11.4202 17.7466 11.4169 17.7869 11.4044 17.8249L10.8129 19.6225C10.7961 19.6734 10.796 19.7283 10.8126 19.7793C10.8291 19.8303 10.8614 19.8747 10.9048 19.9061C10.9483 19.9375 11.0006 19.9543 11.0542 19.954C11.1077 19.9537 11.1599 19.9363 11.2029 19.9045L14.396 17.5429C14.4395 17.5107 14.4921 17.4934 14.5462 17.4934H19.9478C20.1761 17.4934 20.395 17.4027 20.5564 17.2413C20.7179 17.0799 20.8085 16.861 20.8085 16.6327V11.0524C20.8085 10.8241 20.7179 10.6052 20.5564 10.4438C20.395 10.2823 20.1761 10.1917 19.9478 10.1917H10.0526C9.93957 10.1917 9.82764 10.2139 9.72322 10.2572C9.61879 10.3004 9.52391 10.3638 9.44398 10.4437C9.36406 10.5237 9.30066 10.6186 9.25741 10.723C9.21415 10.8274 9.19189 10.9393 9.19189 11.0524Z" fill="#F49B2C"/>
<path d="M10.4423 20.135L11.1394 18.0166C11.1519 17.9787 11.1552 17.9383 11.1491 17.8989C11.143 17.8594 11.1275 17.822 11.1041 17.7896C11.0807 17.7573 11.05 17.7309 11.0144 17.7128C10.9788 17.6946 10.9395 17.6851 10.8996 17.6851H10.0525C9.91425 17.6851 9.77739 17.6579 9.6497 17.605C9.52201 17.5521 9.40599 17.4746 9.30826 17.3769C9.21053 17.2791 9.133 17.1631 9.08011 17.0354C9.02722 16.9077 9 16.7709 9 16.6327V11.0523C9 10.7732 9.11086 10.5055 9.3082 10.3082C9.50555 10.1109 9.7732 10 10.0523 10H19.9477C20.2268 10 20.4945 10.1109 20.6918 10.3082C20.8891 10.5055 21 10.7732 21 11.0523V16.6325C21 16.9117 20.8891 17.1794 20.6917 17.3768C20.4943 17.5742 20.2265 17.6851 19.9473 17.6851H14.6093C14.5553 17.6851 14.5026 17.7025 14.4592 17.7346L10.8323 20.417C10.7893 20.4488 10.7371 20.4662 10.6836 20.4665C10.63 20.4668 10.5777 20.45 10.5342 20.4186C10.4908 20.3872 10.4585 20.3428 10.442 20.2918C10.4254 20.2408 10.4255 20.1859 10.4423 20.135ZM10.0523 10.3834C9.87487 10.3834 9.70473 10.4539 9.57929 10.5793C9.45385 10.7048 9.38337 10.8749 9.38337 11.0523V16.6327C9.38337 16.8101 9.45386 16.9803 9.57934 17.1058C9.70481 17.2312 9.87499 17.3017 10.0524 17.3017H11.4293C11.4693 17.3017 11.5086 17.3112 11.5442 17.3294C11.5798 17.3475 11.6105 17.3739 11.6339 17.4062C11.6573 17.4386 11.6727 17.476 11.6789 17.5155C11.685 17.5549 11.6817 17.5953 11.6692 17.6332L11.1832 19.1099C11.1665 19.1608 11.1664 19.2157 11.1829 19.2667C11.1994 19.3177 11.2317 19.3621 11.2752 19.3935C11.3186 19.4249 11.3709 19.4417 11.4245 19.4414C11.4781 19.4411 11.5302 19.4238 11.5733 19.3919L14.3326 17.3513C14.3761 17.3191 14.4287 17.3018 14.4828 17.3018H19.9477C20.1251 17.3018 20.2953 17.2313 20.4207 17.1058C20.5461 16.9804 20.6166 16.8103 20.6166 16.6329V11.0523C20.6166 10.8749 20.5461 10.7047 20.4207 10.5793C20.2953 10.4539 20.1251 10.3834 19.9477 10.3834L10.0523 10.3834Z" fill="#1FAAE2"/>
<path d="M11.6879 12.1714H12.5856L13.7352 15.5865H12.9799L12.7186 14.7886H11.5216L11.27 15.5865H10.5146L11.6879 12.1714ZM11.6641 14.2375H12.5904L12.1155 12.7887L11.6641 14.2375Z" fill="white"/>
<path d="M14.1641 12.1713H15.4085C15.6215 12.1506 15.8365 12.1777 16.0378 12.2506C16.239 12.3236 16.4214 12.4406 16.5717 12.5931C16.7219 12.7456 16.8362 12.9297 16.9061 13.132C16.9761 13.3344 16.9999 13.5497 16.976 13.7625C16.976 15.0782 16.3158 15.5864 15.1567 15.5864H14.1641V12.1713ZM15.2186 15.0307C15.7268 15.0307 16.216 14.8075 16.216 13.8193C16.216 12.7461 15.6318 12.7221 15.1045 12.7221H14.9003V15.0307H15.2186Z" fill="white"/>
<path d="M17.3291 14.8643H17.3528C17.6305 14.9853 17.9288 15.0515 18.2316 15.0593C18.5593 15.0593 18.7873 14.9405 18.7873 14.6458C18.7873 13.9856 17.3149 14.3085 17.3149 13.1166C17.3159 12.971 17.3479 12.8274 17.409 12.6953C17.4701 12.5632 17.5587 12.4457 17.6689 12.3508C17.7792 12.2558 17.9085 12.1855 18.0482 12.1447C18.1879 12.1039 18.3347 12.0934 18.4787 12.1141C18.7542 12.1132 19.0276 12.1616 19.2861 12.2568L19.3288 12.8408H19.3099C19.0685 12.748 18.8132 12.6967 18.5547 12.6888C18.1794 12.6888 18.0084 12.8218 18.0084 13.0593C18.0084 13.6816 19.4856 13.3919 19.4856 14.5746C19.4885 14.7274 19.4582 14.879 19.397 15.019C19.3357 15.159 19.2448 15.284 19.1306 15.3855C19.0164 15.4871 18.8816 15.5627 18.7354 15.6072C18.5893 15.6517 18.4352 15.664 18.2838 15.6433C17.9718 15.6454 17.6628 15.5823 17.3766 15.458L17.3291 14.8643Z" fill="white"/>
<circle cx="7.5" cy="21.5" r="0.5" fill="#1FAAE2"/>
<line x1="9.5" y1="21.5" x2="22.5" y2="21.5" stroke="#1FAAE2" stroke-linecap="round"/>
<line x1="15.5" y1="21.5" x2="18.5" y2="21.5" stroke="#F49D1D" stroke-linecap="round"/>
<circle cx="15.5" cy="21.5" r="0.5" fill="white"/>
</svg>
