<svg xmlns="http://www.w3.org/2000/svg" viewBox="0 0 40.45443 40.45578"><path d="M20.22654,1.38237A18.84553,18.84553,0,1,0,39.07207,20.22789,18.86583,18.86583,0,0,0,20.22654,1.38237Z" style="fill:#26a9e1"/><path d="M20.22654,40.45578A20.22789,20.22789,0,1,1,40.45443,20.22789,20.25,20.25,0,0,1,20.22654,40.45578Zm0-39.07341A18.84553,18.84553,0,1,0,39.07207,20.22789,18.86583,18.86583,0,0,0,20.22654,1.38237Z" style="fill:#fff"/><rect x="21.37072" y="11.28072" width="13.04419" height="10.23607" rx="0.27534" ry="0.27534" style="fill:#f69c2a;stroke:#fff;stroke-miterlimit:10"/><path d="M26.74384,18.10529V14.69472a.25842.25842,0,0,1,.40827-.21054l2.396,1.70529a.25842.25842,0,0,1,0,.42108l-2.396,1.70528A.25842.25842,0,0,1,26.74384,18.10529Z" style="fill:#fff"/><path d="M5.97774,19.4313H8.81312A3.48313,3.48313,0,0,1,10.012,19.621a2.05986,2.05986,0,0,1,.83547.53811,2.29727,2.29727,0,0,1,.47432.80607,3.12127,3.12127,0,0,1,.15811,1.02242,2.79646,2.79646,0,0,1-.20027,1.0962,1.99348,1.99348,0,0,1-.572.78,2.48626,2.48626,0,0,1-.8854.45823,4.02517,4.02517,0,0,1-1.15168.15311H7.47448v2.62457H5.97774Zm2.50308,3.70024a1.58164,1.58164,0,0,0,1.06236-.31621,1.07721,1.07721,0,0,0,.36614-.85932,1.09277,1.09277,0,0,0-.3556-.85932,1.47031,1.47031,0,0,0-1.00966-.31622H7.47448v2.35107Z" style="fill:#fff"/><path d="M12.299,20.9702a.85082.85082,0,0,1-.43494-.74781.8231.8231,0,0,1,.25575-.60636.88069.88069,0,0,1,1.23545,0,.84621.84621,0,0,1,0,1.2177.84919.84919,0,0,1-.61634.253A.86842.86842,0,0,1,12.299,20.9702Zm-.26629.85932h1.41242v5.27022H12.03275Z" style="fill:#fff"/><path d="M14.27888,19.4313h2.83538a3.48313,3.48313,0,0,1,1.19883.18973,2.05986,2.05986,0,0,1,.83547.53811,2.29712,2.29712,0,0,1,.47432.80607,3.12127,3.12127,0,0,1,.15811,1.02242,2.79628,2.79628,0,0,1-.20027,1.0962,1.99348,1.99348,0,0,1-.572.78,2.4863,2.4863,0,0,1-.88539.45823,4.024,4.024,0,0,1-1.15113.15311H15.77562v2.62457H14.27888Zm2.50363,3.70024a1.58006,1.58006,0,0,0,1.06181-.31621,1.07718,1.07718,0,0,0,.36614-.85932,1.09277,1.09277,0,0,0-.3556-.85932,1.46973,1.46973,0,0,0-1.00911-.31622H15.77562v2.35107Z" style="fill:#fff"/></svg>