<svg width="30" height="30" viewBox="0 0 30 30" fill="none" xmlns="http://www.w3.org/2000/svg">
<circle cx="15" cy="15" r="14.5" fill="#1FAAE2" stroke="white"/>
<path d="M18.9844 13.0667C18.7712 9.82187 16.1781 7.22793 12.9333 7.01473V7H12.5H12.0667V7.01473C8.82187 7.22793 6.22793 9.82187 6.01473 13.0667H6V13.5V13.9333H6.01473C6.22793 17.1781 8.82187 19.7712 12.0667 19.9844V20H12.5H12.9333V19.9844C16.1781 19.7712 18.7712 17.1781 18.9844 13.9333H19V13.5V13.0667H18.9844ZM10.069 8.417C9.6504 8.9734 9.30287 9.67107 9.0498 10.4667H7.75153C8.3166 9.58527 9.11913 8.872 10.069 8.417ZM7.29827 11.3333H8.82187C8.70573 11.8811 8.63207 12.4626 8.60867 13.0667H6.88313C6.92907 12.4565 7.07293 11.8733 7.29827 11.3333ZM6.88313 13.9333H8.60867C8.63207 14.5374 8.70573 15.1189 8.82187 15.6667H7.29827C7.07293 15.1267 6.92907 14.5435 6.88313 13.9333ZM7.75153 16.5333H9.04893C9.302 17.3289 9.64953 18.0266 10.069 18.583C9.11913 18.128 8.3166 17.4156 7.75153 16.5333ZM12.0667 19.0779C11.1757 18.8395 10.4087 17.8827 9.94333 16.5333H12.0667V19.0779ZM12.0667 15.6667H9.6998C9.5776 15.1267 9.50047 14.5435 9.47533 13.9333H12.0667V15.6667ZM12.0667 13.0667H9.47533C9.50047 12.4565 9.5776 11.8733 9.6998 11.3333H12.0667V13.0667ZM12.0667 10.4667H9.94333C10.4087 9.11727 11.1757 8.16047 12.0667 7.923V10.4667ZM17.2485 10.4667H15.9519C15.698 9.67107 15.3513 8.9734 14.931 8.417C15.88 8.872 16.6834 9.58527 17.2485 10.4667ZM12.9333 7.923C13.8234 8.16047 14.5913 9.11727 15.0567 10.4667H12.9333V7.923ZM12.9333 11.3333H15.2993C15.4224 11.8733 15.4978 12.4565 15.5247 13.0667H12.9333V11.3333ZM12.9333 13.9333H15.5247C15.4995 14.5435 15.4224 15.1267 15.2993 15.6667H12.9333V13.9333ZM12.9333 19.0779V16.5333H15.0567C14.5913 17.8827 13.8234 18.8395 12.9333 19.0779ZM14.931 18.583C15.3496 18.0257 15.698 17.3289 15.9519 16.5333H17.2485C16.6834 17.4156 15.88 18.128 14.931 18.583ZM17.7017 15.6667H16.1781C16.2943 15.1189 16.3679 14.5374 16.3913 13.9333H18.116C18.0709 14.5435 17.9271 15.1267 17.7017 15.6667ZM16.3913 13.0667C16.3679 12.4626 16.2943 11.8811 16.1781 11.3333H17.7017C17.9271 11.8733 18.0709 12.4565 18.1169 13.0667H16.3913Z" fill="white"/>
<path d="M17.3537 23.8131L17.3537 23.8131L17.3537 23.8131ZM17.3537 23.8131L13.4531 21.4402C13.3227 21.3609 13.1729 21.3189 13.0203 21.3189H12.0901C11.6302 21.3189 11.2573 20.946 11.2573 20.4861V17.4679C11.2573 17.0093 11.6281 16.637 12.0868 16.6351L12.8893 16.6319C13.036 16.6313 13.1799 16.592 13.3065 16.518L17.3609 14.146C17.5889 14.008 17.8647 13.9651 18.1323 14.029M17.3537 23.8131L17.3558 23.8144L17.3599 23.8169C17.4891 23.8929 17.6365 23.9415 17.787 23.9562C17.821 23.9598 17.8554 23.9613 17.8889 23.9613C18.1266 23.9613 18.3546 23.8806 18.5398 23.7283C18.7523 23.555 18.884 23.3097 18.9134 22.9882L18.1323 14.029M18.1323 14.029C18.3998 14.0934 18.6257 14.2574 18.7688 14.4905C18.8861 14.6812 18.9365 14.906 18.9134 15.1284L18.1323 14.029ZM18.2493 13.5429L18.2484 13.5426C17.8567 13.4491 17.4473 13.5105 17.1055 13.7162L13.054 16.0864C13.0034 16.116 12.9459 16.1317 12.8873 16.1319L12.0848 16.1351C11.3508 16.1381 10.7573 16.7339 10.7573 17.4679V20.4861C10.7573 21.2222 11.354 21.8189 12.0901 21.8189H13.0203C13.0813 21.8189 13.1411 21.8357 13.1932 21.8674L13.4419 21.4587L13.1932 21.8674L17.0875 24.2364L17.0874 24.2365L17.0986 24.2432L17.1028 24.2457L17.1028 24.2457L17.1065 24.2479C17.2968 24.3598 17.5133 24.4315 17.7364 24.4537C17.7896 24.4592 17.8412 24.4613 17.8889 24.4613C18.241 24.4613 18.5807 24.3413 18.8557 24.1158C19.1807 23.8508 19.3708 23.4779 19.4113 23.0336L19.4134 23.0109V22.9882V15.1518C19.4408 14.8303 19.3653 14.506 19.1948 14.2288C18.9822 13.8825 18.645 13.6381 18.2493 13.5429ZM17.3556 15.9158L17.3906 15.8953L17.3882 22.0506L17.3463 22.0251C17.3463 21.6831 17.3454 21.1494 17.3453 21.1217C17.3453 21.1213 17.3453 21.121 17.3453 21.1208L17.3556 15.9158Z" fill="white" stroke="#1FAAE2"/>
<path fill-rule="evenodd" clip-rule="evenodd" d="M18.7688 14.4905C18.6257 14.2574 18.3998 14.0934 18.1323 14.029C17.8647 13.9651 17.5889 14.008 17.3609 14.146L13.3065 16.518C13.1799 16.592 13.036 16.6313 12.8893 16.6319L12.0868 16.6351C11.6281 16.637 11.2573 17.0093 11.2573 17.4679V20.4861C11.2573 20.946 11.6302 21.3189 12.0901 21.3189H13.0203C13.1729 21.3189 13.3227 21.3609 13.4531 21.4402L17.3537 23.8131L17.3558 23.8144L17.3599 23.8169C17.4891 23.8929 17.6365 23.9415 17.787 23.9562C17.821 23.9598 17.8554 23.9613 17.8889 23.9613C18.1266 23.9613 18.3546 23.8806 18.5398 23.7283C18.7523 23.555 18.884 23.3097 18.9134 22.9882V15.1284C18.9365 14.906 18.8861 14.6812 18.7688 14.4905ZM17.6349 22.7858L16.9364 22.3611C16.8809 22.3274 16.8459 22.2646 16.8461 22.1996C16.8467 21.9119 16.8454 21.1387 16.8453 21.1217L16.856 15.724C16.8561 15.6649 16.8875 15.6104 16.9384 15.5805L17.6402 15.1702C17.7513 15.1052 17.8909 15.1853 17.8908 15.314L17.888 22.6435C17.8879 22.7734 17.7459 22.8532 17.6349 22.7858Z" fill="white"/>
<path d="M13.608 20.2568L15.5321 21.4319C15.6986 21.5336 15.9122 21.4137 15.9122 21.2187V16.6389C15.9122 16.4459 15.7027 16.3258 15.5362 16.4232L13.6007 17.5556C13.5938 17.5597 13.5868 17.5635 13.5797 17.5672C13.4573 17.631 13.3394 17.738 13.3394 17.876V19.9324C13.3394 20.0703 13.4573 20.1773 13.5797 20.241C13.5893 20.246 13.5987 20.2512 13.608 20.2568Z" fill="#F69C2A"/>
<path fill-rule="evenodd" clip-rule="evenodd" d="M20.4182 21.4949C20.2269 21.3673 20.1773 21.1096 20.2848 20.9063C20.9161 19.7125 20.9161 18.2806 20.2848 17.0868C20.1773 16.8835 20.2269 16.6257 20.4182 16.4981V16.4981C20.6096 16.3706 20.8699 16.4216 20.9808 16.623C21.7945 18.0995 21.7945 19.8935 20.9808 21.37C20.8699 21.5714 20.6096 21.6225 20.4182 21.4949V21.4949Z" fill="#F69C2A"/>
<path fill-rule="evenodd" clip-rule="evenodd" d="M22.6203 17.2957L21.8517 15.3741C21.7663 15.1606 21.8701 14.9183 22.0836 14.8329V14.8329C22.2972 14.7475 22.5395 14.8513 22.6249 15.0648L23.3935 16.9864C23.9098 18.277 23.9098 19.7167 23.3935 21.0072L22.6249 22.9288C22.5395 23.1424 22.2972 23.2462 22.0836 23.1608V23.1608C21.8701 23.0754 21.7663 22.8331 21.8517 22.6196L22.6203 20.698C23.0571 19.6059 23.0571 18.3877 22.6203 17.2957Z" fill="white"/>
</svg>
