<svg xmlns="http://www.w3.org/2000/svg" viewBox="0 0 40.45443 40.45578"><path d="M20.22722,1.38239l.00067-.00007a18.84556,18.84556,0,0,1,0,37.69111l-.00067-.00007Z" style="fill:#26a9e1"/><path d="M20.22719,1.38239l-.00067-.00007a18.84556,18.84556,0,0,0,0,37.69111l.00067-.00007Z" style="fill:#26a9e1"/><path d="M20.22654,40.45578A20.22789,20.22789,0,1,1,40.45443,20.22789,20.25,20.25,0,0,1,20.22654,40.45578Zm0-39.07341A18.84553,18.84553,0,1,0,39.07207,20.22789,18.86583,18.86583,0,0,0,20.22654,1.38237Z" style="fill:#fff"/><path d="M28.3022,13.93239a8.5685,8.5685,0,0,0-1.43384.1224c-1.26976.22433-1.50029.69386-1.50029,1.55975v1.14358h3.00058v.38119H24.242a1.8735,1.8735,0,0,0-1.87449,1.52127,5.60871,5.60871,0,0,0,0,3.04955c.2133.88832.72267,1.52127,1.59472,1.52127h1.03167V21.86051a1.90682,1.90682,0,0,1,1.87449-1.864h2.99708a1.51174,1.51174,0,0,0,1.5003-1.52477v-2.8572a1.675,1.675,0,0,0-1.5003-1.55975A9.35962,9.35962,0,0,0,28.3022,13.93239Zm-1.62269.91976a.57186.57186,0,1,1-.56305.57354A.56932.56932,0,0,1,26.67951,14.85215Z" style="fill:#fff"/><path d="M31.73993,17.13931v1.33243a1.92451,1.92451,0,0,1-1.87449,1.90246H26.86836A1.53068,1.53068,0,0,0,25.36807,21.899v2.8572c0,.81318.70711,1.29148,1.50029,1.52477a5.02008,5.02008,0,0,0,2.99708,0c.75541-.21871,1.5003-.65888,1.5003-1.52477V23.61259H28.36865V23.2314H32.866c.872,0,1.197-.60827,1.50029-1.52127a5.14957,5.14957,0,0,0,0-3.04955c-.21552-.86813-.62713-1.52127-1.50029-1.52127ZM30.05429,24.375a.57186.57186,0,1,1-.563.57A.5663.5663,0,0,1,30.05429,24.375Z" style="fill:#fff"/><path d="M8.23839,26.4375l-1.97826-.70974V22.82817l1.97826.67406V26.4375" style="fill:#f69c2a"/><path d="M8.60119,26.4375l1.97826-.70974V22.82817l-1.97826.67406V26.4375" style="fill:#f69c2a"/><path d="M6.4634,22.61135l2.00219-.56359,1.85647.59858-1.85647.63023L6.4634,22.61135" style="fill:#f69c2a"/><path d="M5.88317,22.38672l-1.97826-.70965V18.77739l1.97826.674v2.93536" style="fill:#f69c2a"/><path d="M6.246,22.38672l1.97834-.70965V18.77739l-1.97834.674v2.93536" style="fill:#f69c2a"/><path d="M4.10819,18.56039l2.00227-.5635,1.85647.59858-1.85647.63032-2.00227-.6654" style="fill:#f69c2a"/><path d="M10.49926,22.38672l-1.97835-.70965V18.77739l1.97835.674v2.93536" style="fill:#f69c2a"/><path d="M10.86206,22.38672l1.97835-.70965V18.77739l-1.97835.674v2.93536" style="fill:#f69c2a"/><path d="M8.72436,18.56039l2.0021-.5635,1.85647.59858-1.85647.63032-2.0021-.6654" style="fill:#f69c2a"/><path d="M12.85447,18.33577l-1.97834-.70949V14.72661l1.97834.67388v2.93528" style="fill:#f69c2a"/><path d="M13.21728,18.33577l1.97834-.70949V14.72661l-1.97834.67388v2.93528" style="fill:#f69c2a"/><path d="M11.07949,14.50961l2.00219-.56359,1.85647.59859-1.85647.63031-2.00219-.66531" style="fill:#f69c2a"/><path d="M17.47056,18.33577l-1.97835-.70949V14.72661l1.97835.67388v2.93528" style="fill:#f69c2a"/><path d="M17.83336,18.33577l1.97835-.70949V14.72661l-1.97835.67388v2.93528" style="fill:#f69c2a"/><path d="M15.69557,14.50961l2.00219-.56359,1.85638.59859-1.85638.63031-2.00219-.66531" style="fill:#f69c2a"/></svg>