<svg viewBox="0 0 75 75" fill="none" xmlns="http://www.w3.org/2000/svg">
<path d="M34.9328 7.01992e-08C28.0238 7.01991e-08 21.2699 2.04877 15.5252 5.88724C9.78053 9.72571 5.3031 15.1815 2.65912 21.5646C0.015136 27.9478 -0.676651 34.9716 0.67124 41.7479C2.01913 48.5242 5.34616 54.7486 10.2316 59.6341C15.117 64.5195 21.3415 67.8465 28.1178 69.1944C34.8941 70.5423 41.9179 69.8505 48.3011 67.2066C54.6842 64.5626 60.14 60.0851 63.9784 54.3405C67.8169 48.5958 69.8657 41.8419 69.8657 34.9328C69.8557 25.6711 66.1721 16.7916 59.6231 10.2426C53.0741 3.69358 44.1945 0.00996907 34.9328 7.01992e-08Z" transform="translate(2.56689 2.56714)" fill="#1FAAE2"/>
<path d="M41.3358 74.8033C33.6318 75.5955 25.8714 73.9829 19.1208 70.1872C12.3701 66.3914 6.96021 60.5987 3.63423 53.6046C0.308251 46.6105 -0.770668 38.7582 0.54567 31.1262C1.86201 23.4943 5.50903 16.4571 10.9858 10.9813C16.4625 5.50543 23.5004 1.85962 31.1325 0.544581C38.7647 -0.770453 46.6168 0.309809 53.6104 3.63698C60.6039 6.96415 66.3957 12.375 70.1903 19.1264C73.9849 25.8777 75.5961 33.6383 74.8026 41.3422C73.9128 49.9137 70.1008 57.9181 64.0067 64.0112C57.9126 70.1043 49.9075 73.9149 41.3358 74.8033ZM41.0845 2.74711C33.9071 2.00679 26.6766 3.50689 20.3861 7.04135C14.0955 10.5758 9.05366 15.9712 5.95297 22.4865C2.85229 29.0018 1.84491 36.3173 3.06922 43.4281C4.29352 50.5389 7.68945 57.0963 12.7905 62.1994C17.8916 67.3026 24.4476 70.7011 31.5579 71.9283C38.6683 73.1555 45.9842 72.151 52.5007 69.053C59.0172 65.9549 64.4147 60.9152 67.9517 54.6261C71.4887 48.337 72.9917 41.1071 72.2542 33.9294C71.4274 25.9437 67.8781 18.4856 62.2023 12.8075C56.5265 7.12945 49.0699 3.57715 41.0845 2.74711Z" fill="white"/>
<path d="M19.5967 0H0V26.2715H19.5967V0Z" transform="matrix(0.986067 -0.166358 0.171296 0.985221 19.6417 22.8917)" fill="#F29C1F"/>
<path d="M4.68788 30.4061L0 3.44353L20.4191 0L25.1077 26.9626L4.68788 30.4061ZM1.28397 4.339L5.59549 29.1428L23.8237 26.0671L19.5115 1.2633L1.28397 4.339Z" transform="translate(19 19)" fill="white"/>
<path d="M19.6046 0H0V26.2606H19.6046V0Z" transform="matrix(0.999401 -0.0346178 0.0356748 0.999363 27.6676 23.7437)" fill="#1BA9E1"/>
<path d="M0.975652 28.0549L0 0.717235L20.7043 0L21.6799 27.3376L0.975652 28.0549ZM1.15007 1.77242L2.04828 26.9227L20.5298 26.2824L19.6316 1.13218L1.15007 1.77242Z" transform="translate(27.0925 22.4993)" fill="white"/>
<path d="M19.6021 0H0V26.264H19.6021V0Z" transform="matrix(0.995182 0.0980467 -0.101014 0.994885 35.8839 26.3496)" fill="#1BA9E1"/>
<path d="M20.6145 29.2498L0 27.2193L2.7641 0L23.3779 2.03052L20.6145 29.2498ZM1.21739 26.2383L19.6186 28.052L22.1605 3.01158L3.76 1.19781L1.21739 26.2383Z" transform="translate(32.6221 25.7502)" fill="white"/>
</svg>
