<svg width="30" height="30" viewBox="0 0 30 30" fill="none" xmlns="http://www.w3.org/2000/svg">
<circle cx="15" cy="15" r="14.5" fill="#1FAAE2" stroke="white"/>
<path fill-rule="evenodd" clip-rule="evenodd" d="M16.0196 9.589C15.8478 9.30914 15.5766 9.11215 15.2553 9.0348C14.934 8.95808 14.6028 9.00964 14.3291 9.17534L9.46059 12.0235C9.30857 12.1124 9.13576 12.1596 8.95964 12.1604L7.99599 12.1642C7.44527 12.1664 7 12.6135 7 13.1642V16.7884C7 17.3406 7.44772 17.7884 8 17.7884H9.11691C9.30022 17.7884 9.48001 17.8387 9.63663 17.934L14.3204 20.7833L14.3229 20.7849L14.3279 20.7879C14.483 20.8791 14.66 20.9375 14.8407 20.9552C14.8814 20.9595 14.9228 20.9613 14.963 20.9613C15.2485 20.9613 15.5222 20.8644 15.7446 20.6815C15.9998 20.4734 16.158 20.1788 16.1932 19.7928V10.3549C16.221 10.088 16.1605 9.81792 16.0196 9.589ZM14.658 19.5497L13.8193 19.0398C13.7527 18.9993 13.7107 18.9239 13.7108 18.8459C13.7116 18.5005 13.71 17.5719 13.71 17.5516L13.7227 11.0701C13.7228 10.9992 13.7605 10.9337 13.8217 10.8979L14.6644 10.4051C14.7978 10.3271 14.9654 10.4233 14.9654 10.5778L14.9619 19.3789C14.9619 19.5348 14.7913 19.6307 14.658 19.5497Z" fill="white"/>
<path d="M9.82254 16.5129L12.133 17.9239C12.3329 18.046 12.5894 17.9022 12.5894 17.6679V12.1686C12.5894 11.9369 12.3379 11.7927 12.1379 11.9097L9.81388 13.2694C9.80554 13.2743 9.79711 13.2789 9.78858 13.2833C9.64162 13.3599 9.5 13.4884 9.5 13.6541V16.1233C9.5 16.289 9.64162 16.4175 9.78862 16.4939C9.8001 16.4999 9.81142 16.5062 9.82254 16.5129Z" fill="#F69C2A"/>
<path fill-rule="evenodd" clip-rule="evenodd" d="M17.9997 17.9999C17.7699 17.8467 17.7104 17.5372 17.8395 17.2931C18.5975 15.8596 18.5975 14.1402 17.8395 12.7067C17.7104 12.4626 17.7699 12.1531 17.9997 11.9999V11.9999C18.2294 11.8467 18.542 11.908 18.6753 12.1499C19.6522 13.9228 19.6522 16.077 18.6753 17.85C18.542 18.0918 18.2294 18.1531 17.9997 17.9999V17.9999Z" fill="#F69C2A"/>
<path fill-rule="evenodd" clip-rule="evenodd" d="M20.6444 12.9574L19.7214 10.6499C19.6189 10.3935 19.7436 10.1026 20 10V10C20.2564 9.89745 20.5474 10.0222 20.6499 10.2785L21.5729 12.586C22.1928 14.1356 22.1928 15.8644 21.5729 17.414L20.6499 19.7215C20.5474 19.9779 20.2564 20.1026 20 20V20C19.7436 19.8975 19.6189 19.6065 19.7214 19.3501L20.6444 17.0427C21.1689 15.7314 21.1689 14.2686 20.6444 12.9574Z" fill="white"/>
</svg>
