<svg xmlns="http://www.w3.org/2000/svg" viewBox="0 0 40.45443 40.45578"><path d="M20.22654,1.38237A18.84553,18.84553,0,1,0,39.07207,20.22789,18.86583,18.86583,0,0,0,20.22654,1.38237Z" style="fill:#26a9e1"/><path d="M20.22654,40.45578A20.22789,20.22789,0,1,1,40.45443,20.22789,20.25,20.25,0,0,1,20.22654,40.45578Zm0-39.07341A18.84553,18.84553,0,1,0,39.07207,20.22789,18.86583,18.86583,0,0,0,20.22654,1.38237Z" style="fill:#fff"/><path d="M25.6117,19.4169,17.63652,14.104a.97445.97445,0,0,0-1.5147.811V25.54074a.97445.97445,0,0,0,1.5147.811l7.97518-5.31286A.97445.97445,0,0,0,25.6117,19.4169Z" style="fill:#f19c23"/><path d="M26.34489,19.28223l-8.97558-5.979a1.13622,1.13622,0,0,0-1.76612.94532V26.207a1.13584,1.13584,0,0,0,1.76612.94531l8.97558-5.979a1.136,1.136,0,0,0,0-1.89111Zm-.53076.9458a.09585.09585,0,0,1-.04443.08252l-8.9751,5.979a.09294.09294,0,0,1-.10156.00488.09407.09407,0,0,1-.05274-.0874V14.24854a.09391.09391,0,0,1,.05469-.08838.10158.10158,0,0,1,.04639-.01172.09479.09479,0,0,1,.05322.01758l8.97461,5.979A.09706.09706,0,0,1,25.81413,20.228Z" style="fill:#fff"/></svg>