<svg xmlns="http://www.w3.org/2000/svg" viewBox="0 0 40.45443 40.45578"><path d="M20.22654,1.38237A18.84553,18.84553,0,1,0,39.07207,20.22789,18.86583,18.86583,0,0,0,20.22654,1.38237Z" style="fill:#26a9e1"/><path d="M20.22654,40.45578A20.22789,20.22789,0,1,1,40.45443,20.22789,20.25,20.25,0,0,1,20.22654,40.45578Zm0-39.07341A18.84553,18.84553,0,1,0,39.07207,20.22789,18.86583,18.86583,0,0,0,20.22654,1.38237Z" style="fill:#fff"/><path d="M38.72917,16.70007a18.66219,18.66219,0,0,0-1.29132-4.114L26.18876,10.38135v9.38336l12.28906,5.0741c.0907-.35865.18158-.71662.25135-1.08313Z" style="fill:#20a8e1;stroke:#fff;stroke-miterlimit:10;stroke-width:0.75px"/><polygon points="34.965 26.675 21.797 21.238 21.797 11.385 34.965 13.966 34.965 26.675" style="fill:#20a8e1;stroke:#fff;stroke-miterlimit:10;stroke-width:0.75px"/><polygon points="30.906 28.688 17.08 22.979 17.08 12.634 30.906 15.344 30.906 28.688" style="fill:#20a8e1;stroke:#fff;stroke-miterlimit:10;stroke-width:0.75px"/><polygon points="26.38 22.837 11.8 17.585 11.8 6.722 26.38 8.825 26.38 22.837" style="fill:#f49b2c;stroke:#fff;stroke-miterlimit:10;stroke-width:0.75px"/><polygon points="23.021 32.335 7.778 26.041 7.778 14.635 23.021 17.623 23.021 32.335" style="fill:#20a8e1;stroke:#fff;stroke-miterlimit:10;stroke-width:0.75px"/><path d="M17.73033,18.78729l-15.774-3.09155c-.0827.333-.16638.66473-.231,1.00433v7.05561a18.65483,18.65483,0,0,0,1.46588,4.47577l14.53919,6.00317Z" style="fill:#20a8e1;stroke:#fff;stroke-miterlimit:10;stroke-width:0.75px"/></svg>