<svg viewBox="0 0 75 75" fill="none" xmlns="http://www.w3.org/2000/svg">
<path d="M34.9328 7.01992e-08C28.0238 7.01992e-08 21.2699 2.04877 15.5252 5.88724C9.78053 9.72571 5.3031 15.1815 2.65912 21.5646C0.015136 27.9478 -0.676651 34.9716 0.67124 41.7479C2.01913 48.5242 5.34616 54.7486 10.2316 59.6341C15.117 64.5195 21.3415 67.8465 28.1178 69.1944C34.8941 70.5423 41.9179 69.8505 48.3011 67.2066C54.6842 64.5626 60.14 60.0851 63.9784 54.3405C67.8169 48.5958 69.8657 41.8419 69.8657 34.9328C69.8557 25.6711 66.1721 16.7916 59.6231 10.2426C53.0741 3.69358 44.1945 0.00996907 34.9328 7.01992e-08V7.01992e-08Z" transform="translate(2.56686 2.56714)" fill="#1FAAE2"/>
<path d="M41.3358 74.8033C33.6318 75.5955 25.8714 73.9829 19.1208 70.1872C12.3701 66.3914 6.96021 60.5987 3.63423 53.6046C0.308251 46.6105 -0.770668 38.7582 0.54567 31.1262C1.86201 23.4943 5.50903 16.4571 10.9858 10.9813C16.4625 5.50544 23.5004 1.85962 31.1325 0.544581C38.7647 -0.770453 46.6168 0.309809 53.6104 3.63698C60.6039 6.96415 66.3957 12.375 70.1903 19.1264C73.9849 25.8777 75.5961 33.6383 74.8026 41.3422C73.9128 49.9137 70.1008 57.9181 64.0067 64.0112C57.9126 70.1043 49.9075 73.9149 41.3358 74.8033V74.8033ZM41.0845 2.74711C33.9071 2.00679 26.6766 3.50689 20.3861 7.04135C14.0955 10.5758 9.05366 15.9712 5.95297 22.4865C2.85229 29.0018 1.84491 36.3173 3.06922 43.4281C4.29352 50.5389 7.68945 57.0963 12.7905 62.1994C17.8916 67.3026 24.4476 70.7011 31.5579 71.9283C38.6683 73.1555 45.9842 72.151 52.5007 69.053C59.0172 65.9549 64.4147 60.9152 67.9517 54.6261C71.4887 48.337 72.9917 41.1071 72.2542 33.9294C71.4274 25.9437 67.8781 18.4856 62.2023 12.8075C56.5265 7.12945 49.0699 3.57715 41.0845 2.74711V2.74711Z" fill="white"/>
<path d="M42.6176 0H0V20.7881H42.6176V0Z" transform="translate(16.3693 35.9553)" fill="#F69C2A"/>
<path d="M44.8243 38.4869H5.52746e-07V3.71703e-07H44.8243V38.4869ZM1.85388 36.633H42.9704V1.85388H1.85388V36.633Z" transform="translate(15.0889 18.2566)" fill="white"/>
<path d="M7.67427 -1.25372e-06H10.3843V12.6543H7.67427V7.53241H2.72863V12.6543H-5.65759e-10V-1.25372e-06H2.72863V5.17352H7.67427V-1.25372e-06Z" transform="translate(21.0443 39.0569)" fill="white"/>
<path d="M1.37819e-06 -1.25372e-06H2.72863V10.4545H7.81472V12.6543H1.37819e-06V-1.25372e-06Z" transform="translate(35.9412 39.0569)" fill="white"/>
<path d="M0.0530196 10.2289H0.140433C1.16911 10.6772 2.27471 10.9224 3.39645 10.9512C4.61172 10.9512 5.45583 10.5112 5.45583 9.41919C5.45583 6.97289 1.03873e-06 8.16953 1.03873e-06 3.75269C0.00348068 3.21353 0.122354 2.68136 0.348628 2.19196C0.574903 1.70256 0.903332 1.26728 1.31184 0.915379C1.72034 0.563479 2.19946 0.303115 2.71697 0.151797C3.23447 0.000478394 3.77838 -0.0382884 4.31212 0.0381007C5.33307 0.0350165 6.34638 0.214088 7.30444 0.566901L7.46202 2.73089H7.39179C6.49713 2.38717 5.55092 2.19676 4.59294 2.16768C3.20283 2.16768 2.5694 2.66067 2.5694 3.54059C2.5694 5.84646 8.04243 4.77307 8.04243 9.1555C8.05304 9.72154 7.94099 10.2832 7.71398 10.8018C7.48696 11.3204 7.15036 11.7838 6.72731 12.16C6.30425 12.5362 5.80477 12.8164 5.26317 12.9813C4.72157 13.1461 4.1507 13.1918 3.58977 13.1152C2.43396 13.1231 1.28926 12.8893 0.22914 12.4287L0.0530196 10.2289Z" transform="translate(46.7367 38.8064)" fill="white"/>
<path d="M4.87864 4.53993H2.96403V11.1205H1.29058V4.53993H8.03376e-07V3.7599L1.29058 3.24934V2.73876C1.22961 1.99314 1.46389 1.25339 1.94297 0.678793C2.21239 0.43793 2.52794 0.254329 2.87048 0.139134C3.21301 0.0239393 3.57538 -0.0204461 3.93559 0.00867203C4.52446 0.00911967 5.10916 0.107371 5.66583 0.299415L5.22619 1.56165C4.84653 1.43452 4.44933 1.36752 4.04898 1.36308C3.89291 1.34968 3.73593 1.37467 3.59173 1.43585C3.44753 1.49703 3.32049 1.59255 3.22167 1.71409C3.0277 2.02948 2.93757 2.39777 2.96398 2.76709V3.27767H4.87858L4.87864 4.53993Z" transform="translate(19.8052 22.8418)" fill="white"/>
<path d="M4.4816 10.3673L1.47494 1.70898H1.41822C1.49855 2.99484 1.53872 4.20033 1.53872 5.32546V10.3673H7.52458e-08V4.35634e-07H2.38964L5.26871 8.24702H5.31135L8.27535 4.35634e-07H10.6721V10.3673H9.04118V5.24037C9.04118 4.72508 9.05379 4.05378 9.079 3.22648C9.10496 2.39917 9.12782 1.89807 9.1476 1.72316H9.09087L5.97784 10.3673H4.4816Z" transform="translate(26.1942 23.5952)" fill="white"/>
<path d="M6.86425 3.14658C6.89258 3.61558 6.8112 4.08473 6.62656 4.51678C6.44192 4.94884 6.15911 5.3319 5.80057 5.63558C4.92128 6.26461 3.85153 6.57025 2.77264 6.50071H1.69478V10.3796H-1.5762e-06V0.0123293H2.98537C4.01836 -0.0640693 5.0463 0.216279 5.89747 0.806547C6.22759 1.09608 6.48654 1.45781 6.6542 1.86364C6.82187 2.26946 6.89374 2.70848 6.86425 3.14658V3.14658ZM1.69478 5.07543H2.59537C3.26526 5.12716 3.93459 4.9685 4.50998 4.62158C4.71945 4.45274 4.8845 4.23528 4.99079 3.98811C5.09707 3.74094 5.14136 3.47155 5.11981 3.20337C5.13863 2.95401 5.09909 2.7037 5.00431 2.47229C4.90953 2.24088 4.76212 2.03474 4.57379 1.87023C4.07152 1.53773 3.4724 1.38295 2.87193 1.43058H1.69472L1.69478 5.07543Z" transform="translate(39.5966 23.5828)" fill="white"/>
<path d="M7.75779 8.13357H6.36082V10.3956H4.73695V8.13357H-1.21638e-06V6.85007L4.73691 8.11863e-07H6.36078V6.7508H7.75775L7.75779 8.13357ZM4.73695 6.7508V4.14833C4.73695 3.22176 4.76059 2.463 4.80786 1.87206H4.75113C4.57394 2.26641 4.36525 2.64583 4.1271 3.00663L1.55301 6.7508H4.73695Z" transform="translate(47.4396 23.5667)" fill="white"/>
</svg>
