<svg xmlns="http://www.w3.org/2000/svg" viewBox="0 0 40.45443 40.45578"><path d="M20.22654,1.38237A18.84553,18.84553,0,1,0,39.07207,20.22789,18.86583,18.86583,0,0,0,20.22654,1.38237Z" style="fill:#26a9e1"/><path d="M20.22654,40.45578A20.22789,20.22789,0,1,1,40.45443,20.22789,20.25,20.25,0,0,1,20.22654,40.45578Zm0-39.07341A18.84553,18.84553,0,1,0,39.07207,20.22789,18.86583,18.86583,0,0,0,20.22654,1.38237Z" style="fill:#fff"/><rect x="8.82844" y="19.39468" width="22.9884" height="11.21334" style="fill:#f69c2a"/><path d="M32.31657,30.608H8.13786V9.84776H32.31657Zm-23.17871-1H31.31657V10.84776H9.13786Z" style="fill:#fff"/><path d="M15.48965,21.06762h1.4618v6.82587h-1.4618V25.13068H12.82192v2.76281H11.35007V21.06762h1.47185v2.79065h2.66773Z" style="fill:#fff"/><path d="M19.38573,21.06762h1.47185v5.63927h2.74349v1.1866H19.38573Z" style="fill:#fff"/><path d="M25.23758,26.45024h.04715a4.69774,4.69774,0,0,0,1.75633.38961c.65553,0,1.11085-.23732,1.11085-.82637,0-1.31956-2.94293-.67408-2.94293-3.05657a2.03739,2.03739,0,0,1,2.326-2.00369,4.63032,4.63032,0,0,1,1.61409.28524l.085,1.16728h-.03788a4.5986,4.5986,0,0,0-1.50973-.3038c-.74984,0-1.09152.26592-1.09152.74056,0,1.24381,2.95221.66481,2.95221,3.02874a2.11571,2.11571,0,0,1-2.40181,2.13589,4.47257,4.47257,0,0,1-1.81276-.37028Z" style="fill:#fff"/><path d="M13.31344,14.76993H12.28068v3.54964H11.378V14.76993h-.69615v-.42076l.69615-.2754v-.27541a1.53928,1.53928,0,0,1,.35191-1.11117,1.43874,1.43874,0,0,1,1.07484-.36147,2.8685,2.8685,0,0,1,.93331.15683l-.23715.68086a2.07233,2.07233,0,0,0-.635-.10711.51807.51807,0,0,0-.44626.18934.95433.95433,0,0,0-.139.568v.27541h1.03276Z" style="fill:#fff"/><path d="M16.54561,18.31957l-1.62182-4.67038h-.0306q.065,1.04041.065,1.95077v2.71961h-.83V12.72735h1.289l1.553,4.44853h.023L18.592,12.72735h1.29286v5.59222h-.87976V15.55406q0-.41693.0204-1.08631.021-.66939.037-.81091h-.0306l-1.6792,4.66273Z" style="fill:#fff"/><path d="M25.06017,14.418a1.63062,1.63062,0,0,1-.57376,1.34259,2.52774,2.52774,0,0,1-1.6333.46666H22.2717v2.0923h-.91418V12.72735h1.61034a2.44062,2.44062,0,0,1,1.57082.42841A1.54125,1.54125,0,0,1,25.06017,14.418ZM22.2717,15.45844h.48579a1.74063,1.74063,0,0,0,1.03276-.24481.89093.89093,0,0,0,.32895-.765.86807.86807,0,0,0-.29453-.71911,1.45468,1.45468,0,0,0-.918-.23715h-.635Z" style="fill:#fff"/><path d="M29.77263,17.09938h-.75354v1.22019h-.87593V17.09938H25.588v-.69233l2.55514-3.695h.87593V16.3535h.75354Zm-1.62947-.74588V14.9497q0-.7497.03825-1.22784h-.0306a4.33965,4.33965,0,0,1-.33661.612L26.42571,16.3535Z" style="fill:#fff"/></svg>