<svg xmlns="http://www.w3.org/2000/svg" viewBox="0 0 40.45443 40.45578"><path d="M20.22654,1.38237A18.84553,18.84553,0,1,0,39.07207,20.22789,18.86583,18.86583,0,0,0,20.22654,1.38237Z" style="fill:#26a9e1"/><path d="M20.22654,40.45578A20.22789,20.22789,0,1,1,40.45443,20.22789,20.25,20.25,0,0,1,20.22654,40.45578Zm0-39.07341A18.84553,18.84553,0,1,0,39.07207,20.22789,18.86583,18.86583,0,0,0,20.22654,1.38237Z" style="fill:#fff"/><path d="M26.08077,17.2838h-.80818c0-3.60219-2.14746-5.64574-5.1031-5.64574s-5.1031,2.04355-5.1031,5.64574h-.83127c-1.15455,0-1.58173.43872-1.58173,1.62791v7.52765c0,1.15454.39254,2.37836,1.58173,2.37836H26.08077c1.15455,0,1.72028-1.15454,1.72028-2.37836V18.91171C27.80105,17.73407,27.27,17.2838,26.08077,17.2838Zm-9.398,0c0-3.60219,1.75491-4.02937,3.46364-4.02937S23.61,13.68161,23.61,17.2838Z" style="fill:#fff"/><path d="M21.56649,26.22H18.8533l.54264-3.85619a1.92809,1.92809,0,0,1-.889-1.62791,1.778,1.778,0,0,1,1.71875-1.83535l.01307-.00038a1.70873,1.70873,0,0,1,1.7317,1.68545l.00012.01174a2.11277,2.11277,0,0,1-.91209,1.76645Z" style="fill:#f59b2d"/></svg>