<svg xmlns="http://www.w3.org/2000/svg" viewBox="0 0 40.45443 40.45578"><path d="M20.22654,1.38237A18.84553,18.84553,0,1,0,39.07207,20.22789,18.86583,18.86583,0,0,0,20.22654,1.38237Z" style="fill:#26a9e1"/><path d="M20.22654,40.45578A20.22789,20.22789,0,1,1,40.45443,20.22789,20.25,20.25,0,0,1,20.22654,40.45578Zm0-39.07341A18.84553,18.84553,0,1,0,39.07207,20.22789,18.86583,18.86583,0,0,0,20.22654,1.38237Z" style="fill:#fff"/><rect x="11.00629" y="11.44948" width="13.16267" height="13.16267" style="fill:#f49b2c"/><path d="M24.273,24.71625H10.90232V11.34516H24.273Zm-13.16237-.20832h12.954V11.55348h-12.954Z" style="fill:#fff"/><path d="M10.6651,11.10876V24.95347H24.50982V11.10876Zm.68154,13.16317V11.79029H23.82828V24.27193Z" style="fill:#fff"/><rect x="13.20355" y="13.64674" width="13.16267" height="13.16267" style="fill:#20a8e1"/><path d="M12.8631,13.30553V27.15025H26.70659V13.30553Zm.68154,13.16318V13.98707H26.02506V26.46871Z" style="fill:#fff"/><rect x="15.40081" y="15.844" width="13.16267" height="13.16267" style="fill:#20a8e1"/><path d="M15.05988,15.50353V29.347H28.90459V15.50353Zm.68154,13.162V16.18507H28.22306V28.66549Z" style="fill:#fff"/></svg>