<svg width="30" height="30" viewBox="0 0 30 30" fill="none" xmlns="http://www.w3.org/2000/svg">
<circle cx="15" cy="15" r="14.5" fill="#1FAAE2" stroke="white"/>
<rect x="9.99316" y="11.2744" width="12.3387" height="7.25804" rx="1" fill="white"/>
<circle cx="11.8077" cy="17.4435" r="0.362902" fill="#1FAAE2"/>
<mask id="path-4-inside-1" fill="white">
<path fill-rule="evenodd" clip-rule="evenodd" d="M12.897 17.4435C12.897 17.243 13.0246 17.0806 13.1821 17.0806L20.5957 17.0806C20.7532 17.0806 20.8808 17.243 20.8808 17.4435C20.8808 17.6439 20.7532 17.8064 20.5957 17.8064L13.1821 17.8064C13.0246 17.8064 12.897 17.6439 12.897 17.4435Z"/>
</mask>
<path fill-rule="evenodd" clip-rule="evenodd" d="M12.897 17.4435C12.897 17.243 13.0246 17.0806 13.1821 17.0806L20.5957 17.0806C20.7532 17.0806 20.8808 17.243 20.8808 17.4435C20.8808 17.6439 20.7532 17.8064 20.5957 17.8064L13.1821 17.8064C13.0246 17.8064 12.897 17.6439 12.897 17.4435Z" fill="#1FAAE2"/>
<path d="M13.1821 16.0806C12.2611 16.0806 11.897 16.9289 11.897 17.4435L13.897 17.4435C13.897 17.5499 13.864 17.6809 13.7668 17.8047C13.6684 17.93 13.469 18.0806 13.1821 18.0806L13.1821 16.0806ZM20.5957 16.0806L13.1821 16.0806L13.1821 18.0806L20.5957 18.0806L20.5957 16.0806ZM21.8808 17.4435C21.8808 16.9289 21.5167 16.0806 20.5957 16.0806L20.5957 18.0806C20.3088 18.0806 20.1094 17.93 20.011 17.8047C19.9138 17.6809 19.8808 17.5499 19.8808 17.4435L21.8808 17.4435ZM20.5957 18.8064C21.5167 18.8064 21.8808 17.9581 21.8808 17.4435L19.8808 17.4435C19.8808 17.337 19.9138 17.206 20.011 17.0823C20.1094 16.957 20.3088 16.8064 20.5957 16.8064L20.5957 18.8064ZM13.1821 18.8064L20.5957 18.8064L20.5957 16.8064L13.1821 16.8064L13.1821 18.8064ZM11.897 17.4435C11.897 17.9581 12.2611 18.8064 13.1821 18.8064L13.1821 16.8064C13.469 16.8064 13.6684 16.957 13.7668 17.0823C13.864 17.206 13.897 17.337 13.897 17.4435L11.897 17.4435Z" fill="#1FAAE2" mask="url(#path-4-inside-1)"/>
<path fill-rule="evenodd" clip-rule="evenodd" d="M16.5259 17.4435C16.5259 17.243 16.6884 17.0806 16.8888 17.0806L19.0662 17.0806C19.2666 17.0806 19.4291 17.243 19.4291 17.4435C19.4291 17.6439 19.2666 17.8064 19.0662 17.8064L16.8888 17.8064C16.6884 17.8064 16.5259 17.6439 16.5259 17.4435Z" fill="#F49D1D"/>
<circle cx="16.8888" cy="17.4435" r="0.362902" fill="white"/>
<rect x="13.1138" y="12.8711" width="8.12901" height="3.04838" rx="1" fill="#F49D1D"/>
<path d="M15.7113 13.6489H16.1434L16.6968 15.2204H16.3332L16.2074 14.8532H15.6312L15.5101 15.2204H15.1465L15.7113 13.6489ZM15.6998 14.5996H16.1457L15.9171 13.933L15.6998 14.5996Z" fill="white"/>
<path d="M16.9043 13.6496H17.5033C17.6059 13.64 17.7094 13.6525 17.8063 13.6861C17.9031 13.7197 17.9909 13.7735 18.0633 13.8437C18.1356 13.9138 18.1906 13.9986 18.2243 14.0917C18.2579 14.1848 18.2694 14.2839 18.2579 14.3818C18.2579 14.9872 17.9401 15.221 17.3821 15.221H16.9043V13.6496ZM17.4119 14.9653C17.6566 14.9653 17.8921 14.8626 17.8921 14.4079C17.8921 13.9141 17.6108 13.903 17.357 13.903H17.2587V14.9653H17.4119Z" fill="white"/>
<path d="M18.4267 14.8887H18.4382C18.5718 14.9443 18.7154 14.9748 18.8612 14.9784C19.0189 14.9784 19.1287 14.9237 19.1287 14.7881C19.1287 14.4843 18.4199 14.6329 18.4199 14.0844C18.4204 14.0175 18.4358 13.9514 18.4652 13.8906C18.4946 13.8298 18.5373 13.7758 18.5903 13.7321C18.6434 13.6884 18.7057 13.656 18.7729 13.6372C18.8401 13.6185 18.9108 13.6137 18.9801 13.6231C19.1127 13.6228 19.2443 13.645 19.3688 13.6888L19.3894 13.9575H19.3802C19.264 13.9149 19.1411 13.8912 19.0167 13.8876C18.836 13.8876 18.7537 13.9488 18.7537 14.0581C18.7537 14.3444 19.4648 14.2111 19.4648 14.7554C19.4662 14.8257 19.4517 14.8954 19.4222 14.9598C19.3927 15.0242 19.3489 15.0818 19.294 15.1285C19.239 15.1752 19.1741 15.21 19.1037 15.2305C19.0333 15.2509 18.9592 15.2566 18.8863 15.2471C18.7361 15.2481 18.5874 15.219 18.4496 15.1618L18.4267 14.8887Z" fill="white"/>
<path d="M9.07484 16.916C8.68322 16.916 8.36571 16.595 8.36571 16.1991C8.36571 16.1071 8.3748 16.0152 8.39298 15.9233C8.40207 15.8406 8.4248 15.7487 8.46116 15.6476C8.49752 15.5557 8.5248 15.4776 8.54298 15.4132C8.57025 15.3489 8.61571 15.2708 8.67934 15.1788C8.74298 15.0685 8.78843 14.995 8.8157 14.9583C8.84298 14.9123 8.90661 14.8388 9.00661 14.7377C9.02081 14.7204 9.03412 14.7042 9.04654 14.689C9.1304 14.5864 9.22287 14.4875 9.3133 14.3907C9.33211 14.3706 9.3526 14.3484 9.37479 14.3241C9.41783 14.2769 9.4545 14.2376 9.48481 14.2062C9.54477 14.1441 9.60841 14.0845 9.66449 14.0188C9.90547 13.7362 10.0953 13.4795 10.2339 13.2487C10.3884 12.9913 10.4657 12.7018 10.4657 12.3801C10.4657 11.9849 10.3475 11.677 10.1111 11.4564C9.88388 11.245 9.58388 11.1393 9.21116 11.1393C8.93843 11.1393 8.67025 11.2128 8.40662 11.3599C8.40076 11.3633 8.39493 11.3666 8.38912 11.37C7.98367 11.6071 7.53424 11.7748 7.19131 11.4523C6.89543 11.174 6.75404 10.6071 7.06392 10.3448C7.6761 9.8267 8.43275 9.56763 9.33388 9.56763C10.1339 9.56763 10.8157 9.8066 11.3793 10.2845C11.943 10.7625 12.2248 11.4334 12.2248 12.2974C12.2248 13.1338 11.8157 13.9564 10.9975 14.7652C10.9339 14.8296 10.8248 14.9353 10.6702 15.0823C10.5157 15.2202 10.4021 15.3259 10.3293 15.3994C10.2566 15.4638 10.1702 15.5557 10.0702 15.6752C9.97933 15.7855 9.91115 15.8912 9.8657 15.9923C9.82933 16.0842 9.80661 16.1853 9.79751 16.2956C9.77449 16.6447 9.48776 16.916 9.14168 16.916C9.12866 16.916 9.11545 16.916 9.10207 16.916C9.09352 16.916 9.08445 16.916 9.07484 16.916ZM9.10207 20.1834C8.80207 20.1834 8.54752 20.0823 8.33843 19.8801C8.13844 19.6779 8.03844 19.4298 8.03844 19.1356C8.03844 18.8507 8.14298 18.6026 8.35207 18.3912C8.56116 18.1889 8.81116 18.0878 9.10207 18.0878C9.11116 18.0878 9.12025 18.0878 9.12934 18.0878C9.40206 18.0878 9.63843 18.1889 9.83842 18.3912C10.0475 18.6026 10.1521 18.8507 10.1521 19.1356C10.1521 19.4298 10.0475 19.6779 9.83842 19.8801C9.62933 20.0823 9.38388 20.1834 9.10207 20.1834Z" fill="#F49D1D"/>
<path fill-rule="evenodd" clip-rule="evenodd" d="M10.3297 15.3994C10.257 15.4637 10.1706 15.5556 10.0706 15.6751C9.97972 15.7854 9.91154 15.8911 9.86609 15.9922C9.82972 16.0841 9.807 16.1852 9.79791 16.2955C9.77489 16.6446 9.48815 16.9159 9.14207 16.9159H9.07523C8.68361 16.9159 8.3661 16.5949 8.3661 16.199C8.3661 16.1071 8.37519 16.0152 8.39337 15.9233C8.40246 15.8406 8.42519 15.7486 8.46155 15.6475C8.49792 15.5556 8.52519 15.4775 8.54337 15.4132C8.57064 15.3488 8.6161 15.2707 8.67973 15.1788C8.74337 15.0685 8.78882 14.995 8.8161 14.9582C8.84337 14.9122 8.907 14.8387 9.007 14.7376L9.04693 14.689C9.13056 14.5866 9.22276 14.4879 9.31296 14.3914L9.3137 14.3906C9.3325 14.3705 9.35299 14.3483 9.37518 14.324C9.41822 14.2769 9.4549 14.2376 9.4852 14.2062C9.50392 14.1868 9.52299 14.1676 9.54209 14.1485C9.58416 14.1063 9.62631 14.0639 9.66488 14.0187C9.90586 13.7361 10.0957 13.4795 10.2343 13.2486C10.3888 12.9913 10.4661 12.7018 10.4661 12.3801C10.4661 11.9849 10.3479 11.677 10.1115 11.4564C9.88427 11.245 9.58427 11.1393 9.21155 11.1393C8.93882 11.1393 8.67064 11.2128 8.40701 11.3599L8.38951 11.37C7.98406 11.6071 7.53463 11.7748 7.19171 11.4522C6.89582 11.1739 6.75443 10.6071 7.06431 10.3448C7.67649 9.82665 8.43314 9.56758 9.33427 9.56758C10.1343 9.56758 10.8161 9.80655 11.3797 10.2845C11.9433 10.7624 12.2252 11.4334 12.2252 12.2974C12.2252 13.1338 11.8161 13.9564 10.9979 14.7652C10.9343 14.8295 10.8252 14.9352 10.6706 15.0823C10.5161 15.2201 10.4024 15.3258 10.3297 15.3994ZM11.6527 15.3177C11.5789 15.3921 11.4628 15.5044 11.3104 15.6494L11.3005 15.6588L11.2902 15.668C11.1387 15.8032 11.0413 15.8945 10.9879 15.9484L10.968 15.9686L10.9466 15.9875C10.9193 16.0117 10.8641 16.0673 10.7778 16.1702C10.7345 16.223 10.7099 16.2617 10.6966 16.2865C10.6922 16.3014 10.6876 16.3231 10.6849 16.3535C10.653 16.7949 10.405 17.2218 10.0086 17.4808C10.1893 17.5742 10.3529 17.6964 10.497 17.842C10.8544 18.2033 11.0416 18.6471 11.0416 19.1356C11.0416 19.6264 10.8588 20.0795 10.4836 20.4424C10.1211 20.7929 9.64834 21 9.10246 21C8.55533 21 8.06871 20.8047 7.69405 20.4424L7.68726 20.4358L7.68064 20.4291C7.32003 20.0645 7.14964 19.6158 7.14964 19.1356C7.14964 18.6471 7.33692 18.2033 7.69427 17.842L7.7009 17.8353L7.70768 17.8288C7.85336 17.6879 8.01635 17.5713 8.19394 17.4818C7.7443 17.1945 7.47691 16.6987 7.47691 16.199C7.47691 16.0675 7.48901 15.9368 7.51277 15.8074C7.53169 15.6636 7.56963 15.5238 7.61723 15.3914L7.62134 15.38L7.62582 15.3687C7.65662 15.2908 7.67399 15.2388 7.6827 15.208L7.69581 15.1616L7.71476 15.1169C7.76674 14.9943 7.83736 14.8762 7.90974 14.7693C7.95904 14.6845 8.0115 14.5973 8.05999 14.528C8.13559 14.4126 8.23801 14.3018 8.32064 14.2172L8.33567 14.1989C8.43703 14.0748 8.54548 13.9588 8.63137 13.8669L8.63895 13.8588C8.65515 13.8415 8.67341 13.8217 8.69382 13.7993C8.73991 13.7489 8.7822 13.7035 8.81973 13.6646C8.86603 13.6166 8.893 13.5899 8.912 13.571C8.93449 13.5487 8.94582 13.5375 8.96485 13.5152C9.18621 13.2556 9.34654 13.036 9.45564 12.8543C9.53094 12.7289 9.5769 12.5772 9.5769 12.3801C9.5769 12.1383 9.50914 12.0586 9.47822 12.0296C9.44368 11.9976 9.38483 11.9559 9.21155 11.9559C9.1232 11.9559 9.01436 11.9774 8.87364 12.055L8.8671 12.0588C8.63963 12.1918 8.3013 12.3676 7.91211 12.4266C7.46406 12.4946 6.95943 12.4027 6.55548 12.0227C6.26378 11.7483 6.07929 11.3736 6.02117 11.0116C5.96486 10.6609 6.00552 10.1304 6.46171 9.74431C7.25226 9.0752 8.22991 8.75098 9.33427 8.75098C10.3473 8.75098 11.2474 9.06086 11.9829 9.68453C12.769 10.3511 13.1143 11.261 13.1143 12.2974C13.1143 13.3975 12.5715 14.4082 11.6527 15.3177ZM8.33883 19.8801C8.54792 20.0823 8.80246 20.1834 9.10246 20.1834C9.38427 20.1834 9.62973 20.0823 9.83882 19.8801C10.0479 19.6779 10.1524 19.4297 10.1524 19.1356C10.1524 18.8507 10.0479 18.6025 9.83882 18.3911C9.63882 18.1889 9.40246 18.0878 9.12973 18.0878H9.10246C8.81155 18.0878 8.56155 18.1889 8.35246 18.3911C8.14337 18.6025 8.03883 18.8507 8.03883 19.1356C8.03883 19.4297 8.13883 19.6779 8.33883 19.8801Z" fill="white"/>
<path d="M25.423 17.8807L27.8865 15.2881C28.0377 15.129 28.0377 14.871 27.8865 14.7119L25.423 12.1193C25.2719 11.9602 25.0268 11.9602 24.8756 12.1193C24.7244 12.2784 24.7244 12.5364 24.8756 12.6955L26.6782 14.5926L27 15L26.6782 15.4074L24.8756 17.3045C24.7244 17.4636 24.7244 17.7216 24.8756 17.8807C25.0268 18.0398 25.2719 18.0398 25.423 17.8807Z" fill="white"/>
<path d="M4.57698 17.8807L2.11351 15.2881C1.96234 15.129 1.96234 14.871 2.11351 14.7119L4.57698 12.1193C4.72815 11.9602 4.97324 11.9602 5.12441 12.1193C5.27559 12.2784 5.27559 12.5364 5.12441 12.6955L3.32176 14.5926L3 15L3.32176 15.4074L5.12441 17.3045C5.27559 17.4636 5.27559 17.7216 5.12441 17.8807C4.97324 18.0398 4.72815 18.0398 4.57698 17.8807Z" fill="white"/>
</svg>
