<svg xmlns="http://www.w3.org/2000/svg" viewBox="0 0 40.45443 40.45578"><path d="M20.22654,1.38237A18.84553,18.84553,0,1,0,39.07207,20.22789,18.86583,18.86583,0,0,0,20.22654,1.38237Z" style="fill:#26a9e1"/><path d="M20.22654,40.45578A20.22789,20.22789,0,1,1,40.45443,20.22789,20.25,20.25,0,0,1,20.22654,40.45578Zm0-39.07341A18.84553,18.84553,0,1,0,39.07207,20.22789,18.86583,18.86583,0,0,0,20.22654,1.38237Z" style="fill:#fff"/><path d="M12.1187,15.54718h2.46088l3.15118,9.36171H15.66058l-.71628-2.18761H11.66289L10.973,24.90889H8.90278Zm-.06511,5.664h2.53916L13.2908,17.23946Z" style="fill:#fff"/><path d="M22.54712,24.90889h-2.474l-2.95546-9.36171H19.201l2.14847,7.48651h.03877l2.27869-7.48651h1.96629Z" style="fill:#fff"/><path d="M26.57,23.29416h1.40622V18.15109H26.46577l.13023-1.51085h1.38025l.143-1.09306h1.79691v7.747h1.25v1.61473H26.57Z" style="fill:#f49b2c"/><path d="M31.55165,25.294h-5.3674v-2.3856h1.40622V18.53618H26.04574l.19648-2.28171h1.39567l.143-1.09267h2.52035v7.74659h1.25038Zm-4.59654-.77086H30.7808v-.84388H29.53041v-7.747H28.45693l-.143,1.093H26.94984l-.064.74h1.47548v5.91393H26.95511Z" style="fill:#fff"/></svg>