<svg xmlns="http://www.w3.org/2000/svg" viewBox="0 0 40.45443 40.45578"><path d="M20.22654,1.38237A18.84553,18.84553,0,1,0,39.07207,20.22789,18.86583,18.86583,0,0,0,20.22654,1.38237Z" style="fill:#26a9e1"/><path d="M20.22654,40.45578A20.22789,20.22789,0,1,1,40.45443,20.22789,20.25,20.25,0,0,1,20.22654,40.45578Zm0-39.07341A18.84553,18.84553,0,1,0,39.07207,20.22789,18.86583,18.86583,0,0,0,20.22654,1.38237Z" style="fill:#fff"/><path d="M20.22722,21.5a7.26133,7.26133,0,1,1,7.26133-7.2615A7.26961,7.26961,0,0,1,20.22722,21.5Z" style="fill:#f69c2a;stroke:#fff;stroke-miterlimit:10;stroke-width:0.75px"/><path d="M22.33319,14.06373l-3.07732-2.19809a.2022.2022,0,0,0-.21981-.022.21124.21124,0,0,0-.13189.19783v4.39617a.21123.21123,0,0,0,.13189.19782.1321.1321,0,0,0,.08792.022.31247.31247,0,0,0,.13189-.044l3.05534-2.19808a.19992.19992,0,0,0,.08792-.17585C22.39913,14.17363,22.37715,14.08571,22.33319,14.06373Zm-2.96742,1.91233v-3.473l2.43988,1.73649Z" style="fill:#fff"/><path d="M31.095,32.3924v.25316a1.38834,1.38834,0,0,1,1.39235,1.39235h.25315A1.64222,1.64222,0,0,0,31.095,32.3924Zm0,.63289v.25316a.7617.7617,0,0,1,.75946.75946h.25316A1.0156,1.0156,0,0,0,31.095,33.02529Zm0,.63289v.37973h.37973A.373.373,0,0,0,31.095,33.65818Z" style="fill:#fff"/><path d="M28.14343,31.42578h-2.714a.24746.24746,0,0,0-.24673.24673v1.72706a.24746.24746,0,0,0,.24673.24673h.9869v-.24673h-.9869V31.67251h2.714v1.72706h-.98689v.24673h.98689a.24746.24746,0,0,0,.24673-.24673V31.67251A.24746.24746,0,0,0,28.14343,31.42578Z" style="fill:#fff"/><path d="M26.16964,32.04259a.49345.49345,0,1,0,.49345.49345A.4949.4949,0,0,0,26.16964,32.04259Zm0,.74017a.24672.24672,0,1,1,.24673-.24672A.24744.24744,0,0,1,26.16964,32.78276Z" style="fill:#fff"/><path d="M27.40326,32.04259a.49345.49345,0,1,0,.49345.49345A.4949.4949,0,0,0,27.40326,32.04259Zm0,.74017A.24672.24672,0,1,1,27.65,32.536.24744.24744,0,0,1,27.40326,32.78276Z" style="fill:#fff"/><path d="M26.78645,33.27621a.36348.36348,0,0,1,.37009.37009h.24672a.61681.61681,0,1,0-1.23362,0h.24673A.36348.36348,0,0,1,26.78645,33.27621Z" style="fill:#fff"/><path d="M22.16918,31.67251H20.44211a.24745.24745,0,0,0-.24673.24672V32.166a.24746.24746,0,0,0,.24673.24673h1.72707a.24745.24745,0,0,0,.24672-.24673v-.24672A.24744.24744,0,0,0,22.16918,31.67251Zm0,.49344H20.44211v-.24672h1.72707Z" style="fill:#fff"/><path d="M19.45521,31.67251h-.24672a.24745.24745,0,0,0-.24673.24672V32.166a.24746.24746,0,0,0,.24673.24673h.24672a.24746.24746,0,0,0,.24673-.24673v-.24672A.24745.24745,0,0,0,19.45521,31.67251Zm0,.49344h-.24672v-.24672h.24672Z" style="fill:#fff"/><path d="M22.16918,32.6594H20.44211a.24746.24746,0,0,0-.24673.24673v.24672a.24745.24745,0,0,0,.24673.24672h1.72707a.24744.24744,0,0,0,.24672-.24672v-.24672A.24745.24745,0,0,0,22.16918,32.6594Zm0,.49345H20.44211v-.24672h1.72707Z" style="fill:#fff"/><path d="M19.45521,32.6594h-.24672a.24746.24746,0,0,0-.24673.24673v.24672a.24745.24745,0,0,0,.24673.24672h.24672a.24745.24745,0,0,0,.24673-.24672v-.24672A.24746.24746,0,0,0,19.45521,32.6594Zm0,.49345h-.24672v-.24672h.24672Z" style="fill:#fff"/><circle cx="12.77681" cy="32.73964" r="0.73365" style="fill:#fff"/><path d="M7.50346,27.42511a1.18654,1.18654,0,0,0,1.16626-1.02063h2.86114c.03534,0,.064-.0816.064-.18237s-.02863-.18244-.064-.18244H8.66972a1.17668,1.17668,0,0,0-2.33258,0H2.30931c.04022.12366.09112.24225.13378.36481h3.894A1.18659,1.18659,0,0,0,7.50346,27.42511Z" style="fill:#fff"/><path d="M12.37278,32.95453a.18241.18241,0,1,0,0-.36481H6.03715c.10809.1239.2204.24378.3316.36481Z" style="fill:#fff"/><path d="M33.12022,33.53162h.44067c.08057-.08075.15106-.171.23017-.25318h-.67084Z" style="fill:#fff"/><path d="M34.13285,31.50635H31.6013a.25385.25385,0,0,0-.25311.25317v.25311h.25311v-.25311h2.53155v1.143c.0846-.09272.17041-.18415.25318-.27851v-.86444A.25391.25391,0,0,0,34.13285,31.50635Z" style="fill:#fff"/><path d="M2.33525,26.03967v.07068c.03283.09955.07342.19531.10784.29413H38.01133c.04267-.12256.09357-.24115.13379-.36481Z" style="fill:#fff;opacity:0.25"/></svg>