<svg xmlns="http://www.w3.org/2000/svg" viewBox="0 0 40.45443 40.45578"><path d="M20.22654,1.38237A18.84553,18.84553,0,1,0,39.07207,20.22789,18.86583,18.86583,0,0,0,20.22654,1.38237Z" style="fill:#26a9e1"/><path d="M20.22654,40.45578A20.22789,20.22789,0,1,1,40.45443,20.22789,20.25,20.25,0,0,1,20.22654,40.45578Zm0-39.07341A18.84553,18.84553,0,1,0,39.07207,20.22789,18.86583,18.86583,0,0,0,20.22654,1.38237Z" style="fill:#fff"/><rect x="18.5" y="12.67376" width="11.11545" height="8.72254" rx="0.6559" ry="0.6559" style="fill:#f69c2a"/><path d="M29.28153,21.71848h-10.448a.6559.6559,0,0,1-.6559-.6559v-8.0552a.6559.6559,0,0,1,.6559-.6559h10.448a.6559.6559,0,0,1,.6559.6559v8.0552A.6559.6559,0,0,1,29.28153,21.71848Zm-9.80367-.64435h9.15932a.6559.6559,0,0,0,.6559-.6559v-6.7665a.6559.6559,0,0,0-.6559-.6559H19.47786a.6559.6559,0,0,0-.6559.6559v6.7665A.6559.6559,0,0,0,19.47786,21.07413Z" style="fill:#fff"/><rect x="5.398" y="22.86503" width="6.67659" height="5.23927" rx="0.6559" ry="0.6559" style="fill:#fff"/><rect x="13.05861" y="22.86503" width="6.67659" height="5.23927" rx="0.6559" ry="0.6559" style="fill:#fff"/><rect x="20.71923" y="22.86503" width="6.67659" height="5.23927" rx="0.6559" ry="0.6559" style="fill:#fff"/><rect x="28.37984" y="22.86503" width="6.67659" height="5.23927" rx="0.6559" ry="0.6559" style="fill:#fff"/><path d="M36.38965,22.865a.65593.65593,0,0,0-.65589.656v3.92742a.65593.65593,0,0,0,.65589.656h.935A18.66689,18.66689,0,0,0,38.86548,22.865Z" style="fill:#fff"/><path d="M3.877,28.10431a.65593.65593,0,0,0,.65589-.656V23.52094a.65593.65593,0,0,0-.65589-.656H1.589a18.66656,18.66656,0,0,0,1.54083,5.23932Z" style="fill:#fff"/></svg>