<svg width="30" height="30" viewBox="0 0 30 30" fill="none" xmlns="http://www.w3.org/2000/svg">
<circle cx="15" cy="15" r="14.5" fill="#1FAAE2" stroke="white"/>
<mask id="path-2-inside-1" fill="white">
<path fill-rule="evenodd" clip-rule="evenodd" d="M6.6969 18.7279L10.6567 22.6877L19.3562 13.9882V10.0284H15.3964L6.6969 18.7279ZM5.70696 18.0208C5.31643 18.4113 5.31643 19.0444 5.70696 19.435L9.9496 23.6776C10.3401 24.0681 10.9733 24.0681 11.3638 23.6776L20.2633 14.7781C20.4508 14.5906 20.5562 14.3362 20.5562 14.071V9.82837C20.5562 9.27608 20.1085 8.82837 19.5562 8.82837H15.3136C15.0483 8.82837 14.794 8.93373 14.6065 9.12126L5.70696 18.0208Z"/>
</mask>
<path fill-rule="evenodd" clip-rule="evenodd" d="M6.6969 18.7279L10.6567 22.6877L19.3562 13.9882V10.0284H15.3964L6.6969 18.7279ZM5.70696 18.0208C5.31643 18.4113 5.31643 19.0444 5.70696 19.435L9.9496 23.6776C10.3401 24.0681 10.9733 24.0681 11.3638 23.6776L20.2633 14.7781C20.4508 14.5906 20.5562 14.3362 20.5562 14.071V9.82837C20.5562 9.27608 20.1085 8.82837 19.5562 8.82837H15.3136C15.0483 8.82837 14.794 8.93373 14.6065 9.12126L5.70696 18.0208Z" fill="#0D3841"/>
<path d="M10.6567 22.6877L9.80817 23.5362L10.6567 24.3847L11.5052 23.5362L10.6567 22.6877ZM6.6969 18.7279L5.84838 17.8793L4.99985 18.7279L5.84838 19.5764L6.6969 18.7279ZM19.3562 13.9882L20.2047 14.8367L20.5562 14.4852V13.9882H19.3562ZM19.3562 10.0284H20.5562V8.82837H19.3562V10.0284ZM15.3964 10.0284V8.82837H14.8993L14.5479 9.17984L15.3964 10.0284ZM5.70696 19.435L6.55548 18.5864L6.55548 18.5864L5.70696 19.435ZM5.70696 18.0208L6.55548 18.8693L6.55548 18.8693L5.70696 18.0208ZM9.9496 23.6776L9.10107 24.5261L9.10107 24.5261L9.9496 23.6776ZM11.3638 23.6776L12.2123 24.5261L12.2123 24.5261L11.3638 23.6776ZM14.6065 9.12126L15.455 9.96979L15.455 9.96979L14.6065 9.12126ZM11.5052 21.8391L7.54543 17.8793L5.84838 19.5764L9.80817 23.5362L11.5052 21.8391ZM18.5077 13.1396L9.80817 21.8391L11.5052 23.5362L20.2047 14.8367L18.5077 13.1396ZM18.1562 10.0284V13.9882H20.5562V10.0284H18.1562ZM15.3964 11.2284H19.3562V8.82837H15.3964V11.2284ZM7.54543 19.5764L16.2449 10.8769L14.5479 9.17984L5.84838 17.8793L7.54543 19.5764ZM6.55548 18.5864C6.63359 18.6645 6.63359 18.7912 6.55548 18.8693L4.85843 17.1722C3.99927 18.0314 3.99927 19.4243 4.85843 20.2835L6.55548 18.5864ZM10.7981 22.8291L6.55548 18.5864L4.85843 20.2835L9.10107 24.5261L10.7981 22.8291ZM10.5153 22.8291C10.5934 22.751 10.72 22.751 10.7981 22.8291L9.10107 24.5261C9.96022 25.3853 11.3532 25.3853 12.2123 24.5261L10.5153 22.8291ZM19.4148 13.9296L10.5153 22.8291L12.2123 24.5261L21.1118 15.6266L19.4148 13.9296ZM19.3562 14.071C19.3562 14.018 19.3773 13.9671 19.4148 13.9296L21.1118 15.6266C21.5244 15.2141 21.7562 14.6545 21.7562 14.071H19.3562ZM19.3562 9.82837V14.071H21.7562V9.82837H19.3562ZM19.5562 10.0284C19.4457 10.0284 19.3562 9.93882 19.3562 9.82837H21.7562C21.7562 8.61334 20.7712 7.62837 19.5562 7.62837V10.0284ZM15.3136 10.0284H19.5562V7.62837H15.3136V10.0284ZM15.455 9.96979C15.4175 10.0073 15.3666 10.0284 15.3136 10.0284V7.62837C14.7301 7.62837 14.1705 7.86015 13.7579 8.27273L15.455 9.96979ZM6.55548 18.8693L15.455 9.96979L13.7579 8.27273L4.85843 17.1722L6.55548 18.8693Z" fill="white" mask="url(#path-2-inside-1)"/>
<circle cx="17" cy="12" r="1" fill="white"/>
<mask id="path-5-inside-2" fill="white">
<path fill-rule="evenodd" clip-rule="evenodd" d="M17 12C16.7239 12 16.5 11.7761 16.5 11.5L16.5 11C16.5 9.06697 18.067 7.49997 20 7.49997C21.933 7.49997 23.5 9.06697 23.5 11C23.5 11.5959 23.3613 12.3416 22.8978 12.9504C22.4163 13.5828 21.6352 14 20.5 14L20.5 13C21.3648 13 21.8337 12.6972 22.1022 12.3446C22.3887 11.9683 22.5 11.464 22.5 11C22.5 9.61926 21.3807 8.49997 20 8.49997C18.6193 8.49997 17.5 9.61926 17.5 11L17.5 11.5C17.5 11.7761 17.2761 12 17 12Z"/>
</mask>
<path fill-rule="evenodd" clip-rule="evenodd" d="M17 12C16.7239 12 16.5 11.7761 16.5 11.5L16.5 11C16.5 9.06697 18.067 7.49997 20 7.49997C21.933 7.49997 23.5 9.06697 23.5 11C23.5 11.5959 23.3613 12.3416 22.8978 12.9504C22.4163 13.5828 21.6352 14 20.5 14L20.5 13C21.3648 13 21.8337 12.6972 22.1022 12.3446C22.3887 11.9683 22.5 11.464 22.5 11C22.5 9.61926 21.3807 8.49997 20 8.49997C18.6193 8.49997 17.5 9.61926 17.5 11L17.5 11.5C17.5 11.7761 17.2761 12 17 12Z" fill="#1FAAE2"/>
<path d="M22.8978 12.9504L23.6934 13.5562L23.6934 13.5562L22.8978 12.9504ZM20.5 14L19.5 14L19.5 15L20.5 15L20.5 14ZM20.5 13L20.5 12L19.5 12L19.5 13L20.5 13ZM22.1022 12.3446L21.3066 11.7388L21.3066 11.7388L22.1022 12.3446ZM15.5 11.5C15.5 12.3284 16.1716 13 17 13L17 11C17.2761 11 17.5 11.2239 17.5 11.5L15.5 11.5ZM15.5 11L15.5 11.5L17.5 11.5L17.5 11L15.5 11ZM20 6.49997C17.5147 6.49997 15.5 8.51469 15.5 11L17.5 11C17.5 9.61926 18.6193 8.49997 20 8.49997L20 6.49997ZM24.5 11C24.5 8.51469 22.4853 6.49997 20 6.49997L20 8.49997C21.3807 8.49997 22.5 9.61926 22.5 11L24.5 11ZM23.6934 13.5562C24.3341 12.7147 24.5 11.7275 24.5 11L22.5 11C22.5 11.4644 22.3885 11.9686 22.1022 12.3446L23.6934 13.5562ZM20.5 15C21.9051 15 22.9985 14.4689 23.6934 13.5562L22.1022 12.3446C21.8341 12.6967 21.3654 13 20.5 13L20.5 15ZM19.5 13L19.5 14L21.5 14L21.5 13L19.5 13ZM21.3066 11.7388C21.2631 11.7959 21.2042 11.851 21.1048 11.8969C21.0007 11.9451 20.8153 12 20.5 12L20.5 14C21.6362 14 22.4168 13.5821 22.8978 12.9504L21.3066 11.7388ZM21.5 11C21.5 11.3316 21.4162 11.5948 21.3066 11.7388L22.8978 12.9504C23.3611 12.3419 23.5 11.5965 23.5 11L21.5 11ZM20 9.49997C20.8284 9.49997 21.5 10.1715 21.5 11L23.5 11C23.5 9.06697 21.933 7.49997 20 7.49997L20 9.49997ZM18.5 11C18.5 10.1715 19.1716 9.49997 20 9.49997L20 7.49997C18.067 7.49997 16.5 9.06697 16.5 11L18.5 11ZM18.5 11.5L18.5 11L16.5 11L16.5 11.5L18.5 11.5ZM17 13C17.8284 13 18.5 12.3284 18.5 11.5L16.5 11.5C16.5 11.2239 16.7239 11 17 11L17 13Z" fill="white" mask="url(#path-5-inside-2)"/>
<path d="M12.657 18C12.6656 17.7456 12.6828 17.2451 12.7087 16.4985C12.493 16.6297 12.0529 16.8923 11.3883 17.2862C11.3279 17.1877 11.2028 16.9867 11.0129 16.6831C11.246 16.5682 11.712 16.3426 12.411 16.0062C12.178 15.8831 11.7077 15.6451 11 15.2923C11.069 15.1938 11.1985 14.9969 11.3883 14.7015C11.6127 14.8328 12.0529 15.0954 12.7087 15.4892C12.7001 15.2431 12.6828 14.7467 12.657 14C12.7778 14 13.0194 14 13.3819 14C13.3646 14.2462 13.3387 14.7426 13.3042 15.4892C13.5372 15.3579 13.9903 15.0954 14.6634 14.7015C14.7238 14.8 14.836 14.9969 15 15.2923C14.7756 15.4154 14.3139 15.6533 13.6149 16.0062C13.8479 16.121 14.3096 16.3467 15 16.6831C14.9482 16.7815 14.836 16.9826 14.6634 17.2862C14.4391 17.1549 13.9946 16.8923 13.3301 16.4985C13.3387 16.7446 13.356 17.2451 13.3819 18C13.2611 18 13.0194 18 12.657 18Z" fill="#F69C2A"/>
</svg>
