<svg width="30" height="30" viewBox="0 0 30 30" fill="none" xmlns="http://www.w3.org/2000/svg">
<circle cx="15" cy="15" r="14.5" fill="#1FAAE2" stroke="white"/>
<g clip-path="url(#clip0)">
<path d="M10.5202 8.75977C10.1201 8.75977 9.78009 8.89976 9.50006 9.17975C9.22014 9.45998 9.08008 9.7999 9.08008 10.2C9.08008 10.6001 9.22004 10.94 9.50006 11.2203C9.78019 11.5003 10.1202 11.6403 10.5202 11.6403C10.9135 11.6403 11.2518 11.5003 11.5352 11.2203C11.8185 10.9404 11.9601 10.6001 11.9601 10.2C11.9601 9.7999 11.8185 9.46023 11.5352 9.17975C11.2518 8.90001 10.9135 8.75977 10.5202 8.75977Z" fill="white" fill-opacity="0.5"/>
<path d="M10.2 14.6802C10.2 14.2402 10.0434 13.8637 9.73002 13.55C9.41669 13.2367 9.03996 13.0801 8.59998 13.0801C8.15996 13.0801 7.7833 13.2367 7.46993 13.55C7.15663 13.8634 7 14.2401 7 14.6802C7 15.1201 7.1566 15.4966 7.46993 15.81C7.7833 16.1235 8.15996 16.2801 8.59998 16.2801C9.03996 16.2801 9.41669 16.1235 9.73002 15.81C10.0434 15.4968 10.2 15.1201 10.2 14.6802Z" fill="white" fill-opacity="0.65"/>
<path d="M19.4798 19.96C19.6996 19.96 19.8882 19.8816 20.0447 19.725C20.2013 19.5682 20.2798 19.3798 20.2798 19.1599C20.2798 18.9398 20.2013 18.7515 20.0447 18.5949C19.8881 18.4382 19.6996 18.3599 19.4798 18.3599C19.2597 18.3599 19.0713 18.4383 18.9146 18.5949C18.758 18.7516 18.6797 18.9398 18.6797 19.1599C18.6797 19.3799 18.758 19.5682 18.9146 19.725C19.0713 19.8817 19.2597 19.96 19.4798 19.96Z" fill="white" fill-opacity="0.1"/>
<path d="M10.5203 17.3999C10.0336 17.3999 9.61858 17.5716 9.27523 17.9149C8.93184 18.2582 8.76025 18.6732 8.76025 19.1598C8.76025 19.6466 8.93184 20.0615 9.27523 20.4049C9.61868 20.7483 10.0337 20.9199 10.5203 20.9199C11.0069 20.9199 11.4219 20.7482 11.7652 20.4049C12.1085 20.0615 12.2802 19.6465 12.2802 19.1598C12.2802 18.6732 12.1085 18.2582 11.7652 17.9149C11.4219 17.5716 11.0069 17.3999 10.5203 17.3999Z" fill="white" fill-opacity="0.8"/>
<path opacity="0.3" d="M22.0796 14.0001C21.893 13.8135 21.6663 13.7202 21.3998 13.7202C21.1329 13.7202 20.9063 13.8135 20.7197 14.0001C20.5332 14.1868 20.4399 14.4135 20.4399 14.6804C20.4399 14.9469 20.5332 15.1739 20.7197 15.3602C20.9064 15.5469 21.1329 15.6402 21.3998 15.6402C21.6663 15.6402 21.8931 15.5469 22.0796 15.3602C22.2664 15.1737 22.3595 14.9469 22.3595 14.6804C22.3595 14.4137 22.2665 14.1869 22.0796 14.0001Z" fill="white"/>
<path d="M19.48 9.08008C19.1731 9.08008 18.9098 9.18999 18.6897 9.41005C18.4699 9.62987 18.3599 9.89332 18.3599 10.2002C18.3599 10.5068 18.4699 10.7702 18.6897 10.9903C18.9098 11.2104 19.1731 11.3202 19.48 11.3202C19.7866 11.3202 20.0499 11.2102 20.2699 10.9903C20.49 10.7703 20.6 10.5069 20.6 10.2002C20.6 9.89332 20.49 9.63015 20.2699 9.41005C20.0499 9.18995 19.7866 9.08008 19.48 9.08008Z" fill="white" fill-opacity="0.4"/>
<path d="M14.9998 7C14.6465 7 14.3448 7.12525 14.0947 7.37529C13.8448 7.62534 13.7197 7.92687 13.7197 8.28023C13.7197 8.6336 13.8446 8.93516 14.0947 9.18517C14.3448 9.43521 14.6464 9.56036 14.9998 9.56036C15.3532 9.56036 15.6548 9.43521 15.9048 9.18517C16.1549 8.93516 16.2799 8.6336 16.2799 8.28023C16.2799 7.92687 16.1549 7.62534 15.9048 7.37529C15.6548 7.12525 15.3532 7 14.9998 7Z" fill="white" fill-opacity="0.45"/>
<path d="M14.9997 19.1602C14.4664 19.1602 14.0129 19.3467 13.6395 19.7201C13.2662 20.0934 13.0796 20.5469 13.0796 21.0802C13.0796 21.6135 13.2662 22.0667 13.6395 22.4401C14.0129 22.8134 14.4663 23 14.9997 23C15.5332 23 15.9864 22.8135 16.3596 22.4401C16.7328 22.0669 16.9195 21.6135 16.9195 21.0802C16.9195 20.5469 16.7328 20.0936 16.3596 19.7201C15.9864 19.3468 15.5332 19.1602 14.9997 19.1602Z" fill="white"/>
<line x1="21" y1="8.70711" x2="8.70711" y2="21" stroke="#F49D1D" stroke-linecap="round"/>
</g>
<defs>
<clipPath id="clip0">
<rect width="16" height="16" fill="white" transform="matrix(1 0 0 -1 7 23)"/>
</clipPath>
</defs>
</svg>
