<svg width="30" height="30" viewBox="0 0 30 30" fill="none" xmlns="http://www.w3.org/2000/svg">
<circle cx="15" cy="15" r="14.5" fill="#1FAAE2" stroke="white"/>
<rect x="6" y="9" width="18" height="12" rx="2" fill="white"/>
<circle cx="8.5" cy="19.5" r="0.5" fill="#1FAAE2"/>
<mask id="path-4-inside-1" fill="white">
<path fill-rule="evenodd" clip-rule="evenodd" d="M10 19.5C10 19.2239 10.1919 19 10.4286 19L21.5714 19C21.8081 19 22 19.2239 22 19.5C22 19.7761 21.8081 20 21.5714 20L10.4286 20C10.1919 20 10 19.7761 10 19.5Z"/>
</mask>
<path fill-rule="evenodd" clip-rule="evenodd" d="M10 19.5C10 19.2239 10.1919 19 10.4286 19L21.5714 19C21.8081 19 22 19.2239 22 19.5C22 19.7761 21.8081 20 21.5714 20L10.4286 20C10.1919 20 10 19.7761 10 19.5Z" fill="#1FAAE2"/>
<path d="M10.4286 18C9.50053 18 9 18.8217 9 19.5L11 19.5C11 19.5913 10.9685 19.6995 10.8848 19.7972C10.7992 19.8971 10.641 20 10.4286 20L10.4286 18ZM21.5714 18L10.4286 18L10.4286 20L21.5714 20L21.5714 18ZM23 19.5C23 18.8217 22.4995 18 21.5714 18L21.5714 20C21.359 20 21.2008 19.8971 21.1152 19.7972C21.0315 19.6995 21 19.5913 21 19.5L23 19.5ZM21.5714 21C22.4995 21 23 20.1783 23 19.5L21 19.5C21 19.4087 21.0315 19.3005 21.1152 19.2028C21.2008 19.1029 21.359 19 21.5714 19L21.5714 21ZM10.4286 21L21.5714 21L21.5714 19L10.4286 19L10.4286 21ZM9 19.5C9 20.1783 9.50053 21 10.4286 21L10.4286 19C10.641 19 10.7992 19.1029 10.8848 19.2028C10.9685 19.3005 11 19.4087 11 19.5L9 19.5Z" fill="#1FAAE2" mask="url(#path-4-inside-1)"/>
<path fill-rule="evenodd" clip-rule="evenodd" d="M16 19.5C16 19.2239 16.2239 19 16.5 19L19.5 19C19.7761 19 20 19.2239 20 19.5C20 19.7761 19.7761 20 19.5 20L16.5 20C16.2239 20 16 19.7761 16 19.5Z" fill="#F49D1D"/>
<circle cx="16.5" cy="19.5" r="0.5" fill="white"/>
<path d="M18.731 5H15.9469C15.8559 5 15.765 5.05423 15.7104 5.14461L12.8717 10.6579C12.7808 10.8387 12.9081 11.0375 13.1083 11.0375H14.0181C14.2183 11.0375 14.3456 11.2544 14.2547 11.4171L12.0347 15.6109C11.8891 15.882 12.2349 16.1351 12.4532 15.9182L18.5308 10.0252C18.6946 9.86256 18.5854 9.57333 18.3488 9.57333H16.693C16.4746 9.57333 16.3472 9.33834 16.4746 9.15758L18.9493 5.39768C19.0767 5.23499 18.9493 5 18.731 5Z" fill="#F89C28"/>
<path fill-rule="evenodd" clip-rule="evenodd" d="M14.8215 4.68685C14.8319 4.66674 14.8429 4.64698 14.8546 4.62761C15.0643 4.28041 15.4585 4 15.9472 4H18.7312C19.6257 4 20.4409 5.0526 19.7679 5.97323L18.0566 8.57333H18.3491C19.5365 8.57333 19.9911 9.98439 19.2358 10.7347L19.2272 10.7432L13.1526 16.6332C12.1701 17.5983 10.4345 16.4846 11.1522 15.141L12.8131 12.0034C12.0577 11.825 11.5908 10.979 11.9787 10.2083L11.9829 10.2001L14.8215 4.68685ZM14.0183 11.0375C14.2185 11.0375 14.3459 11.2544 14.2549 11.4171L12.035 15.6109C11.8894 15.882 12.2351 16.1351 12.4535 15.9182L18.531 10.0252C18.6948 9.86256 18.5856 9.57333 18.3491 9.57333H16.6932C16.4749 9.57333 16.3475 9.33834 16.4749 9.15758L18.9495 5.39768C19.0769 5.23499 18.9495 5 18.7312 5H15.9472C15.8562 5 15.7652 5.05423 15.7106 5.14461L12.872 10.6579C12.781 10.8387 12.9084 11.0375 13.1085 11.0375H14.0183Z" fill="white"/>
</svg>
