<svg xmlns="http://www.w3.org/2000/svg" viewBox="0 0 40.45443 40.45578"><path d="M20.22654,1.38237A18.84553,18.84553,0,1,0,39.07207,20.22789,18.86583,18.86583,0,0,0,20.22654,1.38237Z" style="fill:#26a9e1"/><path d="M20.22654,40.45578A20.22789,20.22789,0,1,1,40.45443,20.22789,20.25,20.25,0,0,1,20.22654,40.45578Zm0-39.07341A18.84553,18.84553,0,1,0,39.07207,20.22789,18.86583,18.86583,0,0,0,20.22654,1.38237Z" style="fill:#fff"/><path d="M28.67617,11.53541H11.77826a1.69477,1.69477,0,0,0-1.68979,1.6898V14.915h1.68979V13.22521H28.67617V27.23058H24.05265v1.68979h4.62352A1.69476,1.69476,0,0,0,30.366,27.23058V13.22521A1.69476,1.69476,0,0,0,28.67617,11.53541Z" style="fill:#fff"/><path d="M10.08847,16.78725v1.86663A10.23692,10.23692,0,0,1,20.355,28.92037h1.86663A12.10894,12.10894,0,0,0,10.08847,16.78725Zm0,4.66658v1.86664a5.61636,5.61636,0,0,1,5.5999,5.5999H17.555A7.48849,7.48849,0,0,0,10.08847,21.45383Zm0,4.66659v2.79995h2.8A2.75,2.75,0,0,0,10.08847,26.12042Z" style="fill:#fff"/></svg>