<svg xmlns="http://www.w3.org/2000/svg" viewBox="0 0 40.45443 40.45578"><path d="M20.22654,1.38237A18.84553,18.84553,0,1,0,39.07207,20.22789,18.86583,18.86583,0,0,0,20.22654,1.38237Z" style="fill:#26a9e1"/><path d="M20.22654,40.45578A20.22789,20.22789,0,1,1,40.45443,20.22789,20.25,20.25,0,0,1,20.22654,40.45578Zm0-39.07341A18.84553,18.84553,0,1,0,39.07207,20.22789,18.86583,18.86583,0,0,0,20.22654,1.38237Z" style="fill:#fff"/><circle cx="15.99668" cy="19.64506" r="2.69386" style="fill:#f49b2c"/><circle cx="26.57537" cy="19.64506" r="2.69386" style="fill:#f49b2c"/><path d="M31.186,14.32812a70.6177,70.6177,0,0,0-9.89991-.68457,67.22394,67.22394,0,0,0-9.89746.68457A2.67967,2.67967,0,0,0,9.17285,16.8418V24.585a2.17936,2.17936,0,0,0,.67334,1.57666,2.33326,2.33326,0,0,0,1.64893.64746h.0083l4.78076-.57959a2.33056,2.33056,0,0,0,1.63574-.65918l2.32715-2.25976a1.50085,1.50085,0,0,1,2.07813,0l2.32666,2.26025a2.279,2.279,0,0,0,1.58789.65527l4.84765.58448.02979.002A2.25775,2.25775,0,0,0,33.39893,24.585V16.8418A2.59389,2.59389,0,0,0,31.186,14.32812Zm-.02,11.66944-4.87745-.58643a1.52117,1.52117,0,0,1-1.0664-.42773l-2.32666-2.25928a2.32453,2.32453,0,0,0-3.21924,0l-2.32666,2.25977a1.60214,1.60214,0,0,1-1.11426.43066l-4.78027.57959A1.43907,1.43907,0,0,1,9.99121,24.585V16.8418A1.884,1.884,0,0,1,11.521,15.13525a66.01636,66.01636,0,0,1,9.76513-.67382,69.35691,69.35691,0,0,1,9.76221.67382,1.77679,1.77679,0,0,1,1.53271,1.70655V24.585A1.42821,1.42821,0,0,1,31.166,25.99756Z" style="fill:#fff"/><path d="M15.99707,16.58936A3.05542,3.05542,0,1,0,19.05176,19.645,3.05891,3.05891,0,0,0,15.99707,16.58936Zm0,5.38818A2.33252,2.33252,0,1,1,18.32861,19.645,2.3352,2.3352,0,0,1,15.99707,21.97754Z" style="fill:#fff"/><path d="M26.5752,16.58936A3.05542,3.05542,0,1,0,29.63086,19.645,3.05881,3.05881,0,0,0,26.5752,16.58936Zm0,.72314A2.33252,2.33252,0,1,1,24.24268,19.645,2.33519,2.33519,0,0,1,26.5752,17.3125Z" style="fill:#fff"/><rect x="8.42387" y="18.03202" width="0.72841" height="5.43602" rx="0.3642" ry="0.3642" style="fill:#fff"/><rect x="33.41974" y="18.03202" width="0.72841" height="5.43602" rx="0.3642" ry="0.3642" style="fill:#fff"/></svg>