<svg xmlns="http://www.w3.org/2000/svg" viewBox="0 0 40.45443 40.45578"><path d="M20.22654,1.38237A18.84553,18.84553,0,1,0,39.07207,20.22789,18.86583,18.86583,0,0,0,20.22654,1.38237Z" style="fill:#26a9e1"/><path d="M27.83655,13.25331h-15.235a1.92794,1.92794,0,0,0-1.95348,1.8895V36.63936a17.21638,17.21638,0,0,0,19.142-.25882V15.14281A1.92794,1.92794,0,0,0,27.83655,13.25331Z" style="fill:#fff"/><path d="M28.367,16.45108H12.07112a.59275.59275,0,0,0-.58136.60022V36.97862a16.1677,16.1677,0,0,0,17.45856-.24441V17.0513A.59275.59275,0,0,0,28.367,16.45108Z" style="fill:#f49b2c"/><rect x="17.53161" y="14.06256" width="5.37486" height="1.79921" rx="0.65475" ry="0.65475" style="fill:#25a8e0"/><circle cx="28.37155" cy="26.47243" r="7.64436" style="fill:#1eabe2"/><path d="M25.5993,24.34407h0c-.002.02316-.00378.04658-.00378.07026v3.96985a.76273.76273,0,0,0,.75745.77087h.03v1.57024a.61079.61079,0,0,0,1.22157,0V29.15505h1.53408v1.57024a.61079.61079,0,0,0,1.22157,0V29.15505H30.39a.76277.76277,0,0,0,.7575-.77087V24.41433c0-.02368-.00086-.04718-.00283-.07026Z" style="fill:#fff"/><path d="M24.61414,24.69737h0a.61079.61079,0,0,0-.61081.61085v2.6202a.61079.61079,0,0,0,1.22157,0V25.30817A.6108.6108,0,0,0,24.61414,24.69737Z" style="fill:#fff"/><path d="M25.61714,24.0833h5.50873a2.22752,2.22752,0,0,0-.71708-1.58263l.50985-.88306-.00215-.008-.008.00215L30.4,22.49238a2.90926,2.90926,0,0,0-1.72159-.76h-.61385a2.90918,2.90918,0,0,0-1.72154.75995l-.50838-.88057-.008-.00215-.00215.008.50978.883A2.22756,2.22756,0,0,0,25.61714,24.0833Zm3.66069-1.09278a.31609.31609,0,0,1,.632-.00171v.00171a.31609.31609,0,0,1-.632.00172Zm-2.35883,0a.31609.31609,0,0,1,.632-.00171v.00171a.31609.31609,0,0,1-.632.00172Z" style="fill:#fff"/><path d="M32.129,24.69737h0a.61085.61085,0,0,0-.61081.61085v2.6202a.61079.61079,0,0,0,1.22157,0V25.30817A.6108.6108,0,0,0,32.129,24.69737Z" style="fill:#fff"/><circle cx="12.08302" cy="26.47243" r="7.64436" style="fill:#1eabe2"/><path d="M28.37142,18.44577a8.02664,8.02664,0,1,0,8.02642,8.02684A8.03582,8.03582,0,0,0,28.37142,18.44577Zm0,.7645a7.26214,7.26214,0,1,1-7.26193,7.26234A7.27032,7.27032,0,0,1,28.37142,19.21027Z" style="fill:#fff"/><path d="M12.083,18.44577a8.02664,8.02664,0,1,0,8.02642,8.02684A8.03582,8.03582,0,0,0,12.083,18.44577Zm0,.7645a7.26214,7.26214,0,1,1-7.26234,7.26234A7.27032,7.27032,0,0,1,12.083,19.21027Z" style="fill:#fff"/><path d="M14.1673,26.30555a1.97747,1.97747,0,0,0,1.20077,1.81024,4.896,4.896,0,0,1-.61914,1.27247c-.37291.545-.75992,1.088-1.36959,1.09928-.59906.011-.79169-.35523-1.47659-.35523-.68469,0-.89871.344-1.46579.36629-.58848.02228-1.03663-.58935-1.41261-1.13239-.7683-1.11077-1.35545-3.13876-.56706-4.5077a2.19017,2.19017,0,0,1,1.85126-1.12134c.57788-.011,1.12331.38878,1.47659.38878.35306,0,1.01588-.4808,1.71269-.41019a2.09,2.09,0,0,1,1.63635.88747,2.02332,2.02332,0,0,0-.96688,1.70232M13.04143,22.9809a1.97061,1.97061,0,0,0,.46535-1.42849,2.00553,2.00553,0,0,0-1.31794.67807,1.87247,1.87247,0,0,0-.47461,1.38392,1.65929,1.65929,0,0,0,1.3272-.6335" style="fill:#fff"/><path d="M20.22654,40.45578A20.22789,20.22789,0,1,1,40.45443,20.22789,20.25,20.25,0,0,1,20.22654,40.45578Zm0-39.07341A18.84553,18.84553,0,1,0,39.07207,20.22789,18.86583,18.86583,0,0,0,20.22654,1.38237Z" style="fill:#fff"/></svg>