<svg xmlns="http://www.w3.org/2000/svg" viewBox="0 0 40.45443 40.45578"><path d="M20.22654,1.38237A18.84553,18.84553,0,1,0,39.07207,20.22789,18.86583,18.86583,0,0,0,20.22654,1.38237Z" style="fill:#26a9e1"/><path d="M20.22654,40.45578A20.22789,20.22789,0,1,1,40.45443,20.22789,20.25,20.25,0,0,1,20.22654,40.45578Zm0-39.07341A18.84553,18.84553,0,1,0,39.07207,20.22789,18.86583,18.86583,0,0,0,20.22654,1.38237Z" style="fill:#fff"/><path d="M20.013,33.44887a2.22763,2.22763,0,0,1-2.32614-2.10836,5.32759,5.32759,0,0,1,.54212-1.69419.53657.53657,0,0,0,.03186-.50491.65466.65466,0,0,0-.54527-.25837v-.00118c-.02261.00045-4.856.00282-4.856.00282l-1.29507.0031V22.39036l.00059-.07767h-.00136c-.00916-.13993-.06876-.59523-.45418-.59523a.71315.71315,0,0,0-.30915.08162,5.33368,5.33368,0,0,1-1.695.54213A2.22775,2.22775,0,0,1,6.99721,20.0153a2.22831,2.22831,0,0,1,2.10823-2.3271,5.33543,5.33543,0,0,1,1.695.54208.7055.7055,0,0,0,.30933.0821c.37923,0,.44284-.44112.45335-.58772l.00142-.10781V11.57357l6.05461.00041.104-.00159a.6514.6514,0,0,0,.538-.2576.53681.53681,0,0,0-.03173-.50491,5.32448,5.32448,0,0,1-.54253-1.695,2.22809,2.22809,0,0,1,2.32687-2.108,2.22793,2.22793,0,0,1,2.32632,2.108,5.32839,5.32839,0,0,1-.54213,1.69461.53664.53664,0,0,0-.03166.50531.65412.65412,0,0,0,.54485.25837v.00123c.02221-.00041.048-.00041.07772-.00041h5.39964v.00237h1.10173v6.04683l.00119.10383c.01073.14662.0738.58814.45339.58814a.7091.7091,0,0,0,.30915-.082,5.34894,5.34894,0,0,1,1.695-.54218,2.22806,2.22806,0,0,1,2.10827,2.32674A2.22817,2.22817,0,0,1,31.349,22.344a5.33986,5.33986,0,0,1-1.695-.54213.71394.71394,0,0,0-.30915-.08167c-.3856,0-.445.45535-.45376.59487h-.00154l.00072,6.57553s-1.45357-.00363-1.54476-.00363H24.64937v-.00228L22.407,28.88231l-.10383.00119a.64992.64992,0,0,0-.53776.25791.53766.53766,0,0,0,.03212.50454,5.34073,5.34073,0,0,1,.54213,1.69456A2.22805,2.22805,0,0,1,20.013,33.44887Z" style="fill:#1eabe2;stroke:#fff;stroke-miterlimit:10"/><polygon points="23.863 20.228 18.041 15.987 18.041 24.469 23.863 20.228" style="fill:#f59b2b"/><path d="M24.40176,19.87195l-6.26434-4.47453a.41159.41159,0,0,0-.44745-.04475.43.43,0,0,0-.26847.40271v8.949a.43.43,0,0,0,.26847.40271.269.269,0,0,0,.179.04475.636.636,0,0,0,.26847-.08949l6.2196-4.47453a.407.407,0,0,0,.179-.358C24.536,20.09567,24.49125,19.91669,24.40176,19.87195Zm-6.04061,3.89283V16.695l4.96673,3.53488Z" style="fill:#fff"/></svg>