<svg xmlns="http://www.w3.org/2000/svg" viewBox="0 0 40.45443 40.45578"><path d="M20.22654,1.38237A18.84553,18.84553,0,1,0,39.07207,20.22789,18.86583,18.86583,0,0,0,20.22654,1.38237Z" style="fill:#26a9e1"/><path d="M20.22654,40.45578A20.22789,20.22789,0,1,1,40.45443,20.22789,20.25,20.25,0,0,1,20.22654,40.45578Zm0-39.07341A18.84553,18.84553,0,1,0,39.07207,20.22789,18.86583,18.86583,0,0,0,20.22654,1.38237Z" style="fill:#fff"/><rect x="11.13598" y="19.26475" width="5.32772" height="7.64441" rx="0.82386" ry="0.82386" style="fill:#f19c23"/><rect x="17.56336" y="16.74531" width="5.32772" height="10.16386" rx="0.94997" ry="0.94997" style="fill:#f19c23"/><rect x="23.99069" y="13.52287" width="5.32772" height="13.38629" rx="1.09021" ry="1.09021" style="fill:#f19c23"/><path d="M15.94149,27.22054h-4.2832a.83465.83465,0,0,1-.83367-.83367V19.787a.83465.83465,0,0,1,.83367-.83367h4.2832a.83456.83456,0,0,1,.83357.83367v6.59984A.83456.83456,0,0,1,15.94149,27.22054Zm-4.2832-7.64443a.21123.21123,0,0,0-.21093.21092v6.59984a.21123.21123,0,0,0,.21093.21093h4.2832a.21114.21114,0,0,0,.21082-.21093V19.787a.21114.21114,0,0,0-.21082-.21092Z" style="fill:#fff"/><path d="M22.36881,27.22054H18.08562a.83465.83465,0,0,1-.83367-.83367V17.24142a.83465.83465,0,0,1,.83367-.83367h4.28319a.83466.83466,0,0,1,.83368.83367v9.14545A.83466.83466,0,0,1,22.36881,27.22054Zm-4.28319-10.19a.21122.21122,0,0,0-.21093.21092v9.14545a.21123.21123,0,0,0,.21093.21093h4.28319a.21123.21123,0,0,0,.21093-.21093V17.24142a.21122.21122,0,0,0-.21093-.21092Z" style="fill:#fff"/><path d="M28.79624,27.22054H24.51305a.83468.83468,0,0,1-.83378-.83367v-12.318a.83468.83468,0,0,1,.83378-.83367h4.28319a.83463.83463,0,0,1,.83357.83367v12.318A.83463.83463,0,0,1,28.79624,27.22054ZM24.51305,13.858a.21125.21125,0,0,0-.211.21093v12.318a.21125.21125,0,0,0,.211.21093h4.28319a.21121.21121,0,0,0,.21083-.21093v-12.318a.21121.21121,0,0,0-.21083-.21093Z" style="fill:#fff"/></svg>