<svg xmlns="http://www.w3.org/2000/svg" viewBox="0 0 40.45443 40.45578"><path d="M20.22654,1.38237A18.84553,18.84553,0,1,0,39.07207,20.22789,18.86583,18.86583,0,0,0,20.22654,1.38237Z" style="fill:#26a9e1"/><path d="M20.22654,40.45578A20.22789,20.22789,0,1,1,40.45443,20.22789,20.25,20.25,0,0,1,20.22654,40.45578Zm0-39.07341A18.84553,18.84553,0,1,0,39.07207,20.22789,18.86583,18.86583,0,0,0,20.22654,1.38237Z" style="fill:#fff"/><path d="M9.78133,14.95722V24.9693a1.55989,1.55989,0,0,0,1.55989,1.55989H13.3125a.46614.46614,0,0,1,.44279.61184L12.70838,30.3226a.46613.46613,0,0,0,.72.52047l5.70927-4.22251a.46613.46613,0,0,1,.27718-.09137H29.1135a1.55989,1.55989,0,0,0,1.55989-1.55989V14.95723a1.55991,1.55991,0,0,0-1.55991-1.55991H11.34122A1.5599,1.5599,0,0,0,9.78133,14.95722Z" style="fill:#f49b2c"/><path d="M12.04209,31.24444,13.279,27.486a.46614.46614,0,0,0-.44278-.61185h-1.495a1.90478,1.90478,0,0,1-1.90478-1.90478V14.95716a1.90444,1.90444,0,0,1,1.90444-1.90444H29.11357A1.90444,1.90444,0,0,1,31.018,14.95716V24.969a1.90511,1.90511,0,0,1-1.90511,1.90511H19.52855a.4661.4661,0,0,0-.27717.09136l-6.48933,4.79941A.46614.46614,0,0,1,12.04209,31.24444Zm-.70123-17.5022A1.21491,1.21491,0,0,0,10.126,14.95716V24.969a1.21558,1.21558,0,0,0,1.21558,1.21559H13.789a.46614.46614,0,0,1,.44278.61185l-.85708,2.60434a.46614.46614,0,0,0,.71994.5205L19.02378,26.276a.46617.46617,0,0,1,.27717-.09135h9.81262a1.21492,1.21492,0,0,0,1.21492-1.21492V14.95716a1.21492,1.21492,0,0,0-1.21492-1.21492Z" style="fill:#fff"/><path d="M12.65039,19.90918a1.45748,1.45748,0,0,1-.42529-.19434,1.41924,1.41924,0,0,1-.3374-.31543,1.39274,1.39274,0,0,1-.22364-.439,1.82908,1.82908,0,0,1-.08008-.55078,1.94227,1.94227,0,0,1,.06446-.50537,1.48989,1.48989,0,0,1,.19433-.439,1.456,1.456,0,0,1,.314-.34424,1.38429,1.38429,0,0,1,.43359-.22607,1.74487,1.74487,0,0,1,.54248-.08154,1.53512,1.53512,0,0,1,.42823.06006,1.506,1.506,0,0,1,.41357.19531,1.656,1.656,0,0,1,.36963.33886l-.28418.23682a1.27013,1.27013,0,0,0-.41992-.3457,1.10256,1.10256,0,0,0-.50733-.12207,1.16173,1.16173,0,0,0-.61084.1582,1.04081,1.04081,0,0,0-.40185.437,1.52008,1.52008,0,0,0-.082,1.04541,1.11206,1.11206,0,0,0,.16015.33448,1.09409,1.09409,0,0,0,.24561.24755,1.054,1.054,0,0,0,.31738.15723,1.26588,1.26588,0,0,0,.37158.05322,1.15018,1.15018,0,0,0,.92725-.46338l.28418.23926a1.63306,1.63306,0,0,1-.52.4292,1.46982,1.46982,0,0,1-.69141.1582A1.8005,1.8005,0,0,1,12.65039,19.90918Z" style="fill:#fff"/><path d="M14.916,16.84131h1.90136v.35058H15.29883v1.04053H16.5459v.3501H15.29883v1.01709h1.61035v.3501H14.916Z" style="fill:#fff"/><path d="M19.33008,19.19336H17.94336l-.27539.75635h-.39942l1.17481-3.1084h.38232l1.1836,3.1084h-.40186Zm-.12207-.333-.56836-1.55322h-.0083l-.56592,1.55322Z" style="fill:#fff"/><path d="M20.27539,18.42676h1.29639v.34814H20.27539Z" style="fill:#fff"/><path d="M23.79053,16.94629v.25391L22.60059,20.001l-.36719-.07276,1.14941-2.64453H21.93213v-.3374Z" style="fill:#fff"/><path d="M24.8623,19.876a1.02745,1.02745,0,0,1-.35693-.29248,1.40517,1.40517,0,0,1-.23486-.48194,2.52334,2.52334,0,0,1-.00733-1.2666,1.55729,1.55729,0,0,1,.21778-.48486A1.03036,1.03036,0,0,1,25.76562,17.02a1.02728,1.02728,0,0,1,.35694.29248,1.39729,1.39729,0,0,1,.23486.48291,2.55011,2.55011,0,0,1,.00879,1.26758,1.53925,1.53925,0,0,1-.21777.48291,1.01251,1.01251,0,0,1-.356.31738,1.05718,1.05718,0,0,1-.93018.0127Zm.86182-.3877a.90055.90055,0,0,0,.2583-.41357,1.99326,1.99326,0,0,0,.08789-.62451,1.58331,1.58331,0,0,0-.207-.877.6399.6399,0,0,0-1.10449.00733,1.62367,1.62367,0,0,0-.20117.86963,1.56721,1.56721,0,0,0,.20849.87158.63339.63339,0,0,0,.5503.314A.60426.60426,0,0,0,25.72412,19.48828Z" style="fill:#fff"/><path d="M28.833,18.61572a.81911.81911,0,0,1,.1582.50733.74519.74519,0,0,1-.14209.4497.8991.8991,0,0,1-.38281.29883,1.33738,1.33738,0,0,1-.53711.104,1.284,1.284,0,0,1-.54443-.11133.89419.89419,0,0,1-.375-.30567.74922.74922,0,0,1-.13379-.43554.82117.82117,0,0,1,.1582-.50635.79833.79833,0,0,1,.41016-.29053v-.00635a.61684.61684,0,0,1-.29395-.23291.67132.67132,0,0,1-.127-.4038.74585.74585,0,0,1,.06933-.32276.67437.67437,0,0,1,.19141-.24121.89852.89852,0,0,1,.28711-.14844,1.19,1.19,0,0,1,.35791-.05224.99209.99209,0,0,1,.66016.21142.72466.72466,0,0,1,.22753.73584.7176.7176,0,0,1-.06494.16016.734.734,0,0,1-.09521.13135.62535.62535,0,0,1-.11524.10058.549.549,0,0,1-.123.062v.00635A.80157.80157,0,0,1,28.833,18.61572Zm-.4126.86182a.5044.5044,0,0,0,.19043-.395.52251.52251,0,0,0-.187-.4165.84011.84011,0,0,0-.98682,0,.521.521,0,0,0-.187.4165.49507.49507,0,0,0,.19531.40039.74214.74214,0,0,0,.48389.15918A.72248.72248,0,0,0,28.42041,19.47754Zm-.88721-2.0957a.42008.42008,0,0,0-.15527.3291.40139.40139,0,0,0,.15381.3291.71068.71068,0,0,0,.80224,0,.39951.39951,0,0,0,.15479-.3291.41257.41257,0,0,0-.15772-.333.60747.60747,0,0,0-.39941-.13037A.58394.58394,0,0,0,27.5332,17.38184Z" style="fill:#fff"/><rect x="11.25603" y="22.26734" width="6.14332" height="1.58174" rx="0.74355" ry="0.74355" style="fill:#fff"/><rect x="18.61825" y="22.26734" width="6.14332" height="1.58174" rx="0.74355" ry="0.74355" style="fill:#fff"/><rect x="26.37053" y="22.26734" width="2.82788" height="1.58174" rx="0.74355" ry="0.74355" style="fill:#fff"/></svg>