<svg width="30" height="30" viewBox="0 0 30 30" fill="none" xmlns="http://www.w3.org/2000/svg">
<circle cx="15" cy="15" r="14.5" fill="#1FAAE2" stroke="white"/>
<path fill-rule="evenodd" clip-rule="evenodd" d="M13.3384 7.32156C13.3789 7.47995 13.2834 7.64122 13.125 7.68176C9.86897 8.51531 7.44753 11.4586 7.44753 15.0001C7.44753 17.0056 8.22855 18.8283 9.50505 20.183C9.61718 20.3019 9.61161 20.4893 9.49262 20.6014C9.37363 20.7135 9.18628 20.708 9.07415 20.589C7.69833 19.1289 6.85547 17.1626 6.85547 15.0001C6.85547 11.1801 9.46805 8.00679 12.9782 7.1082C13.1365 7.06765 13.2978 7.16318 13.3384 7.32156Z" fill="white"/>
<path fill-rule="evenodd" clip-rule="evenodd" d="M20.7043 9.58163C20.8269 9.47346 21.014 9.48515 21.1222 9.60774C22.3849 11.0388 23.1719 12.9208 23.1719 15C23.1719 19.4938 19.521 23.1448 15.0272 23.1448C14.4665 23.1448 13.9047 23.0887 13.3694 22.976C13.2094 22.9423 13.107 22.7853 13.1407 22.6254C13.1744 22.4654 13.3314 22.363 13.4914 22.3967C13.9844 22.5005 14.5052 22.5527 15.0272 22.5527C19.194 22.5527 22.5799 19.1668 22.5799 15C22.5799 13.0737 21.8513 11.329 20.6782 9.99947C20.57 9.87687 20.5817 9.6898 20.7043 9.58163Z" fill="white"/>
<path d="M19.8986 6.66431H15.7577C15.6224 6.66431 15.4871 6.7455 15.4059 6.88082L11.1838 15.1355C11.0485 15.4062 11.2379 15.7039 11.5356 15.7039H12.8889C13.1866 15.7039 13.376 16.0287 13.2407 16.2722L9.93883 22.5512C9.72232 22.9572 10.2365 23.3361 10.5613 23.0113L19.6009 14.1883C19.8445 13.9447 19.6821 13.5116 19.3302 13.5116H16.8674C16.5426 13.5116 16.3531 13.1598 16.5426 12.8892L20.2234 7.25973C20.4128 7.01615 20.2234 6.66431 19.8986 6.66431Z" fill="#F89C28"/>
<path fill-rule="evenodd" clip-rule="evenodd" d="M15.1525 6.72841C15.2791 6.51727 15.5041 6.36816 15.7581 6.36816H19.899C20.4275 6.36816 20.8153 6.96427 20.4657 7.43055L16.7908 13.0511C16.7899 13.0524 16.789 13.0538 16.788 13.0552C16.7872 13.0564 16.7864 13.0576 16.7855 13.0588C16.7568 13.0998 16.7599 13.1362 16.7744 13.1636C16.7894 13.192 16.8193 13.2155 16.8678 13.2155H19.3307C19.9674 13.2155 20.2256 13.9825 19.8106 14.3975L19.8081 14.4L19.8081 14.4L10.7697 23.2219C10.2079 23.7812 9.30013 23.1224 9.67758 22.4127C9.67774 22.4124 9.67789 22.4121 9.67805 22.4118L12.9791 16.1343L12.9824 16.1284C12.9912 16.1124 12.9951 16.0842 12.9744 16.05C12.9546 16.0173 12.9239 15.9998 12.8893 15.9998H11.5361C11.0221 15.9998 10.684 15.4739 10.9194 15.003L10.9207 15.0006L10.9207 15.0006L15.1427 6.74591C15.1458 6.73997 15.149 6.73413 15.1525 6.72841ZM15.6643 7.02631L11.4486 15.2687C11.4283 15.3098 11.435 15.3421 11.4488 15.3642C11.4632 15.3872 11.4909 15.4077 11.5361 15.4077H12.8893C13.4013 15.4077 13.748 15.9634 13.5018 16.4125L10.2013 22.6889L10.2005 22.6904C10.1801 22.7285 10.1825 22.7521 10.186 22.7652C10.1904 22.7821 10.2024 22.8015 10.2233 22.817C10.2443 22.8325 10.2666 22.8384 10.2846 22.8376C10.2986 22.8371 10.322 22.8323 10.3524 22.8019L10.355 22.7993L10.355 22.7994L19.3929 13.9779C19.4218 13.9484 19.4296 13.9074 19.4135 13.8661C19.4056 13.8458 19.3935 13.8311 19.3812 13.8222C19.3706 13.8144 19.3554 13.8076 19.3307 13.8076H16.8678C16.31 13.8076 15.973 13.1938 16.2975 12.7236L19.976 7.09761C19.9805 7.09084 19.9852 7.08426 19.9901 7.07787C20.0004 7.06472 20.0027 7.05469 20.0031 7.04709C20.0036 7.03803 20.0016 7.02561 19.9941 7.0118C19.9794 6.98478 19.9484 6.96023 19.899 6.96023H15.7581C15.7421 6.96023 15.6993 6.9725 15.6643 7.02631Z" fill="white"/>
</svg>
